M48
; DRILL file {KiCad 7.0.2} date Thu Oct 26 02:33:05 2023
; FORMAT={-:-/ absolute / inch / decimal}
; #@! TF.CreationDate,2023-10-26T02:33:05+11:00
; #@! TF.GenerationSoftware,Kicad,Pcbnew,7.0.2
; #@! TF.FileFunction,Plated,1,2,PTH
FMAT,2
INCH
; #@! TA.AperFunction,Plated,PTH,ViaDrill
T1C0.0157
; #@! TA.AperFunction,Plated,PTH,ComponentDrill
T2C0.0197
; #@! TA.AperFunction,Plated,PTH,ComponentDrill
T3C0.0320
; #@! TA.AperFunction,Plated,PTH,ComponentDrill
T4C0.0394
%
G90
G05
T1
X3.5827Y-2.6378
X3.5827Y-2.6772
X3.5827Y-3.3858
X3.5827Y-3.4252
X3.5827Y-4.1339
X3.5827Y-4.1732
X4.3318Y-2.0817
X4.3318Y-2.121
X4.3318Y-2.8297
X4.3318Y-2.8691
X4.3318Y-3.5777
X4.3318Y-3.6171
X5.0492Y-4.2126
X5.0798Y-1.8858
X5.0798Y-1.9252
X5.0798Y-2.6339
X5.0798Y-2.6732
X5.0798Y-3.3819
X5.0798Y-3.4213
X5.8318Y-2.0738
X5.8318Y-2.1132
X5.8318Y-2.8218
X5.8318Y-2.8612
X5.8318Y-3.5699
X5.8318Y-3.6092
X5.8357Y-4.6958
X5.8357Y-4.7352
X5.8858Y-4.2126
X6.5354Y-4.2028
X6.5837Y-2.0738
X6.5837Y-2.1132
X6.5837Y-2.8218
X6.5837Y-2.8612
X6.5837Y-3.5699
X6.5837Y-3.6092
X6.8646Y-4.8475
X6.8748Y-4.8095
X7.05Y-4.65
X7.589Y-5.0404
X7.5992Y-5.0024
X7.8839Y-4.252
X7.8839Y-4.4685
T2
X7.2638Y-3.5315
X7.2638Y-3.6614
X7.2638Y-3.7677
X7.2638Y-3.8976
X7.2638Y-4.0039
X7.2638Y-4.1339
X7.3819Y-3.5315
X7.3819Y-3.6614
X7.3819Y-3.7677
X7.3819Y-3.8976
X7.3819Y-4.0039
X7.3819Y-4.1339
X7.3819Y-4.2402
X7.3819Y-4.3701
X7.5Y-3.5315
X7.5Y-3.6614
X7.5Y-3.7677
X7.5Y-3.8976
X7.5Y-4.0039
X7.5Y-4.1339
X7.5Y-4.2402
X7.5Y-4.3701
X7.6181Y-3.5315
X7.6181Y-3.6614
X7.6181Y-3.7677
X7.6181Y-3.8976
X7.6181Y-4.0039
X7.6181Y-4.1339
X7.6181Y-4.2402
X7.6181Y-4.3701
X7.7362Y-3.5315
X7.7362Y-3.6614
X7.7362Y-3.7677
X7.7362Y-3.8976
X7.7362Y-4.0039
X7.7362Y-4.1339
T3
X7.15Y-2.23
X7.15Y-2.33
X7.15Y-2.43
X7.15Y-2.53
X7.15Y-2.63
X7.15Y-2.73
X7.15Y-2.83
X7.15Y-2.93
X7.15Y-3.03
X7.15Y-3.13
X7.15Y-3.23
X7.15Y-3.33
X7.2022Y-2.18
X7.2022Y-2.28
X7.2022Y-2.38
X7.2022Y-2.48
X7.2022Y-2.58
X7.2022Y-2.68
X7.2022Y-2.78
X7.2022Y-2.88
X7.2022Y-2.98
X7.2022Y-3.08
X7.2022Y-3.18
X7.2022Y-3.28
X7.75Y-2.23
X7.75Y-2.33
X7.75Y-2.43
X7.75Y-2.53
X7.75Y-2.63
X7.75Y-2.73
X7.75Y-2.83
X7.75Y-2.93
X7.75Y-3.03
X7.75Y-3.13
X7.75Y-3.23
X7.75Y-3.33
X7.8014Y-2.18
X7.8014Y-2.28
X7.8014Y-2.38
X7.8014Y-2.48
X7.8014Y-2.58
X7.8014Y-2.68
X7.8014Y-2.78
X7.8014Y-2.88
X7.8014Y-2.98
X7.8014Y-3.08
X7.8014Y-3.18
X7.8014Y-3.28
T4
X4.1481Y-4.8431
X4.692Y-4.8431
X5.2359Y-4.8431
T0
M30
