%TF.GenerationSoftware,KiCad,Pcbnew,7.0.2*%
%TF.CreationDate,2023-10-26T02:33:05+11:00*%
%TF.ProjectId,cybr36,63796272-3336-42e6-9b69-6361645f7063,rev?*%
%TF.SameCoordinates,Original*%
%TF.FileFunction,Drillmap*%
%TF.FilePolarity,Positive*%
%FSLAX45Y45*%
G04 Gerber Fmt 4.5, Leading zero omitted, Abs format (unit mm)*
G04 Created by KiCad (PCBNEW 7.0.2) date 2023-10-26 02:33:05*
%MOMM*%
%LPD*%
G01*
G04 APERTURE LIST*
%ADD10C,0.263999*%
%ADD11C,0.200000*%
%ADD12C,0.090000*%
%ADD13C,0.170180*%
%ADD14C,0.300000*%
%ADD15C,0.320000*%
%ADD16C,0.398780*%
G04 APERTURE END LIST*
D10*
X16123192Y-13711760D02*
X16090433Y-13709074D01*
X19633181Y-14638269D02*
X16284754Y-13741156D01*
X13882554Y-5080524D02*
X13886286Y-5085835D01*
X8160395Y-13625255D02*
X8158072Y-13619234D01*
X8243278Y-5145368D02*
X8249555Y-5143585D01*
X19679196Y-14642287D02*
X19672721Y-14642706D01*
X20252635Y-5265152D02*
X20252798Y-5271712D01*
X8180285Y-13658470D02*
X8176284Y-13653335D01*
X8219559Y-5155387D02*
X8225263Y-5152466D01*
X12060373Y-4667110D02*
X12066690Y-4665685D01*
X8198777Y-13676962D02*
X8193827Y-13672697D01*
X20251348Y-5252176D02*
X20252151Y-5258636D01*
X11872640Y-5131674D02*
X11878660Y-5129351D01*
X12013913Y-4689079D02*
X12019223Y-4685347D01*
X19749335Y-14614376D02*
X19744248Y-14618187D01*
X20230571Y-5198316D02*
X20234030Y-5203790D01*
X8275810Y-5139592D02*
X8282617Y-5139420D01*
X13857761Y-4769483D02*
X13858877Y-4775877D01*
X8150325Y-5271712D02*
X8150497Y-5264905D01*
X8151008Y-5258186D02*
X8151850Y-5251565D01*
X8256690Y-13704356D02*
X8250373Y-13702931D01*
X13862893Y-5033058D02*
X13864317Y-5039375D01*
X8154315Y-13606875D02*
X8152891Y-13600558D01*
X19738990Y-14621748D02*
X19733569Y-14625052D01*
X11960326Y-5007129D02*
X11960326Y-4795412D01*
X11847570Y-5137971D02*
X11853964Y-5136855D01*
X20242727Y-5221086D02*
X20245051Y-5227107D01*
X13734594Y-4663283D02*
X13741110Y-4663767D01*
X20152751Y-5143410D02*
X20158980Y-5145138D01*
X20204346Y-5169379D02*
X20209296Y-5173644D01*
X11986286Y-4716706D02*
X11990287Y-4711571D01*
X8282617Y-5139420D02*
X11828034Y-5139420D01*
X16220681Y-13726219D02*
X16188342Y-13720337D01*
X11960164Y-5013689D02*
X11960326Y-5007129D01*
X8250373Y-13702931D02*
X8244144Y-13701203D01*
X13816825Y-4697344D02*
X13821578Y-4701867D01*
X13948013Y-5131674D02*
X13954144Y-5133702D01*
X8269545Y-13706273D02*
X8263084Y-13705471D01*
X8225263Y-5152466D02*
X8231123Y-5149816D01*
X13821578Y-4701867D02*
X13826102Y-4706621D01*
X11938100Y-5080525D02*
X11941559Y-5075051D01*
X12066690Y-4665685D02*
X12073084Y-4664570D01*
X13801430Y-4685347D02*
X13806740Y-4689079D01*
X13960372Y-5135431D02*
X13966689Y-5136855D01*
X13919223Y-5117194D02*
X13924697Y-5120654D01*
X8165910Y-13636924D02*
X8163010Y-13631155D01*
X13941993Y-5129351D02*
X13948013Y-5131674D01*
X20233494Y-12900874D02*
X20226552Y-12933020D01*
X8214697Y-13688154D02*
X8209223Y-13684694D01*
X11860281Y-5135431D02*
X11866510Y-5133702D01*
X8262471Y-5140944D02*
X8269091Y-5140103D01*
X13753964Y-4665686D02*
X13760280Y-4667110D01*
X8276060Y-13706758D02*
X8269545Y-13706273D01*
X8282617Y-5139420D02*
X8282617Y-5139420D01*
X13830366Y-4711571D02*
X13834367Y-4716706D01*
X11961777Y-4775877D02*
X11962892Y-4769483D01*
X13879094Y-5075051D02*
X13882554Y-5080524D01*
X8172919Y-5197746D02*
X8176607Y-5192560D01*
X11901430Y-5117194D02*
X11906740Y-5113462D01*
X20214050Y-5178167D02*
X20218573Y-5182921D01*
X19763465Y-14601500D02*
X19758954Y-14606027D01*
X20245051Y-5227107D02*
X20247079Y-5233237D01*
X11964317Y-4763166D02*
X11966045Y-4756937D01*
X8176284Y-13653335D02*
X8172552Y-13648025D01*
X13986059Y-5139258D02*
X13992619Y-5139420D01*
X19666195Y-14642803D02*
X19659630Y-14642573D01*
X13903828Y-5105197D02*
X13908778Y-5109461D01*
X13864317Y-5039375D02*
X13866046Y-5045604D01*
X13856336Y-4763166D02*
X13857761Y-4769483D01*
X8158072Y-13619234D02*
X8156044Y-13613104D01*
X13860326Y-4795412D02*
X13860328Y-5007129D01*
X13924697Y-5120654D02*
X13930324Y-5123836D01*
X11957761Y-5033058D02*
X11958877Y-5026665D01*
X13811875Y-4693079D02*
X13816825Y-4697344D01*
X11952580Y-5051734D02*
X11954608Y-5045604D01*
X19775682Y-14586582D02*
X19771839Y-14591772D01*
X20177032Y-5152104D02*
X20182800Y-5155005D01*
X19727997Y-14628094D02*
X19722285Y-14630868D01*
X16284754Y-13741156D02*
X16252827Y-13733160D01*
X11956337Y-5039375D02*
X11957761Y-5033058D01*
X8189073Y-13668174D02*
X8184550Y-13663420D01*
X19795210Y-14544724D02*
X19793281Y-14551255D01*
X16155837Y-13715516D02*
X16123192Y-13711760D01*
X12024697Y-4681887D02*
X12030324Y-4678705D01*
X19646423Y-14641110D02*
X19639802Y-14639865D01*
X11970397Y-4744786D02*
X11973012Y-4738886D01*
X20252798Y-5271712D02*
X20252796Y-12704871D01*
X8237131Y-5147448D02*
X8243278Y-5145368D01*
X12086059Y-4663283D02*
X12092619Y-4663120D01*
X13826102Y-4706621D02*
X13830366Y-4711571D01*
X13875912Y-5069424D02*
X13879094Y-5075051D01*
X11944742Y-5069424D02*
X11947642Y-5063655D01*
X13894551Y-5095920D02*
X13899075Y-5100673D01*
X8244144Y-13701203D02*
X8238014Y-13699175D01*
X20247955Y-12803386D02*
X20244199Y-12836031D01*
X11921579Y-5100673D02*
X11926103Y-5095920D01*
X19691959Y-14640512D02*
X19685612Y-14641554D01*
X12019223Y-4685347D02*
X12024697Y-4681887D01*
X8255956Y-5142108D02*
X8262471Y-5140944D01*
X20250643Y-12770627D02*
X20247955Y-12803386D01*
X13850256Y-4744786D02*
X13852579Y-4750807D01*
X8198467Y-5169629D02*
X8203465Y-5165702D01*
X11895956Y-5120654D02*
X11901430Y-5117194D01*
X19716441Y-14633368D02*
X19710476Y-14635588D01*
X20222838Y-5187871D02*
X20226838Y-5193006D01*
X13860490Y-5013689D02*
X13860975Y-5020204D01*
X13858877Y-4775877D02*
X13859679Y-4782337D01*
X11960974Y-4782337D02*
X11961777Y-4775877D01*
X11926103Y-5095920D02*
X11930367Y-5090970D01*
X20252151Y-5258636D02*
X20252635Y-5265152D01*
X11960326Y-4795412D02*
X11960489Y-4788852D01*
X8263084Y-13705471D02*
X8256690Y-13704356D01*
X13847642Y-4738886D02*
X13850256Y-4744786D01*
X13772640Y-4670867D02*
X13778660Y-4673190D01*
X19793281Y-14551255D02*
X19791049Y-14557612D01*
X20209296Y-5173644D02*
X20214050Y-5178167D01*
X20218573Y-5182921D02*
X20222838Y-5187871D01*
X8231123Y-5149816D02*
X8237131Y-5147448D01*
X11934368Y-5085835D02*
X11938100Y-5080525D01*
X11911876Y-5109461D02*
X11916826Y-5105197D01*
X13760280Y-4667110D02*
X13766509Y-4668839D01*
X13979543Y-5138773D02*
X13986059Y-5139258D01*
X13954144Y-5133702D02*
X13960372Y-5135431D01*
X8193667Y-5173787D02*
X8198467Y-5169629D01*
X13854608Y-4756937D02*
X13856336Y-4763166D01*
X11960489Y-4788852D02*
X11960974Y-4782337D01*
X19733569Y-14625052D02*
X19727997Y-14628094D01*
X11841110Y-5138773D02*
X11847570Y-5137971D01*
X11947642Y-5063655D02*
X11950256Y-5057755D01*
X20120504Y-5139420D02*
X20127064Y-5139583D01*
X8166292Y-5208654D02*
X8169478Y-5203114D01*
X11878660Y-5129351D02*
X11884561Y-5126736D01*
X19771839Y-14591772D02*
X19767763Y-14596747D01*
X13861777Y-5026664D02*
X13862893Y-5033058D01*
X13890287Y-5090970D02*
X13894551Y-5095920D01*
X19710476Y-14635588D02*
X19704401Y-14637523D01*
X8169478Y-5203114D02*
X8172919Y-5197746D01*
X8184550Y-13663420D02*
X8180285Y-13658470D01*
X19767763Y-14596747D02*
X19763465Y-14601500D01*
X19782629Y-14575581D02*
X19779282Y-14581183D01*
X8158353Y-5226226D02*
X8160722Y-5220218D01*
X13728034Y-4663120D02*
X13734594Y-4663283D01*
X11975912Y-4733117D02*
X11979094Y-4727490D01*
X11853964Y-5136855D02*
X11860281Y-5135431D01*
X8163010Y-13631155D02*
X8160395Y-13625255D01*
X8226093Y-13694237D02*
X8220324Y-13691336D01*
X13873012Y-5063655D02*
X13875912Y-5069424D01*
X8160722Y-5220218D02*
X8163371Y-5214358D01*
X20182800Y-5155005D02*
X20188427Y-5158187D01*
X8176607Y-5192560D02*
X8180535Y-5187562D01*
X8231993Y-13696851D02*
X8226093Y-13694237D01*
X8156273Y-5232373D02*
X8158353Y-5226226D01*
X13870397Y-5057755D02*
X13873012Y-5063655D01*
X13784560Y-4675804D02*
X13790329Y-4678705D01*
X8269091Y-5140103D02*
X8275810Y-5139592D01*
X20250232Y-5245782D02*
X20251348Y-5252176D01*
X11941559Y-5075051D02*
X11944742Y-5069424D01*
X20252257Y-12737780D02*
X20250643Y-12770627D01*
X13834367Y-4716706D02*
X13838099Y-4722016D01*
X8150497Y-5264905D02*
X8151008Y-5258186D01*
X19698225Y-14639166D02*
X19691959Y-14640512D01*
X13766509Y-4668839D02*
X13772640Y-4670867D01*
X8169093Y-13642551D02*
X8165910Y-13636924D01*
X13790329Y-4678705D02*
X13795956Y-4681887D01*
X20237212Y-5209417D02*
X20240113Y-5215186D01*
X20188427Y-5158187D02*
X20193901Y-5161647D01*
X11979094Y-4727490D02*
X11982554Y-4722016D01*
X20165111Y-5147167D02*
X20171131Y-5149490D01*
X11973012Y-4738886D02*
X11975912Y-4733117D01*
X12054144Y-4668838D02*
X12060373Y-4667110D01*
X8193827Y-13672697D02*
X8189073Y-13668174D01*
X13795956Y-4681887D02*
X13801430Y-4685347D01*
X8180535Y-5187562D02*
X8184693Y-5182762D01*
X20226838Y-5193006D02*
X20230571Y-5198316D01*
X8189073Y-5178168D02*
X8193667Y-5173787D01*
X8282620Y-13706920D02*
X8276060Y-13706758D01*
X13899075Y-5100673D02*
X13903828Y-5105197D01*
X11990287Y-4711571D02*
X11994551Y-4706621D01*
X19744248Y-14618187D02*
X19738990Y-14621748D01*
X8214019Y-5158572D02*
X8219559Y-5155387D01*
X13841559Y-4727490D02*
X13844741Y-4733117D01*
X13966689Y-5136855D02*
X13973083Y-5137971D01*
X12073084Y-4664570D02*
X12079544Y-4663767D01*
X19639802Y-14639865D02*
X19633181Y-14638269D01*
X11959679Y-5020204D02*
X11960164Y-5013689D01*
X20248808Y-5239466D02*
X20250232Y-5245782D01*
X20146434Y-5141986D02*
X20152751Y-5143410D01*
X20133580Y-5140068D02*
X20140040Y-5140870D01*
X11906740Y-5113462D02*
X11911876Y-5109461D01*
X13913913Y-5113462D02*
X13919223Y-5117194D01*
X19722285Y-14630868D02*
X19716441Y-14633368D01*
X12036093Y-4675804D02*
X12041993Y-4673190D01*
X20199211Y-5165379D02*
X20204346Y-5169379D01*
X8150488Y-13581188D02*
X8150325Y-13574628D01*
X19785712Y-14569781D02*
X19782629Y-14575581D01*
X13866046Y-5045604D02*
X13868074Y-5051734D01*
X8208652Y-5162014D02*
X8214019Y-5158572D01*
X11834594Y-5139258D02*
X11841110Y-5138773D01*
X20218554Y-12964946D02*
X19795210Y-14544724D01*
X16090433Y-13709074D02*
X16057586Y-13707459D01*
X11884561Y-5126736D02*
X11890330Y-5123836D01*
X13886286Y-5085835D02*
X13890287Y-5090970D01*
X8209223Y-13684694D02*
X8203912Y-13680962D01*
X13806740Y-4689079D02*
X13811875Y-4693079D01*
X13908778Y-5109461D02*
X13913913Y-5113462D01*
X19653036Y-14642011D02*
X19646423Y-14641110D01*
X19685612Y-14641554D02*
X19679196Y-14642287D01*
X19659630Y-14642573D02*
X19653036Y-14642011D01*
X19672721Y-14642706D02*
X19666195Y-14642803D01*
X13930324Y-5123836D02*
X13936093Y-5126736D01*
X11994551Y-4706621D02*
X11999075Y-4701867D01*
X13747570Y-4664570D02*
X13753964Y-4665686D01*
X12008778Y-4693079D02*
X12013913Y-4689079D01*
X20234030Y-5203790D02*
X20237212Y-5209417D01*
X8150325Y-13574628D02*
X8150325Y-5271712D01*
X8152891Y-13600558D02*
X8151775Y-13594164D01*
X19779282Y-14581183D02*
X19775682Y-14586582D01*
X13778660Y-4673190D02*
X13784560Y-4675804D01*
X11954608Y-5045604D02*
X11956337Y-5039375D01*
X16252827Y-13733160D02*
X16220681Y-13726219D01*
X20158980Y-5145138D02*
X20165111Y-5147167D01*
X20140040Y-5140870D02*
X20146434Y-5141986D01*
X11962892Y-4769483D02*
X11964317Y-4763166D01*
X11930367Y-5090970D02*
X11934368Y-5085835D01*
X8150972Y-13587704D02*
X8150488Y-13581188D01*
X12079544Y-4663767D02*
X12086059Y-4663283D01*
X20244199Y-12836031D02*
X20239378Y-12868536D01*
X19754241Y-14610321D02*
X19749335Y-14614376D01*
X20252796Y-12704871D02*
X20252257Y-12737780D01*
X13868074Y-5051734D02*
X13870397Y-5057755D01*
X12003828Y-4697344D02*
X12008778Y-4693079D01*
X11982554Y-4722016D02*
X11986286Y-4716706D01*
X13838099Y-4722016D02*
X13841559Y-4727490D01*
X20240113Y-5215186D02*
X20242727Y-5221086D01*
X20239378Y-12868536D02*
X20233494Y-12900874D01*
X19791049Y-14557612D02*
X19788523Y-14563789D01*
X13860328Y-5007129D02*
X13860490Y-5013689D01*
X13860975Y-5020204D02*
X13861777Y-5026664D01*
X8203465Y-5165702D02*
X8208652Y-5162014D01*
X11999075Y-4701867D02*
X12003828Y-4697344D01*
X11828034Y-5139420D02*
X11834594Y-5139258D01*
X8172552Y-13648025D02*
X8169093Y-13642551D01*
X16188342Y-13720337D02*
X16155837Y-13715516D01*
X13936093Y-5126736D02*
X13941993Y-5129351D01*
X12048014Y-4670867D02*
X12054144Y-4668838D01*
X20226552Y-12933020D02*
X20218554Y-12964946D01*
X20127064Y-5139583D02*
X20133580Y-5140068D01*
X11950256Y-5057755D02*
X11952580Y-5051734D01*
X13741110Y-4663767D02*
X13747570Y-4664570D01*
X8249555Y-5143585D02*
X8255956Y-5142108D01*
X13852579Y-4750807D02*
X13854608Y-4756937D01*
X11890330Y-5123836D02*
X11895956Y-5120654D01*
X19788523Y-14563789D02*
X19785712Y-14569781D01*
X20171131Y-5149490D02*
X20177032Y-5152104D01*
X8163371Y-5214358D02*
X8166292Y-5208654D01*
X8154490Y-5238650D02*
X8156273Y-5232373D01*
X13860164Y-4788852D02*
X13860326Y-4795412D01*
X8153013Y-5245051D02*
X8154490Y-5238650D01*
X8151775Y-13594164D02*
X8150972Y-13587704D01*
X8151850Y-5251565D02*
X8153013Y-5245051D01*
X19704401Y-14637523D02*
X19698225Y-14639166D01*
X16024677Y-13706920D02*
X8282620Y-13706920D01*
X11966045Y-4756937D02*
X11968074Y-4750807D01*
X16057586Y-13707459D02*
X16024677Y-13706920D01*
X12092619Y-4663120D02*
X13728034Y-4663120D01*
X13973083Y-5137971D02*
X13979543Y-5138773D01*
X8203912Y-13680962D02*
X8198777Y-13676962D01*
X11866510Y-5133702D02*
X11872640Y-5131674D01*
X8156044Y-13613104D02*
X8154315Y-13606875D01*
X13859679Y-4782337D02*
X13860164Y-4788852D01*
X20193901Y-5161647D02*
X20199211Y-5165379D01*
X13992619Y-5139420D02*
X20120504Y-5139420D01*
X11916826Y-5105197D02*
X11921579Y-5100673D01*
X11958877Y-5026665D02*
X11959679Y-5020204D01*
X13844741Y-4733117D02*
X13847642Y-4738886D01*
X8184693Y-5182762D02*
X8189073Y-5178168D01*
X8238014Y-13699175D02*
X8231993Y-13696851D01*
X20247079Y-5233237D02*
X20248808Y-5239466D01*
X12030324Y-4678705D02*
X12036093Y-4675804D01*
X12041993Y-4673190D02*
X12048014Y-4670867D01*
X11968074Y-4750807D02*
X11970397Y-4744786D01*
X19758954Y-14606027D02*
X19754241Y-14610321D01*
X8220324Y-13691336D02*
X8214697Y-13688154D01*
D11*
D12*
X20015500Y-11755000D02*
X20105500Y-11845000D01*
X20105500Y-11755000D02*
X20015500Y-11845000D01*
X20015500Y-12055000D02*
X20105500Y-12145000D01*
X20105500Y-12055000D02*
X20015500Y-12145000D01*
D13*
X8675937Y-7516562D02*
G75*
G03*
X8675937Y-7516562I-85090J0D01*
G01*
X8675937Y-9421562D02*
G75*
G03*
X8675937Y-9421562I-85090J0D01*
G01*
X8675937Y-11326562D02*
G75*
G03*
X8675937Y-11326562I-85090J0D01*
G01*
X9691937Y-7516562D02*
G75*
G03*
X9691937Y-7516562I-85090J0D01*
G01*
X9691937Y-9421562D02*
G75*
G03*
X9691937Y-9421562I-85090J0D01*
G01*
X9691937Y-11326562D02*
G75*
G03*
X9691937Y-11326562I-85090J0D01*
G01*
X10580937Y-6087812D02*
G75*
G03*
X10580937Y-6087812I-85090J0D01*
G01*
X10580937Y-7992812D02*
G75*
G03*
X10580937Y-7992812I-85090J0D01*
G01*
X10580937Y-9897812D02*
G75*
G03*
X10580937Y-9897812I-85090J0D01*
G01*
X11596937Y-6087812D02*
G75*
G03*
X11596937Y-6087812I-85090J0D01*
G01*
X11596937Y-7992812D02*
G75*
G03*
X11596937Y-7992812I-85090J0D01*
G01*
X11596937Y-9897812D02*
G75*
G03*
X11596937Y-9897812I-85090J0D01*
G01*
X12485937Y-5611562D02*
G75*
G03*
X12485937Y-5611562I-85090J0D01*
G01*
X12485937Y-7516562D02*
G75*
G03*
X12485937Y-7516562I-85090J0D01*
G01*
X12485937Y-9421562D02*
G75*
G03*
X12485937Y-9421562I-85090J0D01*
G01*
X13501937Y-5611562D02*
G75*
G03*
X13501937Y-5611562I-85090J0D01*
G01*
X13501937Y-7516562D02*
G75*
G03*
X13501937Y-7516562I-85090J0D01*
G01*
X13501937Y-9421562D02*
G75*
G03*
X13501937Y-9421562I-85090J0D01*
G01*
X14390937Y-6087812D02*
G75*
G03*
X14390937Y-6087812I-85090J0D01*
G01*
X14390937Y-7992812D02*
G75*
G03*
X14390937Y-7992812I-85090J0D01*
G01*
X14390937Y-9897812D02*
G75*
G03*
X14390937Y-9897812I-85090J0D01*
G01*
X14390937Y-12755312D02*
G75*
G03*
X14390937Y-12755312I-85090J0D01*
G01*
X15406937Y-6087812D02*
G75*
G03*
X15406937Y-6087812I-85090J0D01*
G01*
X15406937Y-7992812D02*
G75*
G03*
X15406937Y-7992812I-85090J0D01*
G01*
X15406937Y-9897812D02*
G75*
G03*
X15406937Y-9897812I-85090J0D01*
G01*
X15406937Y-12755312D02*
G75*
G03*
X15406937Y-12755312I-85090J0D01*
G01*
X16295937Y-6087812D02*
G75*
G03*
X16295937Y-6087812I-85090J0D01*
G01*
X16295937Y-7992812D02*
G75*
G03*
X16295937Y-7992812I-85090J0D01*
G01*
X16295937Y-9897812D02*
G75*
G03*
X16295937Y-9897812I-85090J0D01*
G01*
X16842096Y-12882881D02*
G75*
G03*
X16842096Y-12882881I-85090J0D01*
G01*
X17311937Y-6087812D02*
G75*
G03*
X17311937Y-6087812I-85090J0D01*
G01*
X17311937Y-7992812D02*
G75*
G03*
X17311937Y-7992812I-85090J0D01*
G01*
X17311937Y-9897812D02*
G75*
G03*
X17311937Y-9897812I-85090J0D01*
G01*
X17823476Y-13145841D02*
G75*
G03*
X17823476Y-13145841I-85090J0D01*
G01*
X18682196Y-13375931D02*
G75*
G03*
X18682196Y-13375931I-85090J0D01*
G01*
X19663576Y-13638891D02*
G75*
G03*
X19663576Y-13638891I-85090J0D01*
G01*
D14*
X8717847Y-7112562D02*
X8717847Y-7412562D01*
X8567847Y-7262562D02*
X8867847Y-7262562D01*
X8717847Y-9017562D02*
X8717847Y-9317562D01*
X8567847Y-9167562D02*
X8867847Y-9167562D01*
X8717847Y-10922562D02*
X8717847Y-11222562D01*
X8567847Y-11072562D02*
X8867847Y-11072562D01*
X8844847Y-6858562D02*
X8844847Y-7158562D01*
X8694847Y-7008562D02*
X8994847Y-7008562D01*
X8844847Y-8763562D02*
X8844847Y-9063562D01*
X8694847Y-8913562D02*
X8994847Y-8913562D01*
X8844847Y-10668562D02*
X8844847Y-10968562D01*
X8694847Y-10818562D02*
X8994847Y-10818562D01*
X9352847Y-6858562D02*
X9352847Y-7158562D01*
X9202847Y-7008562D02*
X9502847Y-7008562D01*
X9352847Y-8763562D02*
X9352847Y-9063562D01*
X9202847Y-8913562D02*
X9502847Y-8913562D01*
X9352847Y-10668562D02*
X9352847Y-10968562D01*
X9202847Y-10818562D02*
X9502847Y-10818562D01*
X9479847Y-7112562D02*
X9479847Y-7412562D01*
X9329847Y-7262562D02*
X9629847Y-7262562D01*
X9479847Y-9017562D02*
X9479847Y-9317562D01*
X9329847Y-9167562D02*
X9629847Y-9167562D01*
X9479847Y-10922562D02*
X9479847Y-11222562D01*
X9329847Y-11072562D02*
X9629847Y-11072562D01*
X10622847Y-5683812D02*
X10622847Y-5983812D01*
X10472847Y-5833812D02*
X10772847Y-5833812D01*
X10622847Y-7588812D02*
X10622847Y-7888812D01*
X10472847Y-7738812D02*
X10772847Y-7738812D01*
X10622847Y-9493812D02*
X10622847Y-9793812D01*
X10472847Y-9643812D02*
X10772847Y-9643812D01*
X10749847Y-5429812D02*
X10749847Y-5729812D01*
X10599847Y-5579812D02*
X10899847Y-5579812D01*
X10749847Y-7334812D02*
X10749847Y-7634812D01*
X10599847Y-7484812D02*
X10899847Y-7484812D01*
X10749847Y-9239812D02*
X10749847Y-9539812D01*
X10599847Y-9389812D02*
X10899847Y-9389812D01*
X11257847Y-5429812D02*
X11257847Y-5729812D01*
X11107847Y-5579812D02*
X11407847Y-5579812D01*
X11257847Y-7334812D02*
X11257847Y-7634812D01*
X11107847Y-7484812D02*
X11407847Y-7484812D01*
X11257847Y-9239812D02*
X11257847Y-9539812D01*
X11107847Y-9389812D02*
X11407847Y-9389812D01*
X11384847Y-5683812D02*
X11384847Y-5983812D01*
X11234847Y-5833812D02*
X11534847Y-5833812D01*
X11384847Y-7588812D02*
X11384847Y-7888812D01*
X11234847Y-7738812D02*
X11534847Y-7738812D01*
X11384847Y-9493812D02*
X11384847Y-9793812D01*
X11234847Y-9643812D02*
X11534847Y-9643812D01*
X12527847Y-5207562D02*
X12527847Y-5507562D01*
X12377847Y-5357562D02*
X12677847Y-5357562D01*
X12527847Y-7112562D02*
X12527847Y-7412562D01*
X12377847Y-7262562D02*
X12677847Y-7262562D01*
X12527847Y-9017562D02*
X12527847Y-9317562D01*
X12377847Y-9167562D02*
X12677847Y-9167562D01*
X12654847Y-4953562D02*
X12654847Y-5253562D01*
X12504847Y-5103562D02*
X12804847Y-5103562D01*
X12654847Y-6858562D02*
X12654847Y-7158562D01*
X12504847Y-7008562D02*
X12804847Y-7008562D01*
X12654847Y-8763562D02*
X12654847Y-9063562D01*
X12504847Y-8913562D02*
X12804847Y-8913562D01*
X13162847Y-4953562D02*
X13162847Y-5253562D01*
X13012847Y-5103562D02*
X13312847Y-5103562D01*
X13162847Y-6858562D02*
X13162847Y-7158562D01*
X13012847Y-7008562D02*
X13312847Y-7008562D01*
X13162847Y-8763562D02*
X13162847Y-9063562D01*
X13012847Y-8913562D02*
X13312847Y-8913562D01*
X13289847Y-5207562D02*
X13289847Y-5507562D01*
X13139847Y-5357562D02*
X13439847Y-5357562D01*
X13289847Y-7112562D02*
X13289847Y-7412562D01*
X13139847Y-7262562D02*
X13439847Y-7262562D01*
X13289847Y-9017562D02*
X13289847Y-9317562D01*
X13139847Y-9167562D02*
X13439847Y-9167562D01*
X14432847Y-5683812D02*
X14432847Y-5983812D01*
X14282847Y-5833812D02*
X14582847Y-5833812D01*
X14432847Y-7588812D02*
X14432847Y-7888812D01*
X14282847Y-7738812D02*
X14582847Y-7738812D01*
X14432847Y-9493812D02*
X14432847Y-9793812D01*
X14282847Y-9643812D02*
X14582847Y-9643812D01*
X14432847Y-12351312D02*
X14432847Y-12651312D01*
X14282847Y-12501312D02*
X14582847Y-12501312D01*
X14559847Y-5429812D02*
X14559847Y-5729812D01*
X14409847Y-5579812D02*
X14709847Y-5579812D01*
X14559847Y-7334812D02*
X14559847Y-7634812D01*
X14409847Y-7484812D02*
X14709847Y-7484812D01*
X14559847Y-9239812D02*
X14559847Y-9539812D01*
X14409847Y-9389812D02*
X14709847Y-9389812D01*
X14559847Y-12097312D02*
X14559847Y-12397312D01*
X14409847Y-12247312D02*
X14709847Y-12247312D01*
X15067847Y-5429812D02*
X15067847Y-5729812D01*
X14917847Y-5579812D02*
X15217847Y-5579812D01*
X15067847Y-7334812D02*
X15067847Y-7634812D01*
X14917847Y-7484812D02*
X15217847Y-7484812D01*
X15067847Y-9239812D02*
X15067847Y-9539812D01*
X14917847Y-9389812D02*
X15217847Y-9389812D01*
X15067847Y-12097312D02*
X15067847Y-12397312D01*
X14917847Y-12247312D02*
X15217847Y-12247312D01*
X15194847Y-5683812D02*
X15194847Y-5983812D01*
X15044847Y-5833812D02*
X15344847Y-5833812D01*
X15194847Y-7588812D02*
X15194847Y-7888812D01*
X15044847Y-7738812D02*
X15344847Y-7738812D01*
X15194847Y-9493812D02*
X15194847Y-9793812D01*
X15044847Y-9643812D02*
X15344847Y-9643812D01*
X15194847Y-12351312D02*
X15194847Y-12651312D01*
X15044847Y-12501312D02*
X15344847Y-12501312D01*
X16337847Y-5683812D02*
X16337847Y-5983812D01*
X16187847Y-5833812D02*
X16487847Y-5833812D01*
X16337847Y-7588812D02*
X16337847Y-7888812D01*
X16187847Y-7738812D02*
X16487847Y-7738812D01*
X16337847Y-9493812D02*
X16337847Y-9793812D01*
X16187847Y-9643812D02*
X16487847Y-9643812D01*
X16464847Y-5429812D02*
X16464847Y-5729812D01*
X16314847Y-5579812D02*
X16614847Y-5579812D01*
X16464847Y-7334812D02*
X16464847Y-7634812D01*
X16314847Y-7484812D02*
X16614847Y-7484812D01*
X16464847Y-9239812D02*
X16464847Y-9539812D01*
X16314847Y-9389812D02*
X16614847Y-9389812D01*
X16945418Y-12520406D02*
X16945418Y-12820406D01*
X16795418Y-12670406D02*
X17095418Y-12670406D01*
X16972847Y-5429812D02*
X16972847Y-5729812D01*
X16822847Y-5579812D02*
X17122847Y-5579812D01*
X16972847Y-7334812D02*
X16972847Y-7634812D01*
X16822847Y-7484812D02*
X17122847Y-7484812D01*
X16972847Y-9239812D02*
X16972847Y-9539812D01*
X16822847Y-9389812D02*
X17122847Y-9389812D01*
X17099847Y-5683812D02*
X17099847Y-5983812D01*
X16949847Y-5833812D02*
X17249847Y-5833812D01*
X17099847Y-7588812D02*
X17099847Y-7888812D01*
X16949847Y-7738812D02*
X17249847Y-7738812D01*
X17099847Y-9493812D02*
X17099847Y-9793812D01*
X16949847Y-9643812D02*
X17249847Y-9643812D01*
X17133831Y-12307931D02*
X17133831Y-12607931D01*
X16983831Y-12457931D02*
X17283831Y-12457931D01*
X17624521Y-12439411D02*
X17624521Y-12739411D01*
X17474521Y-12589411D02*
X17774521Y-12589411D01*
X17681454Y-12717626D02*
X17681454Y-13017626D01*
X17531454Y-12867626D02*
X17831454Y-12867626D01*
X18785518Y-13013456D02*
X18785518Y-13313456D01*
X18635518Y-13163456D02*
X18935518Y-13163456D01*
X18973931Y-12800980D02*
X18973931Y-13100980D01*
X18823931Y-12950980D02*
X19123931Y-12950980D01*
X19464621Y-12932461D02*
X19464621Y-13232461D01*
X19314621Y-13082461D02*
X19614621Y-13082461D01*
X19521554Y-13210676D02*
X19521554Y-13510676D01*
X19371554Y-13360676D02*
X19671554Y-13360676D01*
D15*
X10129985Y-8582200D02*
X10129985Y-8355923D01*
X9903709Y-8355923D01*
X9903709Y-8582200D01*
X10129985Y-8582200D01*
X10129985Y-10487200D02*
X10129985Y-10260923D01*
X9903709Y-10260923D01*
X9903709Y-10487200D01*
X10129985Y-10487200D01*
X15844985Y-7153450D02*
X15844985Y-6927173D01*
X15618709Y-6927173D01*
X15618709Y-7153450D01*
X15844985Y-7153450D01*
X15844985Y-9058450D02*
X15844985Y-8832173D01*
X15618709Y-8832173D01*
X15618709Y-9058450D01*
X15844985Y-9058450D01*
X19163138Y-12053138D02*
X19163138Y-11826862D01*
X18936862Y-11826862D01*
X18936862Y-12053138D01*
X19163138Y-12053138D01*
D16*
X9098847Y-7715952D02*
X9298237Y-7516562D01*
X9098847Y-7317172D01*
X8899457Y-7516562D01*
X9098847Y-7715952D01*
X9098847Y-9620952D02*
X9298237Y-9421562D01*
X9098847Y-9222172D01*
X8899457Y-9421562D01*
X9098847Y-9620952D01*
X9098847Y-11525952D02*
X9298237Y-11326562D01*
X9098847Y-11127172D01*
X8899457Y-11326562D01*
X9098847Y-11525952D01*
X11003847Y-6287202D02*
X11203237Y-6087812D01*
X11003847Y-5888422D01*
X10804457Y-6087812D01*
X11003847Y-6287202D01*
X11003847Y-8192202D02*
X11203237Y-7992812D01*
X11003847Y-7793422D01*
X10804457Y-7992812D01*
X11003847Y-8192202D01*
X11003847Y-10097202D02*
X11203237Y-9897812D01*
X11003847Y-9698422D01*
X10804457Y-9897812D01*
X11003847Y-10097202D01*
X12908847Y-5810952D02*
X13108237Y-5611562D01*
X12908847Y-5412172D01*
X12709457Y-5611562D01*
X12908847Y-5810952D01*
X12908847Y-7715952D02*
X13108237Y-7516562D01*
X12908847Y-7317172D01*
X12709457Y-7516562D01*
X12908847Y-7715952D01*
X12908847Y-9620952D02*
X13108237Y-9421562D01*
X12908847Y-9222172D01*
X12709457Y-9421562D01*
X12908847Y-9620952D01*
X14813847Y-6287202D02*
X15013237Y-6087812D01*
X14813847Y-5888422D01*
X14614457Y-6087812D01*
X14813847Y-6287202D01*
X14813847Y-8192202D02*
X15013237Y-7992812D01*
X14813847Y-7793422D01*
X14614457Y-7992812D01*
X14813847Y-8192202D01*
X14813847Y-10097202D02*
X15013237Y-9897812D01*
X14813847Y-9698422D01*
X14614457Y-9897812D01*
X14813847Y-10097202D01*
X14813847Y-12954702D02*
X15013237Y-12755312D01*
X14813847Y-12555922D01*
X14614457Y-12755312D01*
X14813847Y-12954702D01*
X16718847Y-6287202D02*
X16918237Y-6087812D01*
X16718847Y-5888422D01*
X16519457Y-6087812D01*
X16718847Y-6287202D01*
X16718847Y-8192202D02*
X16918237Y-7992812D01*
X16718847Y-7793422D01*
X16519457Y-7992812D01*
X16718847Y-8192202D01*
X16718847Y-10097202D02*
X16918237Y-9897812D01*
X16718847Y-9698422D01*
X16519457Y-9897812D01*
X16718847Y-10097202D01*
X17247696Y-13213751D02*
X17447086Y-13014361D01*
X17247696Y-12814971D01*
X17048306Y-13014361D01*
X17247696Y-13213751D01*
X19087796Y-13706801D02*
X19287186Y-13507411D01*
X19087796Y-13308021D01*
X18888406Y-13507411D01*
X19087796Y-13706801D01*
D11*
X8384744Y-14968527D02*
X8384744Y-14768527D01*
X8384744Y-14768527D02*
X8432363Y-14768527D01*
X8432363Y-14768527D02*
X8460935Y-14778050D01*
X8460935Y-14778050D02*
X8479982Y-14797098D01*
X8479982Y-14797098D02*
X8489506Y-14816146D01*
X8489506Y-14816146D02*
X8499030Y-14854241D01*
X8499030Y-14854241D02*
X8499030Y-14882812D01*
X8499030Y-14882812D02*
X8489506Y-14920908D01*
X8489506Y-14920908D02*
X8479982Y-14939955D01*
X8479982Y-14939955D02*
X8460935Y-14959003D01*
X8460935Y-14959003D02*
X8432363Y-14968527D01*
X8432363Y-14968527D02*
X8384744Y-14968527D01*
X8584744Y-14968527D02*
X8584744Y-14835193D01*
X8584744Y-14873289D02*
X8594268Y-14854241D01*
X8594268Y-14854241D02*
X8603792Y-14844717D01*
X8603792Y-14844717D02*
X8622840Y-14835193D01*
X8622840Y-14835193D02*
X8641887Y-14835193D01*
X8708554Y-14968527D02*
X8708554Y-14835193D01*
X8708554Y-14768527D02*
X8699030Y-14778050D01*
X8699030Y-14778050D02*
X8708554Y-14787574D01*
X8708554Y-14787574D02*
X8718078Y-14778050D01*
X8718078Y-14778050D02*
X8708554Y-14768527D01*
X8708554Y-14768527D02*
X8708554Y-14787574D01*
X8832363Y-14968527D02*
X8813316Y-14959003D01*
X8813316Y-14959003D02*
X8803792Y-14939955D01*
X8803792Y-14939955D02*
X8803792Y-14768527D01*
X8937125Y-14968527D02*
X8918078Y-14959003D01*
X8918078Y-14959003D02*
X8908554Y-14939955D01*
X8908554Y-14939955D02*
X8908554Y-14768527D01*
X9165697Y-14968527D02*
X9165697Y-14768527D01*
X9165697Y-14768527D02*
X9232363Y-14911384D01*
X9232363Y-14911384D02*
X9299030Y-14768527D01*
X9299030Y-14768527D02*
X9299030Y-14968527D01*
X9479982Y-14968527D02*
X9479982Y-14863765D01*
X9479982Y-14863765D02*
X9470459Y-14844717D01*
X9470459Y-14844717D02*
X9451411Y-14835193D01*
X9451411Y-14835193D02*
X9413316Y-14835193D01*
X9413316Y-14835193D02*
X9394268Y-14844717D01*
X9479982Y-14959003D02*
X9460935Y-14968527D01*
X9460935Y-14968527D02*
X9413316Y-14968527D01*
X9413316Y-14968527D02*
X9394268Y-14959003D01*
X9394268Y-14959003D02*
X9384744Y-14939955D01*
X9384744Y-14939955D02*
X9384744Y-14920908D01*
X9384744Y-14920908D02*
X9394268Y-14901860D01*
X9394268Y-14901860D02*
X9413316Y-14892336D01*
X9413316Y-14892336D02*
X9460935Y-14892336D01*
X9460935Y-14892336D02*
X9479982Y-14882812D01*
X9575221Y-14835193D02*
X9575221Y-15035193D01*
X9575221Y-14844717D02*
X9594268Y-14835193D01*
X9594268Y-14835193D02*
X9632363Y-14835193D01*
X9632363Y-14835193D02*
X9651411Y-14844717D01*
X9651411Y-14844717D02*
X9660935Y-14854241D01*
X9660935Y-14854241D02*
X9670459Y-14873289D01*
X9670459Y-14873289D02*
X9670459Y-14930431D01*
X9670459Y-14930431D02*
X9660935Y-14949479D01*
X9660935Y-14949479D02*
X9651411Y-14959003D01*
X9651411Y-14959003D02*
X9632363Y-14968527D01*
X9632363Y-14968527D02*
X9594268Y-14968527D01*
X9594268Y-14968527D02*
X9575221Y-14959003D01*
X9756173Y-14949479D02*
X9765697Y-14959003D01*
X9765697Y-14959003D02*
X9756173Y-14968527D01*
X9756173Y-14968527D02*
X9746649Y-14959003D01*
X9746649Y-14959003D02*
X9756173Y-14949479D01*
X9756173Y-14949479D02*
X9756173Y-14968527D01*
X9756173Y-14844717D02*
X9765697Y-14854241D01*
X9765697Y-14854241D02*
X9756173Y-14863765D01*
X9756173Y-14863765D02*
X9746649Y-14854241D01*
X9746649Y-14854241D02*
X9756173Y-14844717D01*
X9756173Y-14844717D02*
X9756173Y-14863765D01*
D12*
X8047125Y-15251003D02*
X8137125Y-15341003D01*
X8137125Y-15251003D02*
X8047125Y-15341003D01*
D11*
X8422840Y-15188527D02*
X8441887Y-15188527D01*
X8441887Y-15188527D02*
X8460935Y-15198050D01*
X8460935Y-15198050D02*
X8470459Y-15207574D01*
X8470459Y-15207574D02*
X8479982Y-15226622D01*
X8479982Y-15226622D02*
X8489506Y-15264717D01*
X8489506Y-15264717D02*
X8489506Y-15312336D01*
X8489506Y-15312336D02*
X8479982Y-15350431D01*
X8479982Y-15350431D02*
X8470459Y-15369479D01*
X8470459Y-15369479D02*
X8460935Y-15379003D01*
X8460935Y-15379003D02*
X8441887Y-15388527D01*
X8441887Y-15388527D02*
X8422840Y-15388527D01*
X8422840Y-15388527D02*
X8403792Y-15379003D01*
X8403792Y-15379003D02*
X8394268Y-15369479D01*
X8394268Y-15369479D02*
X8384744Y-15350431D01*
X8384744Y-15350431D02*
X8375220Y-15312336D01*
X8375220Y-15312336D02*
X8375220Y-15264717D01*
X8375220Y-15264717D02*
X8384744Y-15226622D01*
X8384744Y-15226622D02*
X8394268Y-15207574D01*
X8394268Y-15207574D02*
X8403792Y-15198050D01*
X8403792Y-15198050D02*
X8422840Y-15188527D01*
X8575221Y-15369479D02*
X8584744Y-15379003D01*
X8584744Y-15379003D02*
X8575221Y-15388527D01*
X8575221Y-15388527D02*
X8565697Y-15379003D01*
X8565697Y-15379003D02*
X8575221Y-15369479D01*
X8575221Y-15369479D02*
X8575221Y-15388527D01*
X8679982Y-15388527D02*
X8718078Y-15388527D01*
X8718078Y-15388527D02*
X8737125Y-15379003D01*
X8737125Y-15379003D02*
X8746649Y-15369479D01*
X8746649Y-15369479D02*
X8765697Y-15340908D01*
X8765697Y-15340908D02*
X8775221Y-15302812D01*
X8775221Y-15302812D02*
X8775221Y-15226622D01*
X8775221Y-15226622D02*
X8765697Y-15207574D01*
X8765697Y-15207574D02*
X8756173Y-15198050D01*
X8756173Y-15198050D02*
X8737125Y-15188527D01*
X8737125Y-15188527D02*
X8699030Y-15188527D01*
X8699030Y-15188527D02*
X8679982Y-15198050D01*
X8679982Y-15198050D02*
X8670459Y-15207574D01*
X8670459Y-15207574D02*
X8660935Y-15226622D01*
X8660935Y-15226622D02*
X8660935Y-15274241D01*
X8660935Y-15274241D02*
X8670459Y-15293289D01*
X8670459Y-15293289D02*
X8679982Y-15302812D01*
X8679982Y-15302812D02*
X8699030Y-15312336D01*
X8699030Y-15312336D02*
X8737125Y-15312336D01*
X8737125Y-15312336D02*
X8756173Y-15302812D01*
X8756173Y-15302812D02*
X8765697Y-15293289D01*
X8765697Y-15293289D02*
X8775221Y-15274241D01*
X8899030Y-15188527D02*
X8918078Y-15188527D01*
X8918078Y-15188527D02*
X8937125Y-15198050D01*
X8937125Y-15198050D02*
X8946649Y-15207574D01*
X8946649Y-15207574D02*
X8956173Y-15226622D01*
X8956173Y-15226622D02*
X8965697Y-15264717D01*
X8965697Y-15264717D02*
X8965697Y-15312336D01*
X8965697Y-15312336D02*
X8956173Y-15350431D01*
X8956173Y-15350431D02*
X8946649Y-15369479D01*
X8946649Y-15369479D02*
X8937125Y-15379003D01*
X8937125Y-15379003D02*
X8918078Y-15388527D01*
X8918078Y-15388527D02*
X8899030Y-15388527D01*
X8899030Y-15388527D02*
X8879982Y-15379003D01*
X8879982Y-15379003D02*
X8870459Y-15369479D01*
X8870459Y-15369479D02*
X8860935Y-15350431D01*
X8860935Y-15350431D02*
X8851411Y-15312336D01*
X8851411Y-15312336D02*
X8851411Y-15264717D01*
X8851411Y-15264717D02*
X8860935Y-15226622D01*
X8860935Y-15226622D02*
X8870459Y-15207574D01*
X8870459Y-15207574D02*
X8879982Y-15198050D01*
X8879982Y-15198050D02*
X8899030Y-15188527D01*
X9089506Y-15188527D02*
X9108554Y-15188527D01*
X9108554Y-15188527D02*
X9127602Y-15198050D01*
X9127602Y-15198050D02*
X9137125Y-15207574D01*
X9137125Y-15207574D02*
X9146649Y-15226622D01*
X9146649Y-15226622D02*
X9156173Y-15264717D01*
X9156173Y-15264717D02*
X9156173Y-15312336D01*
X9156173Y-15312336D02*
X9146649Y-15350431D01*
X9146649Y-15350431D02*
X9137125Y-15369479D01*
X9137125Y-15369479D02*
X9127602Y-15379003D01*
X9127602Y-15379003D02*
X9108554Y-15388527D01*
X9108554Y-15388527D02*
X9089506Y-15388527D01*
X9089506Y-15388527D02*
X9070459Y-15379003D01*
X9070459Y-15379003D02*
X9060935Y-15369479D01*
X9060935Y-15369479D02*
X9051411Y-15350431D01*
X9051411Y-15350431D02*
X9041887Y-15312336D01*
X9041887Y-15312336D02*
X9041887Y-15264717D01*
X9041887Y-15264717D02*
X9051411Y-15226622D01*
X9051411Y-15226622D02*
X9060935Y-15207574D01*
X9060935Y-15207574D02*
X9070459Y-15198050D01*
X9070459Y-15198050D02*
X9089506Y-15188527D01*
X9241887Y-15388527D02*
X9241887Y-15255193D01*
X9241887Y-15274241D02*
X9251411Y-15264717D01*
X9251411Y-15264717D02*
X9270459Y-15255193D01*
X9270459Y-15255193D02*
X9299030Y-15255193D01*
X9299030Y-15255193D02*
X9318078Y-15264717D01*
X9318078Y-15264717D02*
X9327602Y-15283765D01*
X9327602Y-15283765D02*
X9327602Y-15388527D01*
X9327602Y-15283765D02*
X9337125Y-15264717D01*
X9337125Y-15264717D02*
X9356173Y-15255193D01*
X9356173Y-15255193D02*
X9384744Y-15255193D01*
X9384744Y-15255193D02*
X9403792Y-15264717D01*
X9403792Y-15264717D02*
X9413316Y-15283765D01*
X9413316Y-15283765D02*
X9413316Y-15388527D01*
X9508554Y-15388527D02*
X9508554Y-15255193D01*
X9508554Y-15274241D02*
X9518078Y-15264717D01*
X9518078Y-15264717D02*
X9537125Y-15255193D01*
X9537125Y-15255193D02*
X9565697Y-15255193D01*
X9565697Y-15255193D02*
X9584744Y-15264717D01*
X9584744Y-15264717D02*
X9594268Y-15283765D01*
X9594268Y-15283765D02*
X9594268Y-15388527D01*
X9594268Y-15283765D02*
X9603792Y-15264717D01*
X9603792Y-15264717D02*
X9622840Y-15255193D01*
X9622840Y-15255193D02*
X9651411Y-15255193D01*
X9651411Y-15255193D02*
X9670459Y-15264717D01*
X9670459Y-15264717D02*
X9679983Y-15283765D01*
X9679983Y-15283765D02*
X9679983Y-15388527D01*
X10070459Y-15179003D02*
X9899030Y-15436146D01*
X10327602Y-15188527D02*
X10346649Y-15188527D01*
X10346649Y-15188527D02*
X10365697Y-15198050D01*
X10365697Y-15198050D02*
X10375221Y-15207574D01*
X10375221Y-15207574D02*
X10384745Y-15226622D01*
X10384745Y-15226622D02*
X10394268Y-15264717D01*
X10394268Y-15264717D02*
X10394268Y-15312336D01*
X10394268Y-15312336D02*
X10384745Y-15350431D01*
X10384745Y-15350431D02*
X10375221Y-15369479D01*
X10375221Y-15369479D02*
X10365697Y-15379003D01*
X10365697Y-15379003D02*
X10346649Y-15388527D01*
X10346649Y-15388527D02*
X10327602Y-15388527D01*
X10327602Y-15388527D02*
X10308554Y-15379003D01*
X10308554Y-15379003D02*
X10299030Y-15369479D01*
X10299030Y-15369479D02*
X10289506Y-15350431D01*
X10289506Y-15350431D02*
X10279983Y-15312336D01*
X10279983Y-15312336D02*
X10279983Y-15264717D01*
X10279983Y-15264717D02*
X10289506Y-15226622D01*
X10289506Y-15226622D02*
X10299030Y-15207574D01*
X10299030Y-15207574D02*
X10308554Y-15198050D01*
X10308554Y-15198050D02*
X10327602Y-15188527D01*
X10479983Y-15369479D02*
X10489506Y-15379003D01*
X10489506Y-15379003D02*
X10479983Y-15388527D01*
X10479983Y-15388527D02*
X10470459Y-15379003D01*
X10470459Y-15379003D02*
X10479983Y-15369479D01*
X10479983Y-15369479D02*
X10479983Y-15388527D01*
X10613316Y-15188527D02*
X10632364Y-15188527D01*
X10632364Y-15188527D02*
X10651411Y-15198050D01*
X10651411Y-15198050D02*
X10660935Y-15207574D01*
X10660935Y-15207574D02*
X10670459Y-15226622D01*
X10670459Y-15226622D02*
X10679983Y-15264717D01*
X10679983Y-15264717D02*
X10679983Y-15312336D01*
X10679983Y-15312336D02*
X10670459Y-15350431D01*
X10670459Y-15350431D02*
X10660935Y-15369479D01*
X10660935Y-15369479D02*
X10651411Y-15379003D01*
X10651411Y-15379003D02*
X10632364Y-15388527D01*
X10632364Y-15388527D02*
X10613316Y-15388527D01*
X10613316Y-15388527D02*
X10594268Y-15379003D01*
X10594268Y-15379003D02*
X10584745Y-15369479D01*
X10584745Y-15369479D02*
X10575221Y-15350431D01*
X10575221Y-15350431D02*
X10565697Y-15312336D01*
X10565697Y-15312336D02*
X10565697Y-15264717D01*
X10565697Y-15264717D02*
X10575221Y-15226622D01*
X10575221Y-15226622D02*
X10584745Y-15207574D01*
X10584745Y-15207574D02*
X10594268Y-15198050D01*
X10594268Y-15198050D02*
X10613316Y-15188527D01*
X10746649Y-15188527D02*
X10870459Y-15188527D01*
X10870459Y-15188527D02*
X10803792Y-15264717D01*
X10803792Y-15264717D02*
X10832364Y-15264717D01*
X10832364Y-15264717D02*
X10851411Y-15274241D01*
X10851411Y-15274241D02*
X10860935Y-15283765D01*
X10860935Y-15283765D02*
X10870459Y-15302812D01*
X10870459Y-15302812D02*
X10870459Y-15350431D01*
X10870459Y-15350431D02*
X10860935Y-15369479D01*
X10860935Y-15369479D02*
X10851411Y-15379003D01*
X10851411Y-15379003D02*
X10832364Y-15388527D01*
X10832364Y-15388527D02*
X10775221Y-15388527D01*
X10775221Y-15388527D02*
X10756173Y-15379003D01*
X10756173Y-15379003D02*
X10746649Y-15369479D01*
X11051411Y-15188527D02*
X10956173Y-15188527D01*
X10956173Y-15188527D02*
X10946649Y-15283765D01*
X10946649Y-15283765D02*
X10956173Y-15274241D01*
X10956173Y-15274241D02*
X10975221Y-15264717D01*
X10975221Y-15264717D02*
X11022840Y-15264717D01*
X11022840Y-15264717D02*
X11041887Y-15274241D01*
X11041887Y-15274241D02*
X11051411Y-15283765D01*
X11051411Y-15283765D02*
X11060935Y-15302812D01*
X11060935Y-15302812D02*
X11060935Y-15350431D01*
X11060935Y-15350431D02*
X11051411Y-15369479D01*
X11051411Y-15369479D02*
X11041887Y-15379003D01*
X11041887Y-15379003D02*
X11022840Y-15388527D01*
X11022840Y-15388527D02*
X10975221Y-15388527D01*
X10975221Y-15388527D02*
X10956173Y-15379003D01*
X10956173Y-15379003D02*
X10946649Y-15369479D01*
X11232364Y-15255193D02*
X11232364Y-15388527D01*
X11184745Y-15179003D02*
X11137126Y-15321860D01*
X11137126Y-15321860D02*
X11260935Y-15321860D01*
X11327602Y-15188527D02*
X11327602Y-15226622D01*
X11403792Y-15188527D02*
X11403792Y-15226622D01*
X11699030Y-15464717D02*
X11689506Y-15455193D01*
X11689506Y-15455193D02*
X11670459Y-15426622D01*
X11670459Y-15426622D02*
X11660935Y-15407574D01*
X11660935Y-15407574D02*
X11651411Y-15379003D01*
X11651411Y-15379003D02*
X11641887Y-15331384D01*
X11641887Y-15331384D02*
X11641887Y-15293289D01*
X11641887Y-15293289D02*
X11651411Y-15245669D01*
X11651411Y-15245669D02*
X11660935Y-15217098D01*
X11660935Y-15217098D02*
X11670459Y-15198050D01*
X11670459Y-15198050D02*
X11689506Y-15169479D01*
X11689506Y-15169479D02*
X11699030Y-15159955D01*
X11765697Y-15207574D02*
X11775221Y-15198050D01*
X11775221Y-15198050D02*
X11794268Y-15188527D01*
X11794268Y-15188527D02*
X11841887Y-15188527D01*
X11841887Y-15188527D02*
X11860935Y-15198050D01*
X11860935Y-15198050D02*
X11870459Y-15207574D01*
X11870459Y-15207574D02*
X11879983Y-15226622D01*
X11879983Y-15226622D02*
X11879983Y-15245669D01*
X11879983Y-15245669D02*
X11870459Y-15274241D01*
X11870459Y-15274241D02*
X11756173Y-15388527D01*
X11756173Y-15388527D02*
X11879983Y-15388527D01*
X12118078Y-15388527D02*
X12118078Y-15188527D01*
X12203792Y-15388527D02*
X12203792Y-15283765D01*
X12203792Y-15283765D02*
X12194268Y-15264717D01*
X12194268Y-15264717D02*
X12175221Y-15255193D01*
X12175221Y-15255193D02*
X12146649Y-15255193D01*
X12146649Y-15255193D02*
X12127602Y-15264717D01*
X12127602Y-15264717D02*
X12118078Y-15274241D01*
X12327602Y-15388527D02*
X12308554Y-15379003D01*
X12308554Y-15379003D02*
X12299030Y-15369479D01*
X12299030Y-15369479D02*
X12289507Y-15350431D01*
X12289507Y-15350431D02*
X12289507Y-15293289D01*
X12289507Y-15293289D02*
X12299030Y-15274241D01*
X12299030Y-15274241D02*
X12308554Y-15264717D01*
X12308554Y-15264717D02*
X12327602Y-15255193D01*
X12327602Y-15255193D02*
X12356173Y-15255193D01*
X12356173Y-15255193D02*
X12375221Y-15264717D01*
X12375221Y-15264717D02*
X12384745Y-15274241D01*
X12384745Y-15274241D02*
X12394268Y-15293289D01*
X12394268Y-15293289D02*
X12394268Y-15350431D01*
X12394268Y-15350431D02*
X12384745Y-15369479D01*
X12384745Y-15369479D02*
X12375221Y-15379003D01*
X12375221Y-15379003D02*
X12356173Y-15388527D01*
X12356173Y-15388527D02*
X12327602Y-15388527D01*
X12508554Y-15388527D02*
X12489507Y-15379003D01*
X12489507Y-15379003D02*
X12479983Y-15359955D01*
X12479983Y-15359955D02*
X12479983Y-15188527D01*
X12660935Y-15379003D02*
X12641888Y-15388527D01*
X12641888Y-15388527D02*
X12603792Y-15388527D01*
X12603792Y-15388527D02*
X12584745Y-15379003D01*
X12584745Y-15379003D02*
X12575221Y-15359955D01*
X12575221Y-15359955D02*
X12575221Y-15283765D01*
X12575221Y-15283765D02*
X12584745Y-15264717D01*
X12584745Y-15264717D02*
X12603792Y-15255193D01*
X12603792Y-15255193D02*
X12641888Y-15255193D01*
X12641888Y-15255193D02*
X12660935Y-15264717D01*
X12660935Y-15264717D02*
X12670459Y-15283765D01*
X12670459Y-15283765D02*
X12670459Y-15302812D01*
X12670459Y-15302812D02*
X12575221Y-15321860D01*
X12746649Y-15379003D02*
X12765697Y-15388527D01*
X12765697Y-15388527D02*
X12803792Y-15388527D01*
X12803792Y-15388527D02*
X12822840Y-15379003D01*
X12822840Y-15379003D02*
X12832364Y-15359955D01*
X12832364Y-15359955D02*
X12832364Y-15350431D01*
X12832364Y-15350431D02*
X12822840Y-15331384D01*
X12822840Y-15331384D02*
X12803792Y-15321860D01*
X12803792Y-15321860D02*
X12775221Y-15321860D01*
X12775221Y-15321860D02*
X12756173Y-15312336D01*
X12756173Y-15312336D02*
X12746649Y-15293289D01*
X12746649Y-15293289D02*
X12746649Y-15283765D01*
X12746649Y-15283765D02*
X12756173Y-15264717D01*
X12756173Y-15264717D02*
X12775221Y-15255193D01*
X12775221Y-15255193D02*
X12803792Y-15255193D01*
X12803792Y-15255193D02*
X12822840Y-15264717D01*
X12899030Y-15464717D02*
X12908554Y-15455193D01*
X12908554Y-15455193D02*
X12927602Y-15426622D01*
X12927602Y-15426622D02*
X12937126Y-15407574D01*
X12937126Y-15407574D02*
X12946649Y-15379003D01*
X12946649Y-15379003D02*
X12956173Y-15331384D01*
X12956173Y-15331384D02*
X12956173Y-15293289D01*
X12956173Y-15293289D02*
X12946649Y-15245669D01*
X12946649Y-15245669D02*
X12937126Y-15217098D01*
X12937126Y-15217098D02*
X12927602Y-15198050D01*
X12927602Y-15198050D02*
X12908554Y-15169479D01*
X12908554Y-15169479D02*
X12899030Y-15159955D01*
X13260935Y-15464717D02*
X13251411Y-15455193D01*
X13251411Y-15455193D02*
X13232364Y-15426622D01*
X13232364Y-15426622D02*
X13222840Y-15407574D01*
X13222840Y-15407574D02*
X13213316Y-15379003D01*
X13213316Y-15379003D02*
X13203792Y-15331384D01*
X13203792Y-15331384D02*
X13203792Y-15293289D01*
X13203792Y-15293289D02*
X13213316Y-15245669D01*
X13213316Y-15245669D02*
X13222840Y-15217098D01*
X13222840Y-15217098D02*
X13232364Y-15198050D01*
X13232364Y-15198050D02*
X13251411Y-15169479D01*
X13251411Y-15169479D02*
X13260935Y-15159955D01*
X13337126Y-15255193D02*
X13337126Y-15388527D01*
X13337126Y-15274241D02*
X13346649Y-15264717D01*
X13346649Y-15264717D02*
X13365697Y-15255193D01*
X13365697Y-15255193D02*
X13394269Y-15255193D01*
X13394269Y-15255193D02*
X13413316Y-15264717D01*
X13413316Y-15264717D02*
X13422840Y-15283765D01*
X13422840Y-15283765D02*
X13422840Y-15388527D01*
X13546649Y-15388527D02*
X13527602Y-15379003D01*
X13527602Y-15379003D02*
X13518078Y-15369479D01*
X13518078Y-15369479D02*
X13508554Y-15350431D01*
X13508554Y-15350431D02*
X13508554Y-15293289D01*
X13508554Y-15293289D02*
X13518078Y-15274241D01*
X13518078Y-15274241D02*
X13527602Y-15264717D01*
X13527602Y-15264717D02*
X13546649Y-15255193D01*
X13546649Y-15255193D02*
X13575221Y-15255193D01*
X13575221Y-15255193D02*
X13594269Y-15264717D01*
X13594269Y-15264717D02*
X13603792Y-15274241D01*
X13603792Y-15274241D02*
X13613316Y-15293289D01*
X13613316Y-15293289D02*
X13613316Y-15350431D01*
X13613316Y-15350431D02*
X13603792Y-15369479D01*
X13603792Y-15369479D02*
X13594269Y-15379003D01*
X13594269Y-15379003D02*
X13575221Y-15388527D01*
X13575221Y-15388527D02*
X13546649Y-15388527D01*
X13670459Y-15255193D02*
X13746649Y-15255193D01*
X13699030Y-15188527D02*
X13699030Y-15359955D01*
X13699030Y-15359955D02*
X13708554Y-15379003D01*
X13708554Y-15379003D02*
X13727602Y-15388527D01*
X13727602Y-15388527D02*
X13746649Y-15388527D01*
X13965697Y-15255193D02*
X13965697Y-15455193D01*
X13965697Y-15264717D02*
X13984745Y-15255193D01*
X13984745Y-15255193D02*
X14022840Y-15255193D01*
X14022840Y-15255193D02*
X14041888Y-15264717D01*
X14041888Y-15264717D02*
X14051411Y-15274241D01*
X14051411Y-15274241D02*
X14060935Y-15293289D01*
X14060935Y-15293289D02*
X14060935Y-15350431D01*
X14060935Y-15350431D02*
X14051411Y-15369479D01*
X14051411Y-15369479D02*
X14041888Y-15379003D01*
X14041888Y-15379003D02*
X14022840Y-15388527D01*
X14022840Y-15388527D02*
X13984745Y-15388527D01*
X13984745Y-15388527D02*
X13965697Y-15379003D01*
X14175221Y-15388527D02*
X14156173Y-15379003D01*
X14156173Y-15379003D02*
X14146650Y-15359955D01*
X14146650Y-15359955D02*
X14146650Y-15188527D01*
X14337126Y-15388527D02*
X14337126Y-15283765D01*
X14337126Y-15283765D02*
X14327602Y-15264717D01*
X14327602Y-15264717D02*
X14308554Y-15255193D01*
X14308554Y-15255193D02*
X14270459Y-15255193D01*
X14270459Y-15255193D02*
X14251411Y-15264717D01*
X14337126Y-15379003D02*
X14318078Y-15388527D01*
X14318078Y-15388527D02*
X14270459Y-15388527D01*
X14270459Y-15388527D02*
X14251411Y-15379003D01*
X14251411Y-15379003D02*
X14241888Y-15359955D01*
X14241888Y-15359955D02*
X14241888Y-15340908D01*
X14241888Y-15340908D02*
X14251411Y-15321860D01*
X14251411Y-15321860D02*
X14270459Y-15312336D01*
X14270459Y-15312336D02*
X14318078Y-15312336D01*
X14318078Y-15312336D02*
X14337126Y-15302812D01*
X14403792Y-15255193D02*
X14479983Y-15255193D01*
X14432364Y-15188527D02*
X14432364Y-15359955D01*
X14432364Y-15359955D02*
X14441888Y-15379003D01*
X14441888Y-15379003D02*
X14460935Y-15388527D01*
X14460935Y-15388527D02*
X14479983Y-15388527D01*
X14622840Y-15379003D02*
X14603792Y-15388527D01*
X14603792Y-15388527D02*
X14565697Y-15388527D01*
X14565697Y-15388527D02*
X14546650Y-15379003D01*
X14546650Y-15379003D02*
X14537126Y-15359955D01*
X14537126Y-15359955D02*
X14537126Y-15283765D01*
X14537126Y-15283765D02*
X14546650Y-15264717D01*
X14546650Y-15264717D02*
X14565697Y-15255193D01*
X14565697Y-15255193D02*
X14603792Y-15255193D01*
X14603792Y-15255193D02*
X14622840Y-15264717D01*
X14622840Y-15264717D02*
X14632364Y-15283765D01*
X14632364Y-15283765D02*
X14632364Y-15302812D01*
X14632364Y-15302812D02*
X14537126Y-15321860D01*
X14803792Y-15388527D02*
X14803792Y-15188527D01*
X14803792Y-15379003D02*
X14784745Y-15388527D01*
X14784745Y-15388527D02*
X14746650Y-15388527D01*
X14746650Y-15388527D02*
X14727602Y-15379003D01*
X14727602Y-15379003D02*
X14718078Y-15369479D01*
X14718078Y-15369479D02*
X14708554Y-15350431D01*
X14708554Y-15350431D02*
X14708554Y-15293289D01*
X14708554Y-15293289D02*
X14718078Y-15274241D01*
X14718078Y-15274241D02*
X14727602Y-15264717D01*
X14727602Y-15264717D02*
X14746650Y-15255193D01*
X14746650Y-15255193D02*
X14784745Y-15255193D01*
X14784745Y-15255193D02*
X14803792Y-15264717D01*
X14879983Y-15464717D02*
X14889507Y-15455193D01*
X14889507Y-15455193D02*
X14908554Y-15426622D01*
X14908554Y-15426622D02*
X14918078Y-15407574D01*
X14918078Y-15407574D02*
X14927602Y-15379003D01*
X14927602Y-15379003D02*
X14937126Y-15331384D01*
X14937126Y-15331384D02*
X14937126Y-15293289D01*
X14937126Y-15293289D02*
X14927602Y-15245669D01*
X14927602Y-15245669D02*
X14918078Y-15217098D01*
X14918078Y-15217098D02*
X14908554Y-15198050D01*
X14908554Y-15198050D02*
X14889507Y-15169479D01*
X14889507Y-15169479D02*
X14879983Y-15159955D01*
D13*
X8137125Y-15560003D02*
G75*
G03*
X8137125Y-15560003I-85090J0D01*
G01*
D11*
X8489506Y-15652527D02*
X8375220Y-15652527D01*
X8432363Y-15652527D02*
X8432363Y-15452527D01*
X8432363Y-15452527D02*
X8413316Y-15481098D01*
X8413316Y-15481098D02*
X8394268Y-15500146D01*
X8394268Y-15500146D02*
X8375220Y-15509669D01*
X8575221Y-15633479D02*
X8584744Y-15643003D01*
X8584744Y-15643003D02*
X8575221Y-15652527D01*
X8575221Y-15652527D02*
X8565697Y-15643003D01*
X8565697Y-15643003D02*
X8575221Y-15633479D01*
X8575221Y-15633479D02*
X8575221Y-15652527D01*
X8651411Y-15452527D02*
X8784744Y-15452527D01*
X8784744Y-15452527D02*
X8699030Y-15652527D01*
X8899030Y-15452527D02*
X8918078Y-15452527D01*
X8918078Y-15452527D02*
X8937125Y-15462050D01*
X8937125Y-15462050D02*
X8946649Y-15471574D01*
X8946649Y-15471574D02*
X8956173Y-15490622D01*
X8956173Y-15490622D02*
X8965697Y-15528717D01*
X8965697Y-15528717D02*
X8965697Y-15576336D01*
X8965697Y-15576336D02*
X8956173Y-15614431D01*
X8956173Y-15614431D02*
X8946649Y-15633479D01*
X8946649Y-15633479D02*
X8937125Y-15643003D01*
X8937125Y-15643003D02*
X8918078Y-15652527D01*
X8918078Y-15652527D02*
X8899030Y-15652527D01*
X8899030Y-15652527D02*
X8879982Y-15643003D01*
X8879982Y-15643003D02*
X8870459Y-15633479D01*
X8870459Y-15633479D02*
X8860935Y-15614431D01*
X8860935Y-15614431D02*
X8851411Y-15576336D01*
X8851411Y-15576336D02*
X8851411Y-15528717D01*
X8851411Y-15528717D02*
X8860935Y-15490622D01*
X8860935Y-15490622D02*
X8870459Y-15471574D01*
X8870459Y-15471574D02*
X8879982Y-15462050D01*
X8879982Y-15462050D02*
X8899030Y-15452527D01*
X9041887Y-15471574D02*
X9051411Y-15462050D01*
X9051411Y-15462050D02*
X9070459Y-15452527D01*
X9070459Y-15452527D02*
X9118078Y-15452527D01*
X9118078Y-15452527D02*
X9137125Y-15462050D01*
X9137125Y-15462050D02*
X9146649Y-15471574D01*
X9146649Y-15471574D02*
X9156173Y-15490622D01*
X9156173Y-15490622D02*
X9156173Y-15509669D01*
X9156173Y-15509669D02*
X9146649Y-15538241D01*
X9146649Y-15538241D02*
X9032363Y-15652527D01*
X9032363Y-15652527D02*
X9156173Y-15652527D01*
X9241887Y-15652527D02*
X9241887Y-15519193D01*
X9241887Y-15538241D02*
X9251411Y-15528717D01*
X9251411Y-15528717D02*
X9270459Y-15519193D01*
X9270459Y-15519193D02*
X9299030Y-15519193D01*
X9299030Y-15519193D02*
X9318078Y-15528717D01*
X9318078Y-15528717D02*
X9327602Y-15547765D01*
X9327602Y-15547765D02*
X9327602Y-15652527D01*
X9327602Y-15547765D02*
X9337125Y-15528717D01*
X9337125Y-15528717D02*
X9356173Y-15519193D01*
X9356173Y-15519193D02*
X9384744Y-15519193D01*
X9384744Y-15519193D02*
X9403792Y-15528717D01*
X9403792Y-15528717D02*
X9413316Y-15547765D01*
X9413316Y-15547765D02*
X9413316Y-15652527D01*
X9508554Y-15652527D02*
X9508554Y-15519193D01*
X9508554Y-15538241D02*
X9518078Y-15528717D01*
X9518078Y-15528717D02*
X9537125Y-15519193D01*
X9537125Y-15519193D02*
X9565697Y-15519193D01*
X9565697Y-15519193D02*
X9584744Y-15528717D01*
X9584744Y-15528717D02*
X9594268Y-15547765D01*
X9594268Y-15547765D02*
X9594268Y-15652527D01*
X9594268Y-15547765D02*
X9603792Y-15528717D01*
X9603792Y-15528717D02*
X9622840Y-15519193D01*
X9622840Y-15519193D02*
X9651411Y-15519193D01*
X9651411Y-15519193D02*
X9670459Y-15528717D01*
X9670459Y-15528717D02*
X9679983Y-15547765D01*
X9679983Y-15547765D02*
X9679983Y-15652527D01*
X10070459Y-15443003D02*
X9899030Y-15700146D01*
X10327602Y-15452527D02*
X10346649Y-15452527D01*
X10346649Y-15452527D02*
X10365697Y-15462050D01*
X10365697Y-15462050D02*
X10375221Y-15471574D01*
X10375221Y-15471574D02*
X10384745Y-15490622D01*
X10384745Y-15490622D02*
X10394268Y-15528717D01*
X10394268Y-15528717D02*
X10394268Y-15576336D01*
X10394268Y-15576336D02*
X10384745Y-15614431D01*
X10384745Y-15614431D02*
X10375221Y-15633479D01*
X10375221Y-15633479D02*
X10365697Y-15643003D01*
X10365697Y-15643003D02*
X10346649Y-15652527D01*
X10346649Y-15652527D02*
X10327602Y-15652527D01*
X10327602Y-15652527D02*
X10308554Y-15643003D01*
X10308554Y-15643003D02*
X10299030Y-15633479D01*
X10299030Y-15633479D02*
X10289506Y-15614431D01*
X10289506Y-15614431D02*
X10279983Y-15576336D01*
X10279983Y-15576336D02*
X10279983Y-15528717D01*
X10279983Y-15528717D02*
X10289506Y-15490622D01*
X10289506Y-15490622D02*
X10299030Y-15471574D01*
X10299030Y-15471574D02*
X10308554Y-15462050D01*
X10308554Y-15462050D02*
X10327602Y-15452527D01*
X10479983Y-15633479D02*
X10489506Y-15643003D01*
X10489506Y-15643003D02*
X10479983Y-15652527D01*
X10479983Y-15652527D02*
X10470459Y-15643003D01*
X10470459Y-15643003D02*
X10479983Y-15633479D01*
X10479983Y-15633479D02*
X10479983Y-15652527D01*
X10613316Y-15452527D02*
X10632364Y-15452527D01*
X10632364Y-15452527D02*
X10651411Y-15462050D01*
X10651411Y-15462050D02*
X10660935Y-15471574D01*
X10660935Y-15471574D02*
X10670459Y-15490622D01*
X10670459Y-15490622D02*
X10679983Y-15528717D01*
X10679983Y-15528717D02*
X10679983Y-15576336D01*
X10679983Y-15576336D02*
X10670459Y-15614431D01*
X10670459Y-15614431D02*
X10660935Y-15633479D01*
X10660935Y-15633479D02*
X10651411Y-15643003D01*
X10651411Y-15643003D02*
X10632364Y-15652527D01*
X10632364Y-15652527D02*
X10613316Y-15652527D01*
X10613316Y-15652527D02*
X10594268Y-15643003D01*
X10594268Y-15643003D02*
X10584745Y-15633479D01*
X10584745Y-15633479D02*
X10575221Y-15614431D01*
X10575221Y-15614431D02*
X10565697Y-15576336D01*
X10565697Y-15576336D02*
X10565697Y-15528717D01*
X10565697Y-15528717D02*
X10575221Y-15490622D01*
X10575221Y-15490622D02*
X10584745Y-15471574D01*
X10584745Y-15471574D02*
X10594268Y-15462050D01*
X10594268Y-15462050D02*
X10613316Y-15452527D01*
X10851411Y-15452527D02*
X10813316Y-15452527D01*
X10813316Y-15452527D02*
X10794268Y-15462050D01*
X10794268Y-15462050D02*
X10784745Y-15471574D01*
X10784745Y-15471574D02*
X10765697Y-15500146D01*
X10765697Y-15500146D02*
X10756173Y-15538241D01*
X10756173Y-15538241D02*
X10756173Y-15614431D01*
X10756173Y-15614431D02*
X10765697Y-15633479D01*
X10765697Y-15633479D02*
X10775221Y-15643003D01*
X10775221Y-15643003D02*
X10794268Y-15652527D01*
X10794268Y-15652527D02*
X10832364Y-15652527D01*
X10832364Y-15652527D02*
X10851411Y-15643003D01*
X10851411Y-15643003D02*
X10860935Y-15633479D01*
X10860935Y-15633479D02*
X10870459Y-15614431D01*
X10870459Y-15614431D02*
X10870459Y-15566812D01*
X10870459Y-15566812D02*
X10860935Y-15547765D01*
X10860935Y-15547765D02*
X10851411Y-15538241D01*
X10851411Y-15538241D02*
X10832364Y-15528717D01*
X10832364Y-15528717D02*
X10794268Y-15528717D01*
X10794268Y-15528717D02*
X10775221Y-15538241D01*
X10775221Y-15538241D02*
X10765697Y-15547765D01*
X10765697Y-15547765D02*
X10756173Y-15566812D01*
X10937126Y-15452527D02*
X11070459Y-15452527D01*
X11070459Y-15452527D02*
X10984745Y-15652527D01*
X11184745Y-15452527D02*
X11203792Y-15452527D01*
X11203792Y-15452527D02*
X11222840Y-15462050D01*
X11222840Y-15462050D02*
X11232364Y-15471574D01*
X11232364Y-15471574D02*
X11241887Y-15490622D01*
X11241887Y-15490622D02*
X11251411Y-15528717D01*
X11251411Y-15528717D02*
X11251411Y-15576336D01*
X11251411Y-15576336D02*
X11241887Y-15614431D01*
X11241887Y-15614431D02*
X11232364Y-15633479D01*
X11232364Y-15633479D02*
X11222840Y-15643003D01*
X11222840Y-15643003D02*
X11203792Y-15652527D01*
X11203792Y-15652527D02*
X11184745Y-15652527D01*
X11184745Y-15652527D02*
X11165697Y-15643003D01*
X11165697Y-15643003D02*
X11156173Y-15633479D01*
X11156173Y-15633479D02*
X11146649Y-15614431D01*
X11146649Y-15614431D02*
X11137126Y-15576336D01*
X11137126Y-15576336D02*
X11137126Y-15528717D01*
X11137126Y-15528717D02*
X11146649Y-15490622D01*
X11146649Y-15490622D02*
X11156173Y-15471574D01*
X11156173Y-15471574D02*
X11165697Y-15462050D01*
X11165697Y-15462050D02*
X11184745Y-15452527D01*
X11327602Y-15452527D02*
X11327602Y-15490622D01*
X11403792Y-15452527D02*
X11403792Y-15490622D01*
X11699030Y-15728717D02*
X11689506Y-15719193D01*
X11689506Y-15719193D02*
X11670459Y-15690622D01*
X11670459Y-15690622D02*
X11660935Y-15671574D01*
X11660935Y-15671574D02*
X11651411Y-15643003D01*
X11651411Y-15643003D02*
X11641887Y-15595384D01*
X11641887Y-15595384D02*
X11641887Y-15557289D01*
X11641887Y-15557289D02*
X11651411Y-15509669D01*
X11651411Y-15509669D02*
X11660935Y-15481098D01*
X11660935Y-15481098D02*
X11670459Y-15462050D01*
X11670459Y-15462050D02*
X11689506Y-15433479D01*
X11689506Y-15433479D02*
X11699030Y-15423955D01*
X11756173Y-15452527D02*
X11879983Y-15452527D01*
X11879983Y-15452527D02*
X11813316Y-15528717D01*
X11813316Y-15528717D02*
X11841887Y-15528717D01*
X11841887Y-15528717D02*
X11860935Y-15538241D01*
X11860935Y-15538241D02*
X11870459Y-15547765D01*
X11870459Y-15547765D02*
X11879983Y-15566812D01*
X11879983Y-15566812D02*
X11879983Y-15614431D01*
X11879983Y-15614431D02*
X11870459Y-15633479D01*
X11870459Y-15633479D02*
X11860935Y-15643003D01*
X11860935Y-15643003D02*
X11841887Y-15652527D01*
X11841887Y-15652527D02*
X11784745Y-15652527D01*
X11784745Y-15652527D02*
X11765697Y-15643003D01*
X11765697Y-15643003D02*
X11756173Y-15633479D01*
X12051411Y-15452527D02*
X12013316Y-15452527D01*
X12013316Y-15452527D02*
X11994268Y-15462050D01*
X11994268Y-15462050D02*
X11984745Y-15471574D01*
X11984745Y-15471574D02*
X11965697Y-15500146D01*
X11965697Y-15500146D02*
X11956173Y-15538241D01*
X11956173Y-15538241D02*
X11956173Y-15614431D01*
X11956173Y-15614431D02*
X11965697Y-15633479D01*
X11965697Y-15633479D02*
X11975221Y-15643003D01*
X11975221Y-15643003D02*
X11994268Y-15652527D01*
X11994268Y-15652527D02*
X12032364Y-15652527D01*
X12032364Y-15652527D02*
X12051411Y-15643003D01*
X12051411Y-15643003D02*
X12060935Y-15633479D01*
X12060935Y-15633479D02*
X12070459Y-15614431D01*
X12070459Y-15614431D02*
X12070459Y-15566812D01*
X12070459Y-15566812D02*
X12060935Y-15547765D01*
X12060935Y-15547765D02*
X12051411Y-15538241D01*
X12051411Y-15538241D02*
X12032364Y-15528717D01*
X12032364Y-15528717D02*
X11994268Y-15528717D01*
X11994268Y-15528717D02*
X11975221Y-15538241D01*
X11975221Y-15538241D02*
X11965697Y-15547765D01*
X11965697Y-15547765D02*
X11956173Y-15566812D01*
X12308554Y-15652527D02*
X12308554Y-15452527D01*
X12394268Y-15652527D02*
X12394268Y-15547765D01*
X12394268Y-15547765D02*
X12384745Y-15528717D01*
X12384745Y-15528717D02*
X12365697Y-15519193D01*
X12365697Y-15519193D02*
X12337126Y-15519193D01*
X12337126Y-15519193D02*
X12318078Y-15528717D01*
X12318078Y-15528717D02*
X12308554Y-15538241D01*
X12518078Y-15652527D02*
X12499030Y-15643003D01*
X12499030Y-15643003D02*
X12489507Y-15633479D01*
X12489507Y-15633479D02*
X12479983Y-15614431D01*
X12479983Y-15614431D02*
X12479983Y-15557289D01*
X12479983Y-15557289D02*
X12489507Y-15538241D01*
X12489507Y-15538241D02*
X12499030Y-15528717D01*
X12499030Y-15528717D02*
X12518078Y-15519193D01*
X12518078Y-15519193D02*
X12546649Y-15519193D01*
X12546649Y-15519193D02*
X12565697Y-15528717D01*
X12565697Y-15528717D02*
X12575221Y-15538241D01*
X12575221Y-15538241D02*
X12584745Y-15557289D01*
X12584745Y-15557289D02*
X12584745Y-15614431D01*
X12584745Y-15614431D02*
X12575221Y-15633479D01*
X12575221Y-15633479D02*
X12565697Y-15643003D01*
X12565697Y-15643003D02*
X12546649Y-15652527D01*
X12546649Y-15652527D02*
X12518078Y-15652527D01*
X12699030Y-15652527D02*
X12679983Y-15643003D01*
X12679983Y-15643003D02*
X12670459Y-15623955D01*
X12670459Y-15623955D02*
X12670459Y-15452527D01*
X12851411Y-15643003D02*
X12832364Y-15652527D01*
X12832364Y-15652527D02*
X12794268Y-15652527D01*
X12794268Y-15652527D02*
X12775221Y-15643003D01*
X12775221Y-15643003D02*
X12765697Y-15623955D01*
X12765697Y-15623955D02*
X12765697Y-15547765D01*
X12765697Y-15547765D02*
X12775221Y-15528717D01*
X12775221Y-15528717D02*
X12794268Y-15519193D01*
X12794268Y-15519193D02*
X12832364Y-15519193D01*
X12832364Y-15519193D02*
X12851411Y-15528717D01*
X12851411Y-15528717D02*
X12860935Y-15547765D01*
X12860935Y-15547765D02*
X12860935Y-15566812D01*
X12860935Y-15566812D02*
X12765697Y-15585860D01*
X12937126Y-15643003D02*
X12956173Y-15652527D01*
X12956173Y-15652527D02*
X12994268Y-15652527D01*
X12994268Y-15652527D02*
X13013316Y-15643003D01*
X13013316Y-15643003D02*
X13022840Y-15623955D01*
X13022840Y-15623955D02*
X13022840Y-15614431D01*
X13022840Y-15614431D02*
X13013316Y-15595384D01*
X13013316Y-15595384D02*
X12994268Y-15585860D01*
X12994268Y-15585860D02*
X12965697Y-15585860D01*
X12965697Y-15585860D02*
X12946649Y-15576336D01*
X12946649Y-15576336D02*
X12937126Y-15557289D01*
X12937126Y-15557289D02*
X12937126Y-15547765D01*
X12937126Y-15547765D02*
X12946649Y-15528717D01*
X12946649Y-15528717D02*
X12965697Y-15519193D01*
X12965697Y-15519193D02*
X12994268Y-15519193D01*
X12994268Y-15519193D02*
X13013316Y-15528717D01*
X13089507Y-15728717D02*
X13099030Y-15719193D01*
X13099030Y-15719193D02*
X13118078Y-15690622D01*
X13118078Y-15690622D02*
X13127602Y-15671574D01*
X13127602Y-15671574D02*
X13137126Y-15643003D01*
X13137126Y-15643003D02*
X13146649Y-15595384D01*
X13146649Y-15595384D02*
X13146649Y-15557289D01*
X13146649Y-15557289D02*
X13137126Y-15509669D01*
X13137126Y-15509669D02*
X13127602Y-15481098D01*
X13127602Y-15481098D02*
X13118078Y-15462050D01*
X13118078Y-15462050D02*
X13099030Y-15433479D01*
X13099030Y-15433479D02*
X13089507Y-15423955D01*
X13451411Y-15728717D02*
X13441888Y-15719193D01*
X13441888Y-15719193D02*
X13422840Y-15690622D01*
X13422840Y-15690622D02*
X13413316Y-15671574D01*
X13413316Y-15671574D02*
X13403792Y-15643003D01*
X13403792Y-15643003D02*
X13394269Y-15595384D01*
X13394269Y-15595384D02*
X13394269Y-15557289D01*
X13394269Y-15557289D02*
X13403792Y-15509669D01*
X13403792Y-15509669D02*
X13413316Y-15481098D01*
X13413316Y-15481098D02*
X13422840Y-15462050D01*
X13422840Y-15462050D02*
X13441888Y-15433479D01*
X13441888Y-15433479D02*
X13451411Y-15423955D01*
X13527602Y-15519193D02*
X13527602Y-15652527D01*
X13527602Y-15538241D02*
X13537126Y-15528717D01*
X13537126Y-15528717D02*
X13556173Y-15519193D01*
X13556173Y-15519193D02*
X13584745Y-15519193D01*
X13584745Y-15519193D02*
X13603792Y-15528717D01*
X13603792Y-15528717D02*
X13613316Y-15547765D01*
X13613316Y-15547765D02*
X13613316Y-15652527D01*
X13737126Y-15652527D02*
X13718078Y-15643003D01*
X13718078Y-15643003D02*
X13708554Y-15633479D01*
X13708554Y-15633479D02*
X13699030Y-15614431D01*
X13699030Y-15614431D02*
X13699030Y-15557289D01*
X13699030Y-15557289D02*
X13708554Y-15538241D01*
X13708554Y-15538241D02*
X13718078Y-15528717D01*
X13718078Y-15528717D02*
X13737126Y-15519193D01*
X13737126Y-15519193D02*
X13765697Y-15519193D01*
X13765697Y-15519193D02*
X13784745Y-15528717D01*
X13784745Y-15528717D02*
X13794269Y-15538241D01*
X13794269Y-15538241D02*
X13803792Y-15557289D01*
X13803792Y-15557289D02*
X13803792Y-15614431D01*
X13803792Y-15614431D02*
X13794269Y-15633479D01*
X13794269Y-15633479D02*
X13784745Y-15643003D01*
X13784745Y-15643003D02*
X13765697Y-15652527D01*
X13765697Y-15652527D02*
X13737126Y-15652527D01*
X13860935Y-15519193D02*
X13937126Y-15519193D01*
X13889507Y-15452527D02*
X13889507Y-15623955D01*
X13889507Y-15623955D02*
X13899030Y-15643003D01*
X13899030Y-15643003D02*
X13918078Y-15652527D01*
X13918078Y-15652527D02*
X13937126Y-15652527D01*
X14156173Y-15519193D02*
X14156173Y-15719193D01*
X14156173Y-15528717D02*
X14175221Y-15519193D01*
X14175221Y-15519193D02*
X14213316Y-15519193D01*
X14213316Y-15519193D02*
X14232364Y-15528717D01*
X14232364Y-15528717D02*
X14241888Y-15538241D01*
X14241888Y-15538241D02*
X14251411Y-15557289D01*
X14251411Y-15557289D02*
X14251411Y-15614431D01*
X14251411Y-15614431D02*
X14241888Y-15633479D01*
X14241888Y-15633479D02*
X14232364Y-15643003D01*
X14232364Y-15643003D02*
X14213316Y-15652527D01*
X14213316Y-15652527D02*
X14175221Y-15652527D01*
X14175221Y-15652527D02*
X14156173Y-15643003D01*
X14365697Y-15652527D02*
X14346650Y-15643003D01*
X14346650Y-15643003D02*
X14337126Y-15623955D01*
X14337126Y-15623955D02*
X14337126Y-15452527D01*
X14527602Y-15652527D02*
X14527602Y-15547765D01*
X14527602Y-15547765D02*
X14518078Y-15528717D01*
X14518078Y-15528717D02*
X14499031Y-15519193D01*
X14499031Y-15519193D02*
X14460935Y-15519193D01*
X14460935Y-15519193D02*
X14441888Y-15528717D01*
X14527602Y-15643003D02*
X14508554Y-15652527D01*
X14508554Y-15652527D02*
X14460935Y-15652527D01*
X14460935Y-15652527D02*
X14441888Y-15643003D01*
X14441888Y-15643003D02*
X14432364Y-15623955D01*
X14432364Y-15623955D02*
X14432364Y-15604908D01*
X14432364Y-15604908D02*
X14441888Y-15585860D01*
X14441888Y-15585860D02*
X14460935Y-15576336D01*
X14460935Y-15576336D02*
X14508554Y-15576336D01*
X14508554Y-15576336D02*
X14527602Y-15566812D01*
X14594269Y-15519193D02*
X14670459Y-15519193D01*
X14622840Y-15452527D02*
X14622840Y-15623955D01*
X14622840Y-15623955D02*
X14632364Y-15643003D01*
X14632364Y-15643003D02*
X14651411Y-15652527D01*
X14651411Y-15652527D02*
X14670459Y-15652527D01*
X14813316Y-15643003D02*
X14794269Y-15652527D01*
X14794269Y-15652527D02*
X14756173Y-15652527D01*
X14756173Y-15652527D02*
X14737126Y-15643003D01*
X14737126Y-15643003D02*
X14727602Y-15623955D01*
X14727602Y-15623955D02*
X14727602Y-15547765D01*
X14727602Y-15547765D02*
X14737126Y-15528717D01*
X14737126Y-15528717D02*
X14756173Y-15519193D01*
X14756173Y-15519193D02*
X14794269Y-15519193D01*
X14794269Y-15519193D02*
X14813316Y-15528717D01*
X14813316Y-15528717D02*
X14822840Y-15547765D01*
X14822840Y-15547765D02*
X14822840Y-15566812D01*
X14822840Y-15566812D02*
X14727602Y-15585860D01*
X14994269Y-15652527D02*
X14994269Y-15452527D01*
X14994269Y-15643003D02*
X14975221Y-15652527D01*
X14975221Y-15652527D02*
X14937126Y-15652527D01*
X14937126Y-15652527D02*
X14918078Y-15643003D01*
X14918078Y-15643003D02*
X14908554Y-15633479D01*
X14908554Y-15633479D02*
X14899031Y-15614431D01*
X14899031Y-15614431D02*
X14899031Y-15557289D01*
X14899031Y-15557289D02*
X14908554Y-15538241D01*
X14908554Y-15538241D02*
X14918078Y-15528717D01*
X14918078Y-15528717D02*
X14937126Y-15519193D01*
X14937126Y-15519193D02*
X14975221Y-15519193D01*
X14975221Y-15519193D02*
X14994269Y-15528717D01*
X15070459Y-15728717D02*
X15079983Y-15719193D01*
X15079983Y-15719193D02*
X15099031Y-15690622D01*
X15099031Y-15690622D02*
X15108554Y-15671574D01*
X15108554Y-15671574D02*
X15118078Y-15643003D01*
X15118078Y-15643003D02*
X15127602Y-15595384D01*
X15127602Y-15595384D02*
X15127602Y-15557289D01*
X15127602Y-15557289D02*
X15118078Y-15509669D01*
X15118078Y-15509669D02*
X15108554Y-15481098D01*
X15108554Y-15481098D02*
X15099031Y-15462050D01*
X15099031Y-15462050D02*
X15079983Y-15433479D01*
X15079983Y-15433479D02*
X15070459Y-15423955D01*
X8037125Y-15750183D02*
X8037125Y-15950183D01*
X7937125Y-15850183D02*
X8137125Y-15850183D01*
X8365697Y-15742707D02*
X8489506Y-15742707D01*
X8489506Y-15742707D02*
X8422840Y-15818897D01*
X8422840Y-15818897D02*
X8451411Y-15818897D01*
X8451411Y-15818897D02*
X8470459Y-15828421D01*
X8470459Y-15828421D02*
X8479982Y-15837945D01*
X8479982Y-15837945D02*
X8489506Y-15856992D01*
X8489506Y-15856992D02*
X8489506Y-15904611D01*
X8489506Y-15904611D02*
X8479982Y-15923659D01*
X8479982Y-15923659D02*
X8470459Y-15933183D01*
X8470459Y-15933183D02*
X8451411Y-15942707D01*
X8451411Y-15942707D02*
X8394268Y-15942707D01*
X8394268Y-15942707D02*
X8375220Y-15933183D01*
X8375220Y-15933183D02*
X8365697Y-15923659D01*
X8575221Y-15923659D02*
X8584744Y-15933183D01*
X8584744Y-15933183D02*
X8575221Y-15942707D01*
X8575221Y-15942707D02*
X8565697Y-15933183D01*
X8565697Y-15933183D02*
X8575221Y-15923659D01*
X8575221Y-15923659D02*
X8575221Y-15942707D01*
X8708554Y-15742707D02*
X8727602Y-15742707D01*
X8727602Y-15742707D02*
X8746649Y-15752230D01*
X8746649Y-15752230D02*
X8756173Y-15761754D01*
X8756173Y-15761754D02*
X8765697Y-15780802D01*
X8765697Y-15780802D02*
X8775221Y-15818897D01*
X8775221Y-15818897D02*
X8775221Y-15866516D01*
X8775221Y-15866516D02*
X8765697Y-15904611D01*
X8765697Y-15904611D02*
X8756173Y-15923659D01*
X8756173Y-15923659D02*
X8746649Y-15933183D01*
X8746649Y-15933183D02*
X8727602Y-15942707D01*
X8727602Y-15942707D02*
X8708554Y-15942707D01*
X8708554Y-15942707D02*
X8689506Y-15933183D01*
X8689506Y-15933183D02*
X8679982Y-15923659D01*
X8679982Y-15923659D02*
X8670459Y-15904611D01*
X8670459Y-15904611D02*
X8660935Y-15866516D01*
X8660935Y-15866516D02*
X8660935Y-15818897D01*
X8660935Y-15818897D02*
X8670459Y-15780802D01*
X8670459Y-15780802D02*
X8679982Y-15761754D01*
X8679982Y-15761754D02*
X8689506Y-15752230D01*
X8689506Y-15752230D02*
X8708554Y-15742707D01*
X8899030Y-15742707D02*
X8918078Y-15742707D01*
X8918078Y-15742707D02*
X8937125Y-15752230D01*
X8937125Y-15752230D02*
X8946649Y-15761754D01*
X8946649Y-15761754D02*
X8956173Y-15780802D01*
X8956173Y-15780802D02*
X8965697Y-15818897D01*
X8965697Y-15818897D02*
X8965697Y-15866516D01*
X8965697Y-15866516D02*
X8956173Y-15904611D01*
X8956173Y-15904611D02*
X8946649Y-15923659D01*
X8946649Y-15923659D02*
X8937125Y-15933183D01*
X8937125Y-15933183D02*
X8918078Y-15942707D01*
X8918078Y-15942707D02*
X8899030Y-15942707D01*
X8899030Y-15942707D02*
X8879982Y-15933183D01*
X8879982Y-15933183D02*
X8870459Y-15923659D01*
X8870459Y-15923659D02*
X8860935Y-15904611D01*
X8860935Y-15904611D02*
X8851411Y-15866516D01*
X8851411Y-15866516D02*
X8851411Y-15818897D01*
X8851411Y-15818897D02*
X8860935Y-15780802D01*
X8860935Y-15780802D02*
X8870459Y-15761754D01*
X8870459Y-15761754D02*
X8879982Y-15752230D01*
X8879982Y-15752230D02*
X8899030Y-15742707D01*
X9089506Y-15742707D02*
X9108554Y-15742707D01*
X9108554Y-15742707D02*
X9127602Y-15752230D01*
X9127602Y-15752230D02*
X9137125Y-15761754D01*
X9137125Y-15761754D02*
X9146649Y-15780802D01*
X9146649Y-15780802D02*
X9156173Y-15818897D01*
X9156173Y-15818897D02*
X9156173Y-15866516D01*
X9156173Y-15866516D02*
X9146649Y-15904611D01*
X9146649Y-15904611D02*
X9137125Y-15923659D01*
X9137125Y-15923659D02*
X9127602Y-15933183D01*
X9127602Y-15933183D02*
X9108554Y-15942707D01*
X9108554Y-15942707D02*
X9089506Y-15942707D01*
X9089506Y-15942707D02*
X9070459Y-15933183D01*
X9070459Y-15933183D02*
X9060935Y-15923659D01*
X9060935Y-15923659D02*
X9051411Y-15904611D01*
X9051411Y-15904611D02*
X9041887Y-15866516D01*
X9041887Y-15866516D02*
X9041887Y-15818897D01*
X9041887Y-15818897D02*
X9051411Y-15780802D01*
X9051411Y-15780802D02*
X9060935Y-15761754D01*
X9060935Y-15761754D02*
X9070459Y-15752230D01*
X9070459Y-15752230D02*
X9089506Y-15742707D01*
X9241887Y-15942707D02*
X9241887Y-15809373D01*
X9241887Y-15828421D02*
X9251411Y-15818897D01*
X9251411Y-15818897D02*
X9270459Y-15809373D01*
X9270459Y-15809373D02*
X9299030Y-15809373D01*
X9299030Y-15809373D02*
X9318078Y-15818897D01*
X9318078Y-15818897D02*
X9327602Y-15837945D01*
X9327602Y-15837945D02*
X9327602Y-15942707D01*
X9327602Y-15837945D02*
X9337125Y-15818897D01*
X9337125Y-15818897D02*
X9356173Y-15809373D01*
X9356173Y-15809373D02*
X9384744Y-15809373D01*
X9384744Y-15809373D02*
X9403792Y-15818897D01*
X9403792Y-15818897D02*
X9413316Y-15837945D01*
X9413316Y-15837945D02*
X9413316Y-15942707D01*
X9508554Y-15942707D02*
X9508554Y-15809373D01*
X9508554Y-15828421D02*
X9518078Y-15818897D01*
X9518078Y-15818897D02*
X9537125Y-15809373D01*
X9537125Y-15809373D02*
X9565697Y-15809373D01*
X9565697Y-15809373D02*
X9584744Y-15818897D01*
X9584744Y-15818897D02*
X9594268Y-15837945D01*
X9594268Y-15837945D02*
X9594268Y-15942707D01*
X9594268Y-15837945D02*
X9603792Y-15818897D01*
X9603792Y-15818897D02*
X9622840Y-15809373D01*
X9622840Y-15809373D02*
X9651411Y-15809373D01*
X9651411Y-15809373D02*
X9670459Y-15818897D01*
X9670459Y-15818897D02*
X9679983Y-15837945D01*
X9679983Y-15837945D02*
X9679983Y-15942707D01*
X10070459Y-15733183D02*
X9899030Y-15990326D01*
X10327602Y-15742707D02*
X10346649Y-15742707D01*
X10346649Y-15742707D02*
X10365697Y-15752230D01*
X10365697Y-15752230D02*
X10375221Y-15761754D01*
X10375221Y-15761754D02*
X10384745Y-15780802D01*
X10384745Y-15780802D02*
X10394268Y-15818897D01*
X10394268Y-15818897D02*
X10394268Y-15866516D01*
X10394268Y-15866516D02*
X10384745Y-15904611D01*
X10384745Y-15904611D02*
X10375221Y-15923659D01*
X10375221Y-15923659D02*
X10365697Y-15933183D01*
X10365697Y-15933183D02*
X10346649Y-15942707D01*
X10346649Y-15942707D02*
X10327602Y-15942707D01*
X10327602Y-15942707D02*
X10308554Y-15933183D01*
X10308554Y-15933183D02*
X10299030Y-15923659D01*
X10299030Y-15923659D02*
X10289506Y-15904611D01*
X10289506Y-15904611D02*
X10279983Y-15866516D01*
X10279983Y-15866516D02*
X10279983Y-15818897D01*
X10279983Y-15818897D02*
X10289506Y-15780802D01*
X10289506Y-15780802D02*
X10299030Y-15761754D01*
X10299030Y-15761754D02*
X10308554Y-15752230D01*
X10308554Y-15752230D02*
X10327602Y-15742707D01*
X10479983Y-15923659D02*
X10489506Y-15933183D01*
X10489506Y-15933183D02*
X10479983Y-15942707D01*
X10479983Y-15942707D02*
X10470459Y-15933183D01*
X10470459Y-15933183D02*
X10479983Y-15923659D01*
X10479983Y-15923659D02*
X10479983Y-15942707D01*
X10679983Y-15942707D02*
X10565697Y-15942707D01*
X10622840Y-15942707D02*
X10622840Y-15742707D01*
X10622840Y-15742707D02*
X10603792Y-15771278D01*
X10603792Y-15771278D02*
X10584745Y-15790326D01*
X10584745Y-15790326D02*
X10565697Y-15799849D01*
X10870459Y-15942707D02*
X10756173Y-15942707D01*
X10813316Y-15942707D02*
X10813316Y-15742707D01*
X10813316Y-15742707D02*
X10794268Y-15771278D01*
X10794268Y-15771278D02*
X10775221Y-15790326D01*
X10775221Y-15790326D02*
X10756173Y-15799849D01*
X10984745Y-15828421D02*
X10965697Y-15818897D01*
X10965697Y-15818897D02*
X10956173Y-15809373D01*
X10956173Y-15809373D02*
X10946649Y-15790326D01*
X10946649Y-15790326D02*
X10946649Y-15780802D01*
X10946649Y-15780802D02*
X10956173Y-15761754D01*
X10956173Y-15761754D02*
X10965697Y-15752230D01*
X10965697Y-15752230D02*
X10984745Y-15742707D01*
X10984745Y-15742707D02*
X11022840Y-15742707D01*
X11022840Y-15742707D02*
X11041887Y-15752230D01*
X11041887Y-15752230D02*
X11051411Y-15761754D01*
X11051411Y-15761754D02*
X11060935Y-15780802D01*
X11060935Y-15780802D02*
X11060935Y-15790326D01*
X11060935Y-15790326D02*
X11051411Y-15809373D01*
X11051411Y-15809373D02*
X11041887Y-15818897D01*
X11041887Y-15818897D02*
X11022840Y-15828421D01*
X11022840Y-15828421D02*
X10984745Y-15828421D01*
X10984745Y-15828421D02*
X10965697Y-15837945D01*
X10965697Y-15837945D02*
X10956173Y-15847469D01*
X10956173Y-15847469D02*
X10946649Y-15866516D01*
X10946649Y-15866516D02*
X10946649Y-15904611D01*
X10946649Y-15904611D02*
X10956173Y-15923659D01*
X10956173Y-15923659D02*
X10965697Y-15933183D01*
X10965697Y-15933183D02*
X10984745Y-15942707D01*
X10984745Y-15942707D02*
X11022840Y-15942707D01*
X11022840Y-15942707D02*
X11041887Y-15933183D01*
X11041887Y-15933183D02*
X11051411Y-15923659D01*
X11051411Y-15923659D02*
X11060935Y-15904611D01*
X11060935Y-15904611D02*
X11060935Y-15866516D01*
X11060935Y-15866516D02*
X11051411Y-15847469D01*
X11051411Y-15847469D02*
X11041887Y-15837945D01*
X11041887Y-15837945D02*
X11022840Y-15828421D01*
X11251411Y-15942707D02*
X11137126Y-15942707D01*
X11194268Y-15942707D02*
X11194268Y-15742707D01*
X11194268Y-15742707D02*
X11175221Y-15771278D01*
X11175221Y-15771278D02*
X11156173Y-15790326D01*
X11156173Y-15790326D02*
X11137126Y-15799849D01*
X11327602Y-15742707D02*
X11327602Y-15780802D01*
X11403792Y-15742707D02*
X11403792Y-15780802D01*
X11699030Y-16018897D02*
X11689506Y-16009373D01*
X11689506Y-16009373D02*
X11670459Y-15980802D01*
X11670459Y-15980802D02*
X11660935Y-15961754D01*
X11660935Y-15961754D02*
X11651411Y-15933183D01*
X11651411Y-15933183D02*
X11641887Y-15885564D01*
X11641887Y-15885564D02*
X11641887Y-15847469D01*
X11641887Y-15847469D02*
X11651411Y-15799849D01*
X11651411Y-15799849D02*
X11660935Y-15771278D01*
X11660935Y-15771278D02*
X11670459Y-15752230D01*
X11670459Y-15752230D02*
X11689506Y-15723659D01*
X11689506Y-15723659D02*
X11699030Y-15714135D01*
X11756173Y-15742707D02*
X11889506Y-15742707D01*
X11889506Y-15742707D02*
X11803792Y-15942707D01*
X11956173Y-15761754D02*
X11965697Y-15752230D01*
X11965697Y-15752230D02*
X11984745Y-15742707D01*
X11984745Y-15742707D02*
X12032364Y-15742707D01*
X12032364Y-15742707D02*
X12051411Y-15752230D01*
X12051411Y-15752230D02*
X12060935Y-15761754D01*
X12060935Y-15761754D02*
X12070459Y-15780802D01*
X12070459Y-15780802D02*
X12070459Y-15799849D01*
X12070459Y-15799849D02*
X12060935Y-15828421D01*
X12060935Y-15828421D02*
X11946649Y-15942707D01*
X11946649Y-15942707D02*
X12070459Y-15942707D01*
X12308554Y-15942707D02*
X12308554Y-15742707D01*
X12394268Y-15942707D02*
X12394268Y-15837945D01*
X12394268Y-15837945D02*
X12384745Y-15818897D01*
X12384745Y-15818897D02*
X12365697Y-15809373D01*
X12365697Y-15809373D02*
X12337126Y-15809373D01*
X12337126Y-15809373D02*
X12318078Y-15818897D01*
X12318078Y-15818897D02*
X12308554Y-15828421D01*
X12518078Y-15942707D02*
X12499030Y-15933183D01*
X12499030Y-15933183D02*
X12489507Y-15923659D01*
X12489507Y-15923659D02*
X12479983Y-15904611D01*
X12479983Y-15904611D02*
X12479983Y-15847469D01*
X12479983Y-15847469D02*
X12489507Y-15828421D01*
X12489507Y-15828421D02*
X12499030Y-15818897D01*
X12499030Y-15818897D02*
X12518078Y-15809373D01*
X12518078Y-15809373D02*
X12546649Y-15809373D01*
X12546649Y-15809373D02*
X12565697Y-15818897D01*
X12565697Y-15818897D02*
X12575221Y-15828421D01*
X12575221Y-15828421D02*
X12584745Y-15847469D01*
X12584745Y-15847469D02*
X12584745Y-15904611D01*
X12584745Y-15904611D02*
X12575221Y-15923659D01*
X12575221Y-15923659D02*
X12565697Y-15933183D01*
X12565697Y-15933183D02*
X12546649Y-15942707D01*
X12546649Y-15942707D02*
X12518078Y-15942707D01*
X12699030Y-15942707D02*
X12679983Y-15933183D01*
X12679983Y-15933183D02*
X12670459Y-15914135D01*
X12670459Y-15914135D02*
X12670459Y-15742707D01*
X12851411Y-15933183D02*
X12832364Y-15942707D01*
X12832364Y-15942707D02*
X12794268Y-15942707D01*
X12794268Y-15942707D02*
X12775221Y-15933183D01*
X12775221Y-15933183D02*
X12765697Y-15914135D01*
X12765697Y-15914135D02*
X12765697Y-15837945D01*
X12765697Y-15837945D02*
X12775221Y-15818897D01*
X12775221Y-15818897D02*
X12794268Y-15809373D01*
X12794268Y-15809373D02*
X12832364Y-15809373D01*
X12832364Y-15809373D02*
X12851411Y-15818897D01*
X12851411Y-15818897D02*
X12860935Y-15837945D01*
X12860935Y-15837945D02*
X12860935Y-15856992D01*
X12860935Y-15856992D02*
X12765697Y-15876040D01*
X12937126Y-15933183D02*
X12956173Y-15942707D01*
X12956173Y-15942707D02*
X12994268Y-15942707D01*
X12994268Y-15942707D02*
X13013316Y-15933183D01*
X13013316Y-15933183D02*
X13022840Y-15914135D01*
X13022840Y-15914135D02*
X13022840Y-15904611D01*
X13022840Y-15904611D02*
X13013316Y-15885564D01*
X13013316Y-15885564D02*
X12994268Y-15876040D01*
X12994268Y-15876040D02*
X12965697Y-15876040D01*
X12965697Y-15876040D02*
X12946649Y-15866516D01*
X12946649Y-15866516D02*
X12937126Y-15847469D01*
X12937126Y-15847469D02*
X12937126Y-15837945D01*
X12937126Y-15837945D02*
X12946649Y-15818897D01*
X12946649Y-15818897D02*
X12965697Y-15809373D01*
X12965697Y-15809373D02*
X12994268Y-15809373D01*
X12994268Y-15809373D02*
X13013316Y-15818897D01*
X13089507Y-16018897D02*
X13099030Y-16009373D01*
X13099030Y-16009373D02*
X13118078Y-15980802D01*
X13118078Y-15980802D02*
X13127602Y-15961754D01*
X13127602Y-15961754D02*
X13137126Y-15933183D01*
X13137126Y-15933183D02*
X13146649Y-15885564D01*
X13146649Y-15885564D02*
X13146649Y-15847469D01*
X13146649Y-15847469D02*
X13137126Y-15799849D01*
X13137126Y-15799849D02*
X13127602Y-15771278D01*
X13127602Y-15771278D02*
X13118078Y-15752230D01*
X13118078Y-15752230D02*
X13099030Y-15723659D01*
X13099030Y-15723659D02*
X13089507Y-15714135D01*
X13451411Y-16018897D02*
X13441888Y-16009373D01*
X13441888Y-16009373D02*
X13422840Y-15980802D01*
X13422840Y-15980802D02*
X13413316Y-15961754D01*
X13413316Y-15961754D02*
X13403792Y-15933183D01*
X13403792Y-15933183D02*
X13394269Y-15885564D01*
X13394269Y-15885564D02*
X13394269Y-15847469D01*
X13394269Y-15847469D02*
X13403792Y-15799849D01*
X13403792Y-15799849D02*
X13413316Y-15771278D01*
X13413316Y-15771278D02*
X13422840Y-15752230D01*
X13422840Y-15752230D02*
X13441888Y-15723659D01*
X13441888Y-15723659D02*
X13451411Y-15714135D01*
X13527602Y-15809373D02*
X13527602Y-15942707D01*
X13527602Y-15828421D02*
X13537126Y-15818897D01*
X13537126Y-15818897D02*
X13556173Y-15809373D01*
X13556173Y-15809373D02*
X13584745Y-15809373D01*
X13584745Y-15809373D02*
X13603792Y-15818897D01*
X13603792Y-15818897D02*
X13613316Y-15837945D01*
X13613316Y-15837945D02*
X13613316Y-15942707D01*
X13737126Y-15942707D02*
X13718078Y-15933183D01*
X13718078Y-15933183D02*
X13708554Y-15923659D01*
X13708554Y-15923659D02*
X13699030Y-15904611D01*
X13699030Y-15904611D02*
X13699030Y-15847469D01*
X13699030Y-15847469D02*
X13708554Y-15828421D01*
X13708554Y-15828421D02*
X13718078Y-15818897D01*
X13718078Y-15818897D02*
X13737126Y-15809373D01*
X13737126Y-15809373D02*
X13765697Y-15809373D01*
X13765697Y-15809373D02*
X13784745Y-15818897D01*
X13784745Y-15818897D02*
X13794269Y-15828421D01*
X13794269Y-15828421D02*
X13803792Y-15847469D01*
X13803792Y-15847469D02*
X13803792Y-15904611D01*
X13803792Y-15904611D02*
X13794269Y-15923659D01*
X13794269Y-15923659D02*
X13784745Y-15933183D01*
X13784745Y-15933183D02*
X13765697Y-15942707D01*
X13765697Y-15942707D02*
X13737126Y-15942707D01*
X13860935Y-15809373D02*
X13937126Y-15809373D01*
X13889507Y-15742707D02*
X13889507Y-15914135D01*
X13889507Y-15914135D02*
X13899030Y-15933183D01*
X13899030Y-15933183D02*
X13918078Y-15942707D01*
X13918078Y-15942707D02*
X13937126Y-15942707D01*
X14156173Y-15809373D02*
X14156173Y-16009373D01*
X14156173Y-15818897D02*
X14175221Y-15809373D01*
X14175221Y-15809373D02*
X14213316Y-15809373D01*
X14213316Y-15809373D02*
X14232364Y-15818897D01*
X14232364Y-15818897D02*
X14241888Y-15828421D01*
X14241888Y-15828421D02*
X14251411Y-15847469D01*
X14251411Y-15847469D02*
X14251411Y-15904611D01*
X14251411Y-15904611D02*
X14241888Y-15923659D01*
X14241888Y-15923659D02*
X14232364Y-15933183D01*
X14232364Y-15933183D02*
X14213316Y-15942707D01*
X14213316Y-15942707D02*
X14175221Y-15942707D01*
X14175221Y-15942707D02*
X14156173Y-15933183D01*
X14365697Y-15942707D02*
X14346650Y-15933183D01*
X14346650Y-15933183D02*
X14337126Y-15914135D01*
X14337126Y-15914135D02*
X14337126Y-15742707D01*
X14527602Y-15942707D02*
X14527602Y-15837945D01*
X14527602Y-15837945D02*
X14518078Y-15818897D01*
X14518078Y-15818897D02*
X14499031Y-15809373D01*
X14499031Y-15809373D02*
X14460935Y-15809373D01*
X14460935Y-15809373D02*
X14441888Y-15818897D01*
X14527602Y-15933183D02*
X14508554Y-15942707D01*
X14508554Y-15942707D02*
X14460935Y-15942707D01*
X14460935Y-15942707D02*
X14441888Y-15933183D01*
X14441888Y-15933183D02*
X14432364Y-15914135D01*
X14432364Y-15914135D02*
X14432364Y-15895088D01*
X14432364Y-15895088D02*
X14441888Y-15876040D01*
X14441888Y-15876040D02*
X14460935Y-15866516D01*
X14460935Y-15866516D02*
X14508554Y-15866516D01*
X14508554Y-15866516D02*
X14527602Y-15856992D01*
X14594269Y-15809373D02*
X14670459Y-15809373D01*
X14622840Y-15742707D02*
X14622840Y-15914135D01*
X14622840Y-15914135D02*
X14632364Y-15933183D01*
X14632364Y-15933183D02*
X14651411Y-15942707D01*
X14651411Y-15942707D02*
X14670459Y-15942707D01*
X14813316Y-15933183D02*
X14794269Y-15942707D01*
X14794269Y-15942707D02*
X14756173Y-15942707D01*
X14756173Y-15942707D02*
X14737126Y-15933183D01*
X14737126Y-15933183D02*
X14727602Y-15914135D01*
X14727602Y-15914135D02*
X14727602Y-15837945D01*
X14727602Y-15837945D02*
X14737126Y-15818897D01*
X14737126Y-15818897D02*
X14756173Y-15809373D01*
X14756173Y-15809373D02*
X14794269Y-15809373D01*
X14794269Y-15809373D02*
X14813316Y-15818897D01*
X14813316Y-15818897D02*
X14822840Y-15837945D01*
X14822840Y-15837945D02*
X14822840Y-15856992D01*
X14822840Y-15856992D02*
X14727602Y-15876040D01*
X14994269Y-15942707D02*
X14994269Y-15742707D01*
X14994269Y-15933183D02*
X14975221Y-15942707D01*
X14975221Y-15942707D02*
X14937126Y-15942707D01*
X14937126Y-15942707D02*
X14918078Y-15933183D01*
X14918078Y-15933183D02*
X14908554Y-15923659D01*
X14908554Y-15923659D02*
X14899031Y-15904611D01*
X14899031Y-15904611D02*
X14899031Y-15847469D01*
X14899031Y-15847469D02*
X14908554Y-15828421D01*
X14908554Y-15828421D02*
X14918078Y-15818897D01*
X14918078Y-15818897D02*
X14937126Y-15809373D01*
X14937126Y-15809373D02*
X14975221Y-15809373D01*
X14975221Y-15809373D02*
X14994269Y-15818897D01*
X15070459Y-16018897D02*
X15079983Y-16009373D01*
X15079983Y-16009373D02*
X15099031Y-15980802D01*
X15099031Y-15980802D02*
X15108554Y-15961754D01*
X15108554Y-15961754D02*
X15118078Y-15933183D01*
X15118078Y-15933183D02*
X15127602Y-15885564D01*
X15127602Y-15885564D02*
X15127602Y-15847469D01*
X15127602Y-15847469D02*
X15118078Y-15799849D01*
X15118078Y-15799849D02*
X15108554Y-15771278D01*
X15108554Y-15771278D02*
X15099031Y-15752230D01*
X15099031Y-15752230D02*
X15079983Y-15723659D01*
X15079983Y-15723659D02*
X15070459Y-15714135D01*
X8107837Y-16240894D02*
X8107837Y-16099471D01*
X7966414Y-16099471D01*
X7966414Y-16240894D01*
X8107837Y-16240894D01*
X8365697Y-16062707D02*
X8489506Y-16062707D01*
X8489506Y-16062707D02*
X8422840Y-16138897D01*
X8422840Y-16138897D02*
X8451411Y-16138897D01*
X8451411Y-16138897D02*
X8470459Y-16148421D01*
X8470459Y-16148421D02*
X8479982Y-16157945D01*
X8479982Y-16157945D02*
X8489506Y-16176992D01*
X8489506Y-16176992D02*
X8489506Y-16224611D01*
X8489506Y-16224611D02*
X8479982Y-16243659D01*
X8479982Y-16243659D02*
X8470459Y-16253183D01*
X8470459Y-16253183D02*
X8451411Y-16262707D01*
X8451411Y-16262707D02*
X8394268Y-16262707D01*
X8394268Y-16262707D02*
X8375220Y-16253183D01*
X8375220Y-16253183D02*
X8365697Y-16243659D01*
X8575221Y-16243659D02*
X8584744Y-16253183D01*
X8584744Y-16253183D02*
X8575221Y-16262707D01*
X8575221Y-16262707D02*
X8565697Y-16253183D01*
X8565697Y-16253183D02*
X8575221Y-16243659D01*
X8575221Y-16243659D02*
X8575221Y-16262707D01*
X8660935Y-16081754D02*
X8670459Y-16072230D01*
X8670459Y-16072230D02*
X8689506Y-16062707D01*
X8689506Y-16062707D02*
X8737125Y-16062707D01*
X8737125Y-16062707D02*
X8756173Y-16072230D01*
X8756173Y-16072230D02*
X8765697Y-16081754D01*
X8765697Y-16081754D02*
X8775221Y-16100802D01*
X8775221Y-16100802D02*
X8775221Y-16119849D01*
X8775221Y-16119849D02*
X8765697Y-16148421D01*
X8765697Y-16148421D02*
X8651411Y-16262707D01*
X8651411Y-16262707D02*
X8775221Y-16262707D01*
X8899030Y-16062707D02*
X8918078Y-16062707D01*
X8918078Y-16062707D02*
X8937125Y-16072230D01*
X8937125Y-16072230D02*
X8946649Y-16081754D01*
X8946649Y-16081754D02*
X8956173Y-16100802D01*
X8956173Y-16100802D02*
X8965697Y-16138897D01*
X8965697Y-16138897D02*
X8965697Y-16186516D01*
X8965697Y-16186516D02*
X8956173Y-16224611D01*
X8956173Y-16224611D02*
X8946649Y-16243659D01*
X8946649Y-16243659D02*
X8937125Y-16253183D01*
X8937125Y-16253183D02*
X8918078Y-16262707D01*
X8918078Y-16262707D02*
X8899030Y-16262707D01*
X8899030Y-16262707D02*
X8879982Y-16253183D01*
X8879982Y-16253183D02*
X8870459Y-16243659D01*
X8870459Y-16243659D02*
X8860935Y-16224611D01*
X8860935Y-16224611D02*
X8851411Y-16186516D01*
X8851411Y-16186516D02*
X8851411Y-16138897D01*
X8851411Y-16138897D02*
X8860935Y-16100802D01*
X8860935Y-16100802D02*
X8870459Y-16081754D01*
X8870459Y-16081754D02*
X8879982Y-16072230D01*
X8879982Y-16072230D02*
X8899030Y-16062707D01*
X9089506Y-16062707D02*
X9108554Y-16062707D01*
X9108554Y-16062707D02*
X9127602Y-16072230D01*
X9127602Y-16072230D02*
X9137125Y-16081754D01*
X9137125Y-16081754D02*
X9146649Y-16100802D01*
X9146649Y-16100802D02*
X9156173Y-16138897D01*
X9156173Y-16138897D02*
X9156173Y-16186516D01*
X9156173Y-16186516D02*
X9146649Y-16224611D01*
X9146649Y-16224611D02*
X9137125Y-16243659D01*
X9137125Y-16243659D02*
X9127602Y-16253183D01*
X9127602Y-16253183D02*
X9108554Y-16262707D01*
X9108554Y-16262707D02*
X9089506Y-16262707D01*
X9089506Y-16262707D02*
X9070459Y-16253183D01*
X9070459Y-16253183D02*
X9060935Y-16243659D01*
X9060935Y-16243659D02*
X9051411Y-16224611D01*
X9051411Y-16224611D02*
X9041887Y-16186516D01*
X9041887Y-16186516D02*
X9041887Y-16138897D01*
X9041887Y-16138897D02*
X9051411Y-16100802D01*
X9051411Y-16100802D02*
X9060935Y-16081754D01*
X9060935Y-16081754D02*
X9070459Y-16072230D01*
X9070459Y-16072230D02*
X9089506Y-16062707D01*
X9241887Y-16262707D02*
X9241887Y-16129373D01*
X9241887Y-16148421D02*
X9251411Y-16138897D01*
X9251411Y-16138897D02*
X9270459Y-16129373D01*
X9270459Y-16129373D02*
X9299030Y-16129373D01*
X9299030Y-16129373D02*
X9318078Y-16138897D01*
X9318078Y-16138897D02*
X9327602Y-16157945D01*
X9327602Y-16157945D02*
X9327602Y-16262707D01*
X9327602Y-16157945D02*
X9337125Y-16138897D01*
X9337125Y-16138897D02*
X9356173Y-16129373D01*
X9356173Y-16129373D02*
X9384744Y-16129373D01*
X9384744Y-16129373D02*
X9403792Y-16138897D01*
X9403792Y-16138897D02*
X9413316Y-16157945D01*
X9413316Y-16157945D02*
X9413316Y-16262707D01*
X9508554Y-16262707D02*
X9508554Y-16129373D01*
X9508554Y-16148421D02*
X9518078Y-16138897D01*
X9518078Y-16138897D02*
X9537125Y-16129373D01*
X9537125Y-16129373D02*
X9565697Y-16129373D01*
X9565697Y-16129373D02*
X9584744Y-16138897D01*
X9584744Y-16138897D02*
X9594268Y-16157945D01*
X9594268Y-16157945D02*
X9594268Y-16262707D01*
X9594268Y-16157945D02*
X9603792Y-16138897D01*
X9603792Y-16138897D02*
X9622840Y-16129373D01*
X9622840Y-16129373D02*
X9651411Y-16129373D01*
X9651411Y-16129373D02*
X9670459Y-16138897D01*
X9670459Y-16138897D02*
X9679983Y-16157945D01*
X9679983Y-16157945D02*
X9679983Y-16262707D01*
X10070459Y-16053183D02*
X9899030Y-16310326D01*
X10327602Y-16062707D02*
X10346649Y-16062707D01*
X10346649Y-16062707D02*
X10365697Y-16072230D01*
X10365697Y-16072230D02*
X10375221Y-16081754D01*
X10375221Y-16081754D02*
X10384745Y-16100802D01*
X10384745Y-16100802D02*
X10394268Y-16138897D01*
X10394268Y-16138897D02*
X10394268Y-16186516D01*
X10394268Y-16186516D02*
X10384745Y-16224611D01*
X10384745Y-16224611D02*
X10375221Y-16243659D01*
X10375221Y-16243659D02*
X10365697Y-16253183D01*
X10365697Y-16253183D02*
X10346649Y-16262707D01*
X10346649Y-16262707D02*
X10327602Y-16262707D01*
X10327602Y-16262707D02*
X10308554Y-16253183D01*
X10308554Y-16253183D02*
X10299030Y-16243659D01*
X10299030Y-16243659D02*
X10289506Y-16224611D01*
X10289506Y-16224611D02*
X10279983Y-16186516D01*
X10279983Y-16186516D02*
X10279983Y-16138897D01*
X10279983Y-16138897D02*
X10289506Y-16100802D01*
X10289506Y-16100802D02*
X10299030Y-16081754D01*
X10299030Y-16081754D02*
X10308554Y-16072230D01*
X10308554Y-16072230D02*
X10327602Y-16062707D01*
X10479983Y-16243659D02*
X10489506Y-16253183D01*
X10489506Y-16253183D02*
X10479983Y-16262707D01*
X10479983Y-16262707D02*
X10470459Y-16253183D01*
X10470459Y-16253183D02*
X10479983Y-16243659D01*
X10479983Y-16243659D02*
X10479983Y-16262707D01*
X10679983Y-16262707D02*
X10565697Y-16262707D01*
X10622840Y-16262707D02*
X10622840Y-16062707D01*
X10622840Y-16062707D02*
X10603792Y-16091278D01*
X10603792Y-16091278D02*
X10584745Y-16110326D01*
X10584745Y-16110326D02*
X10565697Y-16119849D01*
X10756173Y-16081754D02*
X10765697Y-16072230D01*
X10765697Y-16072230D02*
X10784745Y-16062707D01*
X10784745Y-16062707D02*
X10832364Y-16062707D01*
X10832364Y-16062707D02*
X10851411Y-16072230D01*
X10851411Y-16072230D02*
X10860935Y-16081754D01*
X10860935Y-16081754D02*
X10870459Y-16100802D01*
X10870459Y-16100802D02*
X10870459Y-16119849D01*
X10870459Y-16119849D02*
X10860935Y-16148421D01*
X10860935Y-16148421D02*
X10746649Y-16262707D01*
X10746649Y-16262707D02*
X10870459Y-16262707D01*
X11041887Y-16062707D02*
X11003792Y-16062707D01*
X11003792Y-16062707D02*
X10984745Y-16072230D01*
X10984745Y-16072230D02*
X10975221Y-16081754D01*
X10975221Y-16081754D02*
X10956173Y-16110326D01*
X10956173Y-16110326D02*
X10946649Y-16148421D01*
X10946649Y-16148421D02*
X10946649Y-16224611D01*
X10946649Y-16224611D02*
X10956173Y-16243659D01*
X10956173Y-16243659D02*
X10965697Y-16253183D01*
X10965697Y-16253183D02*
X10984745Y-16262707D01*
X10984745Y-16262707D02*
X11022840Y-16262707D01*
X11022840Y-16262707D02*
X11041887Y-16253183D01*
X11041887Y-16253183D02*
X11051411Y-16243659D01*
X11051411Y-16243659D02*
X11060935Y-16224611D01*
X11060935Y-16224611D02*
X11060935Y-16176992D01*
X11060935Y-16176992D02*
X11051411Y-16157945D01*
X11051411Y-16157945D02*
X11041887Y-16148421D01*
X11041887Y-16148421D02*
X11022840Y-16138897D01*
X11022840Y-16138897D02*
X10984745Y-16138897D01*
X10984745Y-16138897D02*
X10965697Y-16148421D01*
X10965697Y-16148421D02*
X10956173Y-16157945D01*
X10956173Y-16157945D02*
X10946649Y-16176992D01*
X11184745Y-16062707D02*
X11203792Y-16062707D01*
X11203792Y-16062707D02*
X11222840Y-16072230D01*
X11222840Y-16072230D02*
X11232364Y-16081754D01*
X11232364Y-16081754D02*
X11241887Y-16100802D01*
X11241887Y-16100802D02*
X11251411Y-16138897D01*
X11251411Y-16138897D02*
X11251411Y-16186516D01*
X11251411Y-16186516D02*
X11241887Y-16224611D01*
X11241887Y-16224611D02*
X11232364Y-16243659D01*
X11232364Y-16243659D02*
X11222840Y-16253183D01*
X11222840Y-16253183D02*
X11203792Y-16262707D01*
X11203792Y-16262707D02*
X11184745Y-16262707D01*
X11184745Y-16262707D02*
X11165697Y-16253183D01*
X11165697Y-16253183D02*
X11156173Y-16243659D01*
X11156173Y-16243659D02*
X11146649Y-16224611D01*
X11146649Y-16224611D02*
X11137126Y-16186516D01*
X11137126Y-16186516D02*
X11137126Y-16138897D01*
X11137126Y-16138897D02*
X11146649Y-16100802D01*
X11146649Y-16100802D02*
X11156173Y-16081754D01*
X11156173Y-16081754D02*
X11165697Y-16072230D01*
X11165697Y-16072230D02*
X11184745Y-16062707D01*
X11327602Y-16062707D02*
X11327602Y-16100802D01*
X11403792Y-16062707D02*
X11403792Y-16100802D01*
X11699030Y-16338897D02*
X11689506Y-16329373D01*
X11689506Y-16329373D02*
X11670459Y-16300802D01*
X11670459Y-16300802D02*
X11660935Y-16281754D01*
X11660935Y-16281754D02*
X11651411Y-16253183D01*
X11651411Y-16253183D02*
X11641887Y-16205564D01*
X11641887Y-16205564D02*
X11641887Y-16167469D01*
X11641887Y-16167469D02*
X11651411Y-16119849D01*
X11651411Y-16119849D02*
X11660935Y-16091278D01*
X11660935Y-16091278D02*
X11670459Y-16072230D01*
X11670459Y-16072230D02*
X11689506Y-16043659D01*
X11689506Y-16043659D02*
X11699030Y-16034135D01*
X11870459Y-16062707D02*
X11775221Y-16062707D01*
X11775221Y-16062707D02*
X11765697Y-16157945D01*
X11765697Y-16157945D02*
X11775221Y-16148421D01*
X11775221Y-16148421D02*
X11794268Y-16138897D01*
X11794268Y-16138897D02*
X11841887Y-16138897D01*
X11841887Y-16138897D02*
X11860935Y-16148421D01*
X11860935Y-16148421D02*
X11870459Y-16157945D01*
X11870459Y-16157945D02*
X11879983Y-16176992D01*
X11879983Y-16176992D02*
X11879983Y-16224611D01*
X11879983Y-16224611D02*
X11870459Y-16243659D01*
X11870459Y-16243659D02*
X11860935Y-16253183D01*
X11860935Y-16253183D02*
X11841887Y-16262707D01*
X11841887Y-16262707D02*
X11794268Y-16262707D01*
X11794268Y-16262707D02*
X11775221Y-16253183D01*
X11775221Y-16253183D02*
X11765697Y-16243659D01*
X12118078Y-16262707D02*
X12118078Y-16062707D01*
X12203792Y-16262707D02*
X12203792Y-16157945D01*
X12203792Y-16157945D02*
X12194268Y-16138897D01*
X12194268Y-16138897D02*
X12175221Y-16129373D01*
X12175221Y-16129373D02*
X12146649Y-16129373D01*
X12146649Y-16129373D02*
X12127602Y-16138897D01*
X12127602Y-16138897D02*
X12118078Y-16148421D01*
X12327602Y-16262707D02*
X12308554Y-16253183D01*
X12308554Y-16253183D02*
X12299030Y-16243659D01*
X12299030Y-16243659D02*
X12289507Y-16224611D01*
X12289507Y-16224611D02*
X12289507Y-16167469D01*
X12289507Y-16167469D02*
X12299030Y-16148421D01*
X12299030Y-16148421D02*
X12308554Y-16138897D01*
X12308554Y-16138897D02*
X12327602Y-16129373D01*
X12327602Y-16129373D02*
X12356173Y-16129373D01*
X12356173Y-16129373D02*
X12375221Y-16138897D01*
X12375221Y-16138897D02*
X12384745Y-16148421D01*
X12384745Y-16148421D02*
X12394268Y-16167469D01*
X12394268Y-16167469D02*
X12394268Y-16224611D01*
X12394268Y-16224611D02*
X12384745Y-16243659D01*
X12384745Y-16243659D02*
X12375221Y-16253183D01*
X12375221Y-16253183D02*
X12356173Y-16262707D01*
X12356173Y-16262707D02*
X12327602Y-16262707D01*
X12508554Y-16262707D02*
X12489507Y-16253183D01*
X12489507Y-16253183D02*
X12479983Y-16234135D01*
X12479983Y-16234135D02*
X12479983Y-16062707D01*
X12660935Y-16253183D02*
X12641888Y-16262707D01*
X12641888Y-16262707D02*
X12603792Y-16262707D01*
X12603792Y-16262707D02*
X12584745Y-16253183D01*
X12584745Y-16253183D02*
X12575221Y-16234135D01*
X12575221Y-16234135D02*
X12575221Y-16157945D01*
X12575221Y-16157945D02*
X12584745Y-16138897D01*
X12584745Y-16138897D02*
X12603792Y-16129373D01*
X12603792Y-16129373D02*
X12641888Y-16129373D01*
X12641888Y-16129373D02*
X12660935Y-16138897D01*
X12660935Y-16138897D02*
X12670459Y-16157945D01*
X12670459Y-16157945D02*
X12670459Y-16176992D01*
X12670459Y-16176992D02*
X12575221Y-16196040D01*
X12746649Y-16253183D02*
X12765697Y-16262707D01*
X12765697Y-16262707D02*
X12803792Y-16262707D01*
X12803792Y-16262707D02*
X12822840Y-16253183D01*
X12822840Y-16253183D02*
X12832364Y-16234135D01*
X12832364Y-16234135D02*
X12832364Y-16224611D01*
X12832364Y-16224611D02*
X12822840Y-16205564D01*
X12822840Y-16205564D02*
X12803792Y-16196040D01*
X12803792Y-16196040D02*
X12775221Y-16196040D01*
X12775221Y-16196040D02*
X12756173Y-16186516D01*
X12756173Y-16186516D02*
X12746649Y-16167469D01*
X12746649Y-16167469D02*
X12746649Y-16157945D01*
X12746649Y-16157945D02*
X12756173Y-16138897D01*
X12756173Y-16138897D02*
X12775221Y-16129373D01*
X12775221Y-16129373D02*
X12803792Y-16129373D01*
X12803792Y-16129373D02*
X12822840Y-16138897D01*
X12899030Y-16338897D02*
X12908554Y-16329373D01*
X12908554Y-16329373D02*
X12927602Y-16300802D01*
X12927602Y-16300802D02*
X12937126Y-16281754D01*
X12937126Y-16281754D02*
X12946649Y-16253183D01*
X12946649Y-16253183D02*
X12956173Y-16205564D01*
X12956173Y-16205564D02*
X12956173Y-16167469D01*
X12956173Y-16167469D02*
X12946649Y-16119849D01*
X12946649Y-16119849D02*
X12937126Y-16091278D01*
X12937126Y-16091278D02*
X12927602Y-16072230D01*
X12927602Y-16072230D02*
X12908554Y-16043659D01*
X12908554Y-16043659D02*
X12899030Y-16034135D01*
X13260935Y-16338897D02*
X13251411Y-16329373D01*
X13251411Y-16329373D02*
X13232364Y-16300802D01*
X13232364Y-16300802D02*
X13222840Y-16281754D01*
X13222840Y-16281754D02*
X13213316Y-16253183D01*
X13213316Y-16253183D02*
X13203792Y-16205564D01*
X13203792Y-16205564D02*
X13203792Y-16167469D01*
X13203792Y-16167469D02*
X13213316Y-16119849D01*
X13213316Y-16119849D02*
X13222840Y-16091278D01*
X13222840Y-16091278D02*
X13232364Y-16072230D01*
X13232364Y-16072230D02*
X13251411Y-16043659D01*
X13251411Y-16043659D02*
X13260935Y-16034135D01*
X13337126Y-16129373D02*
X13337126Y-16262707D01*
X13337126Y-16148421D02*
X13346649Y-16138897D01*
X13346649Y-16138897D02*
X13365697Y-16129373D01*
X13365697Y-16129373D02*
X13394269Y-16129373D01*
X13394269Y-16129373D02*
X13413316Y-16138897D01*
X13413316Y-16138897D02*
X13422840Y-16157945D01*
X13422840Y-16157945D02*
X13422840Y-16262707D01*
X13546649Y-16262707D02*
X13527602Y-16253183D01*
X13527602Y-16253183D02*
X13518078Y-16243659D01*
X13518078Y-16243659D02*
X13508554Y-16224611D01*
X13508554Y-16224611D02*
X13508554Y-16167469D01*
X13508554Y-16167469D02*
X13518078Y-16148421D01*
X13518078Y-16148421D02*
X13527602Y-16138897D01*
X13527602Y-16138897D02*
X13546649Y-16129373D01*
X13546649Y-16129373D02*
X13575221Y-16129373D01*
X13575221Y-16129373D02*
X13594269Y-16138897D01*
X13594269Y-16138897D02*
X13603792Y-16148421D01*
X13603792Y-16148421D02*
X13613316Y-16167469D01*
X13613316Y-16167469D02*
X13613316Y-16224611D01*
X13613316Y-16224611D02*
X13603792Y-16243659D01*
X13603792Y-16243659D02*
X13594269Y-16253183D01*
X13594269Y-16253183D02*
X13575221Y-16262707D01*
X13575221Y-16262707D02*
X13546649Y-16262707D01*
X13670459Y-16129373D02*
X13746649Y-16129373D01*
X13699030Y-16062707D02*
X13699030Y-16234135D01*
X13699030Y-16234135D02*
X13708554Y-16253183D01*
X13708554Y-16253183D02*
X13727602Y-16262707D01*
X13727602Y-16262707D02*
X13746649Y-16262707D01*
X13965697Y-16129373D02*
X13965697Y-16329373D01*
X13965697Y-16138897D02*
X13984745Y-16129373D01*
X13984745Y-16129373D02*
X14022840Y-16129373D01*
X14022840Y-16129373D02*
X14041888Y-16138897D01*
X14041888Y-16138897D02*
X14051411Y-16148421D01*
X14051411Y-16148421D02*
X14060935Y-16167469D01*
X14060935Y-16167469D02*
X14060935Y-16224611D01*
X14060935Y-16224611D02*
X14051411Y-16243659D01*
X14051411Y-16243659D02*
X14041888Y-16253183D01*
X14041888Y-16253183D02*
X14022840Y-16262707D01*
X14022840Y-16262707D02*
X13984745Y-16262707D01*
X13984745Y-16262707D02*
X13965697Y-16253183D01*
X14175221Y-16262707D02*
X14156173Y-16253183D01*
X14156173Y-16253183D02*
X14146650Y-16234135D01*
X14146650Y-16234135D02*
X14146650Y-16062707D01*
X14337126Y-16262707D02*
X14337126Y-16157945D01*
X14337126Y-16157945D02*
X14327602Y-16138897D01*
X14327602Y-16138897D02*
X14308554Y-16129373D01*
X14308554Y-16129373D02*
X14270459Y-16129373D01*
X14270459Y-16129373D02*
X14251411Y-16138897D01*
X14337126Y-16253183D02*
X14318078Y-16262707D01*
X14318078Y-16262707D02*
X14270459Y-16262707D01*
X14270459Y-16262707D02*
X14251411Y-16253183D01*
X14251411Y-16253183D02*
X14241888Y-16234135D01*
X14241888Y-16234135D02*
X14241888Y-16215088D01*
X14241888Y-16215088D02*
X14251411Y-16196040D01*
X14251411Y-16196040D02*
X14270459Y-16186516D01*
X14270459Y-16186516D02*
X14318078Y-16186516D01*
X14318078Y-16186516D02*
X14337126Y-16176992D01*
X14403792Y-16129373D02*
X14479983Y-16129373D01*
X14432364Y-16062707D02*
X14432364Y-16234135D01*
X14432364Y-16234135D02*
X14441888Y-16253183D01*
X14441888Y-16253183D02*
X14460935Y-16262707D01*
X14460935Y-16262707D02*
X14479983Y-16262707D01*
X14622840Y-16253183D02*
X14603792Y-16262707D01*
X14603792Y-16262707D02*
X14565697Y-16262707D01*
X14565697Y-16262707D02*
X14546650Y-16253183D01*
X14546650Y-16253183D02*
X14537126Y-16234135D01*
X14537126Y-16234135D02*
X14537126Y-16157945D01*
X14537126Y-16157945D02*
X14546650Y-16138897D01*
X14546650Y-16138897D02*
X14565697Y-16129373D01*
X14565697Y-16129373D02*
X14603792Y-16129373D01*
X14603792Y-16129373D02*
X14622840Y-16138897D01*
X14622840Y-16138897D02*
X14632364Y-16157945D01*
X14632364Y-16157945D02*
X14632364Y-16176992D01*
X14632364Y-16176992D02*
X14537126Y-16196040D01*
X14803792Y-16262707D02*
X14803792Y-16062707D01*
X14803792Y-16253183D02*
X14784745Y-16262707D01*
X14784745Y-16262707D02*
X14746650Y-16262707D01*
X14746650Y-16262707D02*
X14727602Y-16253183D01*
X14727602Y-16253183D02*
X14718078Y-16243659D01*
X14718078Y-16243659D02*
X14708554Y-16224611D01*
X14708554Y-16224611D02*
X14708554Y-16167469D01*
X14708554Y-16167469D02*
X14718078Y-16148421D01*
X14718078Y-16148421D02*
X14727602Y-16138897D01*
X14727602Y-16138897D02*
X14746650Y-16129373D01*
X14746650Y-16129373D02*
X14784745Y-16129373D01*
X14784745Y-16129373D02*
X14803792Y-16138897D01*
X14879983Y-16338897D02*
X14889507Y-16329373D01*
X14889507Y-16329373D02*
X14908554Y-16300802D01*
X14908554Y-16300802D02*
X14918078Y-16281754D01*
X14918078Y-16281754D02*
X14927602Y-16253183D01*
X14927602Y-16253183D02*
X14937126Y-16205564D01*
X14937126Y-16205564D02*
X14937126Y-16167469D01*
X14937126Y-16167469D02*
X14927602Y-16119849D01*
X14927602Y-16119849D02*
X14918078Y-16091278D01*
X14918078Y-16091278D02*
X14908554Y-16072230D01*
X14908554Y-16072230D02*
X14889507Y-16043659D01*
X14889507Y-16043659D02*
X14879983Y-16034135D01*
X8037125Y-16590183D02*
X8137125Y-16490183D01*
X8037125Y-16390183D01*
X7937125Y-16490183D01*
X8037125Y-16590183D01*
X8365697Y-16382707D02*
X8489506Y-16382707D01*
X8489506Y-16382707D02*
X8422840Y-16458897D01*
X8422840Y-16458897D02*
X8451411Y-16458897D01*
X8451411Y-16458897D02*
X8470459Y-16468421D01*
X8470459Y-16468421D02*
X8479982Y-16477945D01*
X8479982Y-16477945D02*
X8489506Y-16496992D01*
X8489506Y-16496992D02*
X8489506Y-16544611D01*
X8489506Y-16544611D02*
X8479982Y-16563659D01*
X8479982Y-16563659D02*
X8470459Y-16573183D01*
X8470459Y-16573183D02*
X8451411Y-16582707D01*
X8451411Y-16582707D02*
X8394268Y-16582707D01*
X8394268Y-16582707D02*
X8375220Y-16573183D01*
X8375220Y-16573183D02*
X8365697Y-16563659D01*
X8575221Y-16563659D02*
X8584744Y-16573183D01*
X8584744Y-16573183D02*
X8575221Y-16582707D01*
X8575221Y-16582707D02*
X8565697Y-16573183D01*
X8565697Y-16573183D02*
X8575221Y-16563659D01*
X8575221Y-16563659D02*
X8575221Y-16582707D01*
X8679982Y-16582707D02*
X8718078Y-16582707D01*
X8718078Y-16582707D02*
X8737125Y-16573183D01*
X8737125Y-16573183D02*
X8746649Y-16563659D01*
X8746649Y-16563659D02*
X8765697Y-16535088D01*
X8765697Y-16535088D02*
X8775221Y-16496992D01*
X8775221Y-16496992D02*
X8775221Y-16420802D01*
X8775221Y-16420802D02*
X8765697Y-16401754D01*
X8765697Y-16401754D02*
X8756173Y-16392230D01*
X8756173Y-16392230D02*
X8737125Y-16382707D01*
X8737125Y-16382707D02*
X8699030Y-16382707D01*
X8699030Y-16382707D02*
X8679982Y-16392230D01*
X8679982Y-16392230D02*
X8670459Y-16401754D01*
X8670459Y-16401754D02*
X8660935Y-16420802D01*
X8660935Y-16420802D02*
X8660935Y-16468421D01*
X8660935Y-16468421D02*
X8670459Y-16487469D01*
X8670459Y-16487469D02*
X8679982Y-16496992D01*
X8679982Y-16496992D02*
X8699030Y-16506516D01*
X8699030Y-16506516D02*
X8737125Y-16506516D01*
X8737125Y-16506516D02*
X8756173Y-16496992D01*
X8756173Y-16496992D02*
X8765697Y-16487469D01*
X8765697Y-16487469D02*
X8775221Y-16468421D01*
X8889506Y-16468421D02*
X8870459Y-16458897D01*
X8870459Y-16458897D02*
X8860935Y-16449373D01*
X8860935Y-16449373D02*
X8851411Y-16430326D01*
X8851411Y-16430326D02*
X8851411Y-16420802D01*
X8851411Y-16420802D02*
X8860935Y-16401754D01*
X8860935Y-16401754D02*
X8870459Y-16392230D01*
X8870459Y-16392230D02*
X8889506Y-16382707D01*
X8889506Y-16382707D02*
X8927602Y-16382707D01*
X8927602Y-16382707D02*
X8946649Y-16392230D01*
X8946649Y-16392230D02*
X8956173Y-16401754D01*
X8956173Y-16401754D02*
X8965697Y-16420802D01*
X8965697Y-16420802D02*
X8965697Y-16430326D01*
X8965697Y-16430326D02*
X8956173Y-16449373D01*
X8956173Y-16449373D02*
X8946649Y-16458897D01*
X8946649Y-16458897D02*
X8927602Y-16468421D01*
X8927602Y-16468421D02*
X8889506Y-16468421D01*
X8889506Y-16468421D02*
X8870459Y-16477945D01*
X8870459Y-16477945D02*
X8860935Y-16487469D01*
X8860935Y-16487469D02*
X8851411Y-16506516D01*
X8851411Y-16506516D02*
X8851411Y-16544611D01*
X8851411Y-16544611D02*
X8860935Y-16563659D01*
X8860935Y-16563659D02*
X8870459Y-16573183D01*
X8870459Y-16573183D02*
X8889506Y-16582707D01*
X8889506Y-16582707D02*
X8927602Y-16582707D01*
X8927602Y-16582707D02*
X8946649Y-16573183D01*
X8946649Y-16573183D02*
X8956173Y-16563659D01*
X8956173Y-16563659D02*
X8965697Y-16544611D01*
X8965697Y-16544611D02*
X8965697Y-16506516D01*
X8965697Y-16506516D02*
X8956173Y-16487469D01*
X8956173Y-16487469D02*
X8946649Y-16477945D01*
X8946649Y-16477945D02*
X8927602Y-16468421D01*
X9079982Y-16468421D02*
X9060935Y-16458897D01*
X9060935Y-16458897D02*
X9051411Y-16449373D01*
X9051411Y-16449373D02*
X9041887Y-16430326D01*
X9041887Y-16430326D02*
X9041887Y-16420802D01*
X9041887Y-16420802D02*
X9051411Y-16401754D01*
X9051411Y-16401754D02*
X9060935Y-16392230D01*
X9060935Y-16392230D02*
X9079982Y-16382707D01*
X9079982Y-16382707D02*
X9118078Y-16382707D01*
X9118078Y-16382707D02*
X9137125Y-16392230D01*
X9137125Y-16392230D02*
X9146649Y-16401754D01*
X9146649Y-16401754D02*
X9156173Y-16420802D01*
X9156173Y-16420802D02*
X9156173Y-16430326D01*
X9156173Y-16430326D02*
X9146649Y-16449373D01*
X9146649Y-16449373D02*
X9137125Y-16458897D01*
X9137125Y-16458897D02*
X9118078Y-16468421D01*
X9118078Y-16468421D02*
X9079982Y-16468421D01*
X9079982Y-16468421D02*
X9060935Y-16477945D01*
X9060935Y-16477945D02*
X9051411Y-16487469D01*
X9051411Y-16487469D02*
X9041887Y-16506516D01*
X9041887Y-16506516D02*
X9041887Y-16544611D01*
X9041887Y-16544611D02*
X9051411Y-16563659D01*
X9051411Y-16563659D02*
X9060935Y-16573183D01*
X9060935Y-16573183D02*
X9079982Y-16582707D01*
X9079982Y-16582707D02*
X9118078Y-16582707D01*
X9118078Y-16582707D02*
X9137125Y-16573183D01*
X9137125Y-16573183D02*
X9146649Y-16563659D01*
X9146649Y-16563659D02*
X9156173Y-16544611D01*
X9156173Y-16544611D02*
X9156173Y-16506516D01*
X9156173Y-16506516D02*
X9146649Y-16487469D01*
X9146649Y-16487469D02*
X9137125Y-16477945D01*
X9137125Y-16477945D02*
X9118078Y-16468421D01*
X9241887Y-16582707D02*
X9241887Y-16449373D01*
X9241887Y-16468421D02*
X9251411Y-16458897D01*
X9251411Y-16458897D02*
X9270459Y-16449373D01*
X9270459Y-16449373D02*
X9299030Y-16449373D01*
X9299030Y-16449373D02*
X9318078Y-16458897D01*
X9318078Y-16458897D02*
X9327602Y-16477945D01*
X9327602Y-16477945D02*
X9327602Y-16582707D01*
X9327602Y-16477945D02*
X9337125Y-16458897D01*
X9337125Y-16458897D02*
X9356173Y-16449373D01*
X9356173Y-16449373D02*
X9384744Y-16449373D01*
X9384744Y-16449373D02*
X9403792Y-16458897D01*
X9403792Y-16458897D02*
X9413316Y-16477945D01*
X9413316Y-16477945D02*
X9413316Y-16582707D01*
X9508554Y-16582707D02*
X9508554Y-16449373D01*
X9508554Y-16468421D02*
X9518078Y-16458897D01*
X9518078Y-16458897D02*
X9537125Y-16449373D01*
X9537125Y-16449373D02*
X9565697Y-16449373D01*
X9565697Y-16449373D02*
X9584744Y-16458897D01*
X9584744Y-16458897D02*
X9594268Y-16477945D01*
X9594268Y-16477945D02*
X9594268Y-16582707D01*
X9594268Y-16477945D02*
X9603792Y-16458897D01*
X9603792Y-16458897D02*
X9622840Y-16449373D01*
X9622840Y-16449373D02*
X9651411Y-16449373D01*
X9651411Y-16449373D02*
X9670459Y-16458897D01*
X9670459Y-16458897D02*
X9679983Y-16477945D01*
X9679983Y-16477945D02*
X9679983Y-16582707D01*
X10070459Y-16373183D02*
X9899030Y-16630326D01*
X10327602Y-16382707D02*
X10346649Y-16382707D01*
X10346649Y-16382707D02*
X10365697Y-16392230D01*
X10365697Y-16392230D02*
X10375221Y-16401754D01*
X10375221Y-16401754D02*
X10384745Y-16420802D01*
X10384745Y-16420802D02*
X10394268Y-16458897D01*
X10394268Y-16458897D02*
X10394268Y-16506516D01*
X10394268Y-16506516D02*
X10384745Y-16544611D01*
X10384745Y-16544611D02*
X10375221Y-16563659D01*
X10375221Y-16563659D02*
X10365697Y-16573183D01*
X10365697Y-16573183D02*
X10346649Y-16582707D01*
X10346649Y-16582707D02*
X10327602Y-16582707D01*
X10327602Y-16582707D02*
X10308554Y-16573183D01*
X10308554Y-16573183D02*
X10299030Y-16563659D01*
X10299030Y-16563659D02*
X10289506Y-16544611D01*
X10289506Y-16544611D02*
X10279983Y-16506516D01*
X10279983Y-16506516D02*
X10279983Y-16458897D01*
X10279983Y-16458897D02*
X10289506Y-16420802D01*
X10289506Y-16420802D02*
X10299030Y-16401754D01*
X10299030Y-16401754D02*
X10308554Y-16392230D01*
X10308554Y-16392230D02*
X10327602Y-16382707D01*
X10479983Y-16563659D02*
X10489506Y-16573183D01*
X10489506Y-16573183D02*
X10479983Y-16582707D01*
X10479983Y-16582707D02*
X10470459Y-16573183D01*
X10470459Y-16573183D02*
X10479983Y-16563659D01*
X10479983Y-16563659D02*
X10479983Y-16582707D01*
X10679983Y-16582707D02*
X10565697Y-16582707D01*
X10622840Y-16582707D02*
X10622840Y-16382707D01*
X10622840Y-16382707D02*
X10603792Y-16411278D01*
X10603792Y-16411278D02*
X10584745Y-16430326D01*
X10584745Y-16430326D02*
X10565697Y-16439849D01*
X10860935Y-16382707D02*
X10765697Y-16382707D01*
X10765697Y-16382707D02*
X10756173Y-16477945D01*
X10756173Y-16477945D02*
X10765697Y-16468421D01*
X10765697Y-16468421D02*
X10784745Y-16458897D01*
X10784745Y-16458897D02*
X10832364Y-16458897D01*
X10832364Y-16458897D02*
X10851411Y-16468421D01*
X10851411Y-16468421D02*
X10860935Y-16477945D01*
X10860935Y-16477945D02*
X10870459Y-16496992D01*
X10870459Y-16496992D02*
X10870459Y-16544611D01*
X10870459Y-16544611D02*
X10860935Y-16563659D01*
X10860935Y-16563659D02*
X10851411Y-16573183D01*
X10851411Y-16573183D02*
X10832364Y-16582707D01*
X10832364Y-16582707D02*
X10784745Y-16582707D01*
X10784745Y-16582707D02*
X10765697Y-16573183D01*
X10765697Y-16573183D02*
X10756173Y-16563659D01*
X10937126Y-16382707D02*
X11070459Y-16382707D01*
X11070459Y-16382707D02*
X10984745Y-16582707D01*
X11184745Y-16382707D02*
X11203792Y-16382707D01*
X11203792Y-16382707D02*
X11222840Y-16392230D01*
X11222840Y-16392230D02*
X11232364Y-16401754D01*
X11232364Y-16401754D02*
X11241887Y-16420802D01*
X11241887Y-16420802D02*
X11251411Y-16458897D01*
X11251411Y-16458897D02*
X11251411Y-16506516D01*
X11251411Y-16506516D02*
X11241887Y-16544611D01*
X11241887Y-16544611D02*
X11232364Y-16563659D01*
X11232364Y-16563659D02*
X11222840Y-16573183D01*
X11222840Y-16573183D02*
X11203792Y-16582707D01*
X11203792Y-16582707D02*
X11184745Y-16582707D01*
X11184745Y-16582707D02*
X11165697Y-16573183D01*
X11165697Y-16573183D02*
X11156173Y-16563659D01*
X11156173Y-16563659D02*
X11146649Y-16544611D01*
X11146649Y-16544611D02*
X11137126Y-16506516D01*
X11137126Y-16506516D02*
X11137126Y-16458897D01*
X11137126Y-16458897D02*
X11146649Y-16420802D01*
X11146649Y-16420802D02*
X11156173Y-16401754D01*
X11156173Y-16401754D02*
X11165697Y-16392230D01*
X11165697Y-16392230D02*
X11184745Y-16382707D01*
X11327602Y-16382707D02*
X11327602Y-16420802D01*
X11403792Y-16382707D02*
X11403792Y-16420802D01*
X11699030Y-16658897D02*
X11689506Y-16649373D01*
X11689506Y-16649373D02*
X11670459Y-16620802D01*
X11670459Y-16620802D02*
X11660935Y-16601754D01*
X11660935Y-16601754D02*
X11651411Y-16573183D01*
X11651411Y-16573183D02*
X11641887Y-16525564D01*
X11641887Y-16525564D02*
X11641887Y-16487469D01*
X11641887Y-16487469D02*
X11651411Y-16439849D01*
X11651411Y-16439849D02*
X11660935Y-16411278D01*
X11660935Y-16411278D02*
X11670459Y-16392230D01*
X11670459Y-16392230D02*
X11689506Y-16363659D01*
X11689506Y-16363659D02*
X11699030Y-16354135D01*
X11879983Y-16582707D02*
X11765697Y-16582707D01*
X11822840Y-16582707D02*
X11822840Y-16382707D01*
X11822840Y-16382707D02*
X11803792Y-16411278D01*
X11803792Y-16411278D02*
X11784745Y-16430326D01*
X11784745Y-16430326D02*
X11765697Y-16439849D01*
X11994268Y-16468421D02*
X11975221Y-16458897D01*
X11975221Y-16458897D02*
X11965697Y-16449373D01*
X11965697Y-16449373D02*
X11956173Y-16430326D01*
X11956173Y-16430326D02*
X11956173Y-16420802D01*
X11956173Y-16420802D02*
X11965697Y-16401754D01*
X11965697Y-16401754D02*
X11975221Y-16392230D01*
X11975221Y-16392230D02*
X11994268Y-16382707D01*
X11994268Y-16382707D02*
X12032364Y-16382707D01*
X12032364Y-16382707D02*
X12051411Y-16392230D01*
X12051411Y-16392230D02*
X12060935Y-16401754D01*
X12060935Y-16401754D02*
X12070459Y-16420802D01*
X12070459Y-16420802D02*
X12070459Y-16430326D01*
X12070459Y-16430326D02*
X12060935Y-16449373D01*
X12060935Y-16449373D02*
X12051411Y-16458897D01*
X12051411Y-16458897D02*
X12032364Y-16468421D01*
X12032364Y-16468421D02*
X11994268Y-16468421D01*
X11994268Y-16468421D02*
X11975221Y-16477945D01*
X11975221Y-16477945D02*
X11965697Y-16487469D01*
X11965697Y-16487469D02*
X11956173Y-16506516D01*
X11956173Y-16506516D02*
X11956173Y-16544611D01*
X11956173Y-16544611D02*
X11965697Y-16563659D01*
X11965697Y-16563659D02*
X11975221Y-16573183D01*
X11975221Y-16573183D02*
X11994268Y-16582707D01*
X11994268Y-16582707D02*
X12032364Y-16582707D01*
X12032364Y-16582707D02*
X12051411Y-16573183D01*
X12051411Y-16573183D02*
X12060935Y-16563659D01*
X12060935Y-16563659D02*
X12070459Y-16544611D01*
X12070459Y-16544611D02*
X12070459Y-16506516D01*
X12070459Y-16506516D02*
X12060935Y-16487469D01*
X12060935Y-16487469D02*
X12051411Y-16477945D01*
X12051411Y-16477945D02*
X12032364Y-16468421D01*
X12308554Y-16582707D02*
X12308554Y-16382707D01*
X12394268Y-16582707D02*
X12394268Y-16477945D01*
X12394268Y-16477945D02*
X12384745Y-16458897D01*
X12384745Y-16458897D02*
X12365697Y-16449373D01*
X12365697Y-16449373D02*
X12337126Y-16449373D01*
X12337126Y-16449373D02*
X12318078Y-16458897D01*
X12318078Y-16458897D02*
X12308554Y-16468421D01*
X12518078Y-16582707D02*
X12499030Y-16573183D01*
X12499030Y-16573183D02*
X12489507Y-16563659D01*
X12489507Y-16563659D02*
X12479983Y-16544611D01*
X12479983Y-16544611D02*
X12479983Y-16487469D01*
X12479983Y-16487469D02*
X12489507Y-16468421D01*
X12489507Y-16468421D02*
X12499030Y-16458897D01*
X12499030Y-16458897D02*
X12518078Y-16449373D01*
X12518078Y-16449373D02*
X12546649Y-16449373D01*
X12546649Y-16449373D02*
X12565697Y-16458897D01*
X12565697Y-16458897D02*
X12575221Y-16468421D01*
X12575221Y-16468421D02*
X12584745Y-16487469D01*
X12584745Y-16487469D02*
X12584745Y-16544611D01*
X12584745Y-16544611D02*
X12575221Y-16563659D01*
X12575221Y-16563659D02*
X12565697Y-16573183D01*
X12565697Y-16573183D02*
X12546649Y-16582707D01*
X12546649Y-16582707D02*
X12518078Y-16582707D01*
X12699030Y-16582707D02*
X12679983Y-16573183D01*
X12679983Y-16573183D02*
X12670459Y-16554135D01*
X12670459Y-16554135D02*
X12670459Y-16382707D01*
X12851411Y-16573183D02*
X12832364Y-16582707D01*
X12832364Y-16582707D02*
X12794268Y-16582707D01*
X12794268Y-16582707D02*
X12775221Y-16573183D01*
X12775221Y-16573183D02*
X12765697Y-16554135D01*
X12765697Y-16554135D02*
X12765697Y-16477945D01*
X12765697Y-16477945D02*
X12775221Y-16458897D01*
X12775221Y-16458897D02*
X12794268Y-16449373D01*
X12794268Y-16449373D02*
X12832364Y-16449373D01*
X12832364Y-16449373D02*
X12851411Y-16458897D01*
X12851411Y-16458897D02*
X12860935Y-16477945D01*
X12860935Y-16477945D02*
X12860935Y-16496992D01*
X12860935Y-16496992D02*
X12765697Y-16516040D01*
X12937126Y-16573183D02*
X12956173Y-16582707D01*
X12956173Y-16582707D02*
X12994268Y-16582707D01*
X12994268Y-16582707D02*
X13013316Y-16573183D01*
X13013316Y-16573183D02*
X13022840Y-16554135D01*
X13022840Y-16554135D02*
X13022840Y-16544611D01*
X13022840Y-16544611D02*
X13013316Y-16525564D01*
X13013316Y-16525564D02*
X12994268Y-16516040D01*
X12994268Y-16516040D02*
X12965697Y-16516040D01*
X12965697Y-16516040D02*
X12946649Y-16506516D01*
X12946649Y-16506516D02*
X12937126Y-16487469D01*
X12937126Y-16487469D02*
X12937126Y-16477945D01*
X12937126Y-16477945D02*
X12946649Y-16458897D01*
X12946649Y-16458897D02*
X12965697Y-16449373D01*
X12965697Y-16449373D02*
X12994268Y-16449373D01*
X12994268Y-16449373D02*
X13013316Y-16458897D01*
X13089507Y-16658897D02*
X13099030Y-16649373D01*
X13099030Y-16649373D02*
X13118078Y-16620802D01*
X13118078Y-16620802D02*
X13127602Y-16601754D01*
X13127602Y-16601754D02*
X13137126Y-16573183D01*
X13137126Y-16573183D02*
X13146649Y-16525564D01*
X13146649Y-16525564D02*
X13146649Y-16487469D01*
X13146649Y-16487469D02*
X13137126Y-16439849D01*
X13137126Y-16439849D02*
X13127602Y-16411278D01*
X13127602Y-16411278D02*
X13118078Y-16392230D01*
X13118078Y-16392230D02*
X13099030Y-16363659D01*
X13099030Y-16363659D02*
X13089507Y-16354135D01*
X13451411Y-16658897D02*
X13441888Y-16649373D01*
X13441888Y-16649373D02*
X13422840Y-16620802D01*
X13422840Y-16620802D02*
X13413316Y-16601754D01*
X13413316Y-16601754D02*
X13403792Y-16573183D01*
X13403792Y-16573183D02*
X13394269Y-16525564D01*
X13394269Y-16525564D02*
X13394269Y-16487469D01*
X13394269Y-16487469D02*
X13403792Y-16439849D01*
X13403792Y-16439849D02*
X13413316Y-16411278D01*
X13413316Y-16411278D02*
X13422840Y-16392230D01*
X13422840Y-16392230D02*
X13441888Y-16363659D01*
X13441888Y-16363659D02*
X13451411Y-16354135D01*
X13527602Y-16449373D02*
X13527602Y-16582707D01*
X13527602Y-16468421D02*
X13537126Y-16458897D01*
X13537126Y-16458897D02*
X13556173Y-16449373D01*
X13556173Y-16449373D02*
X13584745Y-16449373D01*
X13584745Y-16449373D02*
X13603792Y-16458897D01*
X13603792Y-16458897D02*
X13613316Y-16477945D01*
X13613316Y-16477945D02*
X13613316Y-16582707D01*
X13737126Y-16582707D02*
X13718078Y-16573183D01*
X13718078Y-16573183D02*
X13708554Y-16563659D01*
X13708554Y-16563659D02*
X13699030Y-16544611D01*
X13699030Y-16544611D02*
X13699030Y-16487469D01*
X13699030Y-16487469D02*
X13708554Y-16468421D01*
X13708554Y-16468421D02*
X13718078Y-16458897D01*
X13718078Y-16458897D02*
X13737126Y-16449373D01*
X13737126Y-16449373D02*
X13765697Y-16449373D01*
X13765697Y-16449373D02*
X13784745Y-16458897D01*
X13784745Y-16458897D02*
X13794269Y-16468421D01*
X13794269Y-16468421D02*
X13803792Y-16487469D01*
X13803792Y-16487469D02*
X13803792Y-16544611D01*
X13803792Y-16544611D02*
X13794269Y-16563659D01*
X13794269Y-16563659D02*
X13784745Y-16573183D01*
X13784745Y-16573183D02*
X13765697Y-16582707D01*
X13765697Y-16582707D02*
X13737126Y-16582707D01*
X13860935Y-16449373D02*
X13937126Y-16449373D01*
X13889507Y-16382707D02*
X13889507Y-16554135D01*
X13889507Y-16554135D02*
X13899030Y-16573183D01*
X13899030Y-16573183D02*
X13918078Y-16582707D01*
X13918078Y-16582707D02*
X13937126Y-16582707D01*
X14156173Y-16449373D02*
X14156173Y-16649373D01*
X14156173Y-16458897D02*
X14175221Y-16449373D01*
X14175221Y-16449373D02*
X14213316Y-16449373D01*
X14213316Y-16449373D02*
X14232364Y-16458897D01*
X14232364Y-16458897D02*
X14241888Y-16468421D01*
X14241888Y-16468421D02*
X14251411Y-16487469D01*
X14251411Y-16487469D02*
X14251411Y-16544611D01*
X14251411Y-16544611D02*
X14241888Y-16563659D01*
X14241888Y-16563659D02*
X14232364Y-16573183D01*
X14232364Y-16573183D02*
X14213316Y-16582707D01*
X14213316Y-16582707D02*
X14175221Y-16582707D01*
X14175221Y-16582707D02*
X14156173Y-16573183D01*
X14365697Y-16582707D02*
X14346650Y-16573183D01*
X14346650Y-16573183D02*
X14337126Y-16554135D01*
X14337126Y-16554135D02*
X14337126Y-16382707D01*
X14527602Y-16582707D02*
X14527602Y-16477945D01*
X14527602Y-16477945D02*
X14518078Y-16458897D01*
X14518078Y-16458897D02*
X14499031Y-16449373D01*
X14499031Y-16449373D02*
X14460935Y-16449373D01*
X14460935Y-16449373D02*
X14441888Y-16458897D01*
X14527602Y-16573183D02*
X14508554Y-16582707D01*
X14508554Y-16582707D02*
X14460935Y-16582707D01*
X14460935Y-16582707D02*
X14441888Y-16573183D01*
X14441888Y-16573183D02*
X14432364Y-16554135D01*
X14432364Y-16554135D02*
X14432364Y-16535088D01*
X14432364Y-16535088D02*
X14441888Y-16516040D01*
X14441888Y-16516040D02*
X14460935Y-16506516D01*
X14460935Y-16506516D02*
X14508554Y-16506516D01*
X14508554Y-16506516D02*
X14527602Y-16496992D01*
X14594269Y-16449373D02*
X14670459Y-16449373D01*
X14622840Y-16382707D02*
X14622840Y-16554135D01*
X14622840Y-16554135D02*
X14632364Y-16573183D01*
X14632364Y-16573183D02*
X14651411Y-16582707D01*
X14651411Y-16582707D02*
X14670459Y-16582707D01*
X14813316Y-16573183D02*
X14794269Y-16582707D01*
X14794269Y-16582707D02*
X14756173Y-16582707D01*
X14756173Y-16582707D02*
X14737126Y-16573183D01*
X14737126Y-16573183D02*
X14727602Y-16554135D01*
X14727602Y-16554135D02*
X14727602Y-16477945D01*
X14727602Y-16477945D02*
X14737126Y-16458897D01*
X14737126Y-16458897D02*
X14756173Y-16449373D01*
X14756173Y-16449373D02*
X14794269Y-16449373D01*
X14794269Y-16449373D02*
X14813316Y-16458897D01*
X14813316Y-16458897D02*
X14822840Y-16477945D01*
X14822840Y-16477945D02*
X14822840Y-16496992D01*
X14822840Y-16496992D02*
X14727602Y-16516040D01*
X14994269Y-16582707D02*
X14994269Y-16382707D01*
X14994269Y-16573183D02*
X14975221Y-16582707D01*
X14975221Y-16582707D02*
X14937126Y-16582707D01*
X14937126Y-16582707D02*
X14918078Y-16573183D01*
X14918078Y-16573183D02*
X14908554Y-16563659D01*
X14908554Y-16563659D02*
X14899031Y-16544611D01*
X14899031Y-16544611D02*
X14899031Y-16487469D01*
X14899031Y-16487469D02*
X14908554Y-16468421D01*
X14908554Y-16468421D02*
X14918078Y-16458897D01*
X14918078Y-16458897D02*
X14937126Y-16449373D01*
X14937126Y-16449373D02*
X14975221Y-16449373D01*
X14975221Y-16449373D02*
X14994269Y-16458897D01*
X15070459Y-16658897D02*
X15079983Y-16649373D01*
X15079983Y-16649373D02*
X15099031Y-16620802D01*
X15099031Y-16620802D02*
X15108554Y-16601754D01*
X15108554Y-16601754D02*
X15118078Y-16573183D01*
X15118078Y-16573183D02*
X15127602Y-16525564D01*
X15127602Y-16525564D02*
X15127602Y-16487469D01*
X15127602Y-16487469D02*
X15118078Y-16439849D01*
X15118078Y-16439849D02*
X15108554Y-16411278D01*
X15108554Y-16411278D02*
X15099031Y-16392230D01*
X15099031Y-16392230D02*
X15079983Y-16363659D01*
X15079983Y-16363659D02*
X15070459Y-16354135D01*
M02*
