M48
; DRILL file {KiCad 7.0.2} date Thu Oct 26 02:33:05 2023
; FORMAT={-:-/ absolute / inch / decimal}
; #@! TF.CreationDate,2023-10-26T02:33:05+11:00
; #@! TF.GenerationSoftware,Kicad,Pcbnew,7.0.2
; #@! TF.FileFunction,NonPlated,1,2,NPTH
FMAT,2
INCH
; #@! TA.AperFunction,NonPlated,NPTH,ComponentDrill
T1C0.0354
; #@! TA.AperFunction,NonPlated,NPTH,ComponentDrill
T2C0.0670
; #@! TA.AperFunction,NonPlated,NPTH,ComponentDrill
T3C0.1181
; #@! TA.AperFunction,NonPlated,NPTH,ComponentDrill
T4C0.1260
; #@! TA.AperFunction,NonPlated,NPTH,ComponentDrill
T5C0.1570
%
G90
G05
T1
X7.8978Y-4.6457
X7.8978Y-4.7638
T2
X3.3822Y-2.9593
X3.3822Y-3.7093
X3.3822Y-4.4593
X3.7822Y-2.9593
X3.7822Y-3.7093
X3.7822Y-4.4593
X4.1322Y-2.3968
X4.1322Y-3.1468
X4.1322Y-3.8968
X4.5322Y-2.3968
X4.5322Y-3.1468
X4.5322Y-3.8968
X4.8822Y-2.2093
X4.8822Y-2.9593
X4.8822Y-3.7093
X5.2822Y-2.2093
X5.2822Y-2.9593
X5.2822Y-3.7093
X5.6322Y-2.3968
X5.6322Y-3.1468
X5.6322Y-3.8968
X5.6322Y-5.0218
X6.0322Y-2.3968
X6.0322Y-3.1468
X6.0322Y-3.8968
X6.0322Y-5.0218
X6.3822Y-2.3968
X6.3822Y-3.1468
X6.3822Y-3.8968
X6.5972Y-5.072
X6.7822Y-2.3968
X6.7822Y-3.1468
X6.7822Y-3.8968
X6.9836Y-5.1755
X7.3217Y-5.2661
X7.7081Y-5.3696
T3
X3.4322Y-2.8593
X3.4322Y-3.6093
X3.4322Y-4.3593
X3.4822Y-2.7593
X3.4822Y-3.5093
X3.4822Y-4.2593
X3.6822Y-2.7593
X3.6822Y-3.5093
X3.6822Y-4.2593
X3.7322Y-2.8593
X3.7322Y-3.6093
X3.7322Y-4.3593
X4.1822Y-2.2968
X4.1822Y-3.0468
X4.1822Y-3.7968
X4.2322Y-2.1968
X4.2322Y-2.9468
X4.2322Y-3.6968
X4.4322Y-2.1968
X4.4322Y-2.9468
X4.4322Y-3.6968
X4.4822Y-2.2968
X4.4822Y-3.0468
X4.4822Y-3.7968
X4.9322Y-2.1093
X4.9322Y-2.8593
X4.9322Y-3.6093
X4.9822Y-2.0093
X4.9822Y-2.7593
X4.9822Y-3.5093
X5.1822Y-2.0093
X5.1822Y-2.7593
X5.1822Y-3.5093
X5.2322Y-2.1093
X5.2322Y-2.8593
X5.2322Y-3.6093
X5.6822Y-2.2968
X5.6822Y-3.0468
X5.6822Y-3.7968
X5.6822Y-4.9218
X5.7322Y-2.1968
X5.7322Y-2.9468
X5.7322Y-3.6968
X5.7322Y-4.8218
X5.9322Y-2.1968
X5.9322Y-2.9468
X5.9322Y-3.6968
X5.9322Y-4.8218
X5.9822Y-2.2968
X5.9822Y-3.0468
X5.9822Y-3.7968
X5.9822Y-4.9218
X6.4322Y-2.2968
X6.4322Y-3.0468
X6.4322Y-3.7968
X6.4822Y-2.1968
X6.4822Y-2.9468
X6.4822Y-3.6968
X6.6714Y-4.9883
X6.6822Y-2.1968
X6.6822Y-2.9468
X6.6822Y-3.6968
X6.7322Y-2.2968
X6.7322Y-3.0468
X6.7322Y-3.7968
X6.7456Y-4.9047
X6.9388Y-4.9565
X6.9612Y-5.066
X7.3959Y-5.1825
X7.4701Y-5.0988
X7.6632Y-5.1506
X7.6857Y-5.2601
T4
X3.9436Y-3.3343
X3.9436Y-4.0843
X6.1936Y-2.7718
X6.1936Y-3.5218
X7.5Y-4.7008
T5
X3.5822Y-2.9593
X3.5822Y-3.7093
X3.5822Y-4.4593
X4.3322Y-2.3968
X4.3322Y-3.1468
X4.3322Y-3.8968
X5.0822Y-2.2093
X5.0822Y-2.9593
X5.0822Y-3.7093
X5.8322Y-2.3968
X5.8322Y-3.1468
X5.8322Y-3.8968
X5.8322Y-5.0218
X6.5822Y-2.3968
X6.5822Y-3.1468
X6.5822Y-3.8968
X6.7904Y-5.1238
X7.5149Y-5.3179
T0
M30
