%TF.GenerationSoftware,KiCad,Pcbnew,7.0.2*%
%TF.CreationDate,2023-10-26T02:33:03+11:00*%
%TF.ProjectId,cybr36,63796272-3336-42e6-9b69-6361645f7063,rev?*%
%TF.SameCoordinates,Original*%
%TF.FileFunction,Legend,Top*%
%TF.FilePolarity,Positive*%
%FSLAX46Y46*%
G04 Gerber Fmt 4.6, Leading zero omitted, Abs format (unit mm)*
G04 Created by KiCad (PCBNEW 7.0.2) date 2023-10-26 02:33:03*
%MOMM*%
%LPD*%
G01*
G04 APERTURE LIST*
%ADD10C,0.300000*%
%ADD11C,0.150000*%
%ADD12C,0.120000*%
%ADD13C,1.524000*%
G04 APERTURE END LIST*
D10*
X83985714Y-134916428D02*
X83985714Y-135987857D01*
X83985714Y-135987857D02*
X83914285Y-136202142D01*
X83914285Y-136202142D02*
X83771428Y-136345000D01*
X83771428Y-136345000D02*
X83557142Y-136416428D01*
X83557142Y-136416428D02*
X83414285Y-136416428D01*
X85414285Y-136416428D02*
X84699999Y-136416428D01*
X84699999Y-136416428D02*
X84699999Y-134916428D01*
X86771428Y-136273571D02*
X86700000Y-136345000D01*
X86700000Y-136345000D02*
X86485714Y-136416428D01*
X86485714Y-136416428D02*
X86342857Y-136416428D01*
X86342857Y-136416428D02*
X86128571Y-136345000D01*
X86128571Y-136345000D02*
X85985714Y-136202142D01*
X85985714Y-136202142D02*
X85914285Y-136059285D01*
X85914285Y-136059285D02*
X85842857Y-135773571D01*
X85842857Y-135773571D02*
X85842857Y-135559285D01*
X85842857Y-135559285D02*
X85914285Y-135273571D01*
X85914285Y-135273571D02*
X85985714Y-135130714D01*
X85985714Y-135130714D02*
X86128571Y-134987857D01*
X86128571Y-134987857D02*
X86342857Y-134916428D01*
X86342857Y-134916428D02*
X86485714Y-134916428D01*
X86485714Y-134916428D02*
X86700000Y-134987857D01*
X86700000Y-134987857D02*
X86771428Y-135059285D01*
X87842857Y-134916428D02*
X87842857Y-135987857D01*
X87842857Y-135987857D02*
X87771428Y-136202142D01*
X87771428Y-136202142D02*
X87628571Y-136345000D01*
X87628571Y-136345000D02*
X87414285Y-136416428D01*
X87414285Y-136416428D02*
X87271428Y-136416428D01*
X89271428Y-136416428D02*
X88557142Y-136416428D01*
X88557142Y-136416428D02*
X88557142Y-134916428D01*
X90628571Y-136273571D02*
X90557143Y-136345000D01*
X90557143Y-136345000D02*
X90342857Y-136416428D01*
X90342857Y-136416428D02*
X90200000Y-136416428D01*
X90200000Y-136416428D02*
X89985714Y-136345000D01*
X89985714Y-136345000D02*
X89842857Y-136202142D01*
X89842857Y-136202142D02*
X89771428Y-136059285D01*
X89771428Y-136059285D02*
X89700000Y-135773571D01*
X89700000Y-135773571D02*
X89700000Y-135559285D01*
X89700000Y-135559285D02*
X89771428Y-135273571D01*
X89771428Y-135273571D02*
X89842857Y-135130714D01*
X89842857Y-135130714D02*
X89985714Y-134987857D01*
X89985714Y-134987857D02*
X90200000Y-134916428D01*
X90200000Y-134916428D02*
X90342857Y-134916428D01*
X90342857Y-134916428D02*
X90557143Y-134987857D01*
X90557143Y-134987857D02*
X90628571Y-135059285D01*
X91700000Y-134916428D02*
X91700000Y-135987857D01*
X91700000Y-135987857D02*
X91628571Y-136202142D01*
X91628571Y-136202142D02*
X91485714Y-136345000D01*
X91485714Y-136345000D02*
X91271428Y-136416428D01*
X91271428Y-136416428D02*
X91128571Y-136416428D01*
X93128571Y-136416428D02*
X92414285Y-136416428D01*
X92414285Y-136416428D02*
X92414285Y-134916428D01*
X94485714Y-136273571D02*
X94414286Y-136345000D01*
X94414286Y-136345000D02*
X94200000Y-136416428D01*
X94200000Y-136416428D02*
X94057143Y-136416428D01*
X94057143Y-136416428D02*
X93842857Y-136345000D01*
X93842857Y-136345000D02*
X93700000Y-136202142D01*
X93700000Y-136202142D02*
X93628571Y-136059285D01*
X93628571Y-136059285D02*
X93557143Y-135773571D01*
X93557143Y-135773571D02*
X93557143Y-135559285D01*
X93557143Y-135559285D02*
X93628571Y-135273571D01*
X93628571Y-135273571D02*
X93700000Y-135130714D01*
X93700000Y-135130714D02*
X93842857Y-134987857D01*
X93842857Y-134987857D02*
X94057143Y-134916428D01*
X94057143Y-134916428D02*
X94200000Y-134916428D01*
X94200000Y-134916428D02*
X94414286Y-134987857D01*
X94414286Y-134987857D02*
X94485714Y-135059285D01*
D11*
%TO.C,U1*%
X181666400Y-84582000D02*
X181666400Y-54102000D01*
X184206400Y-54102000D02*
X184206400Y-84582000D01*
X184206400Y-84582000D02*
X181666400Y-84582000D01*
X196886400Y-54102000D02*
X199426400Y-54102000D01*
X199426400Y-84582000D02*
X196886400Y-84582000D01*
X199426400Y-54102000D02*
X199426400Y-84582000D01*
X181666400Y-54102000D02*
X184206400Y-54102000D01*
X196886400Y-84582000D02*
X196886400Y-54102000D01*
D12*
%TO.C,D18*%
X194500000Y-106990000D02*
X192500000Y-106990000D01*
X194500000Y-106990000D02*
X194500000Y-111000000D01*
X192500000Y-106990000D02*
X192500000Y-111000000D01*
%TO.C,D4*%
X186500000Y-88990000D02*
X186500000Y-93000000D01*
X188500000Y-88990000D02*
X188500000Y-93000000D01*
X188500000Y-88990000D02*
X186500000Y-88990000D01*
%TO.C,D16*%
X197500000Y-94990000D02*
X195500000Y-94990000D01*
X197500000Y-94990000D02*
X197500000Y-99000000D01*
X195500000Y-94990000D02*
X195500000Y-99000000D01*
%TO.C,D13*%
X194500000Y-100990000D02*
X192500000Y-100990000D01*
X194500000Y-100990000D02*
X194500000Y-105000000D01*
X192500000Y-100990000D02*
X192500000Y-105000000D01*
%TO.C,D9*%
X191500000Y-100990000D02*
X189500000Y-100990000D01*
X191500000Y-100990000D02*
X191500000Y-105000000D01*
X189500000Y-100990000D02*
X189500000Y-105000000D01*
%TO.C,D15*%
X195500000Y-88990000D02*
X195500000Y-93000000D01*
X197500000Y-88990000D02*
X197500000Y-93000000D01*
X197500000Y-88990000D02*
X195500000Y-88990000D01*
%TO.C,D1*%
X185500000Y-88990000D02*
X183500000Y-88990000D01*
X185500000Y-88990000D02*
X185500000Y-93000000D01*
X183500000Y-88990000D02*
X183500000Y-93000000D01*
%TO.C,D3*%
X185500000Y-100990000D02*
X183500000Y-100990000D01*
X185500000Y-100990000D02*
X185500000Y-105000000D01*
X183500000Y-100990000D02*
X183500000Y-105000000D01*
%TO.C,D8*%
X191500000Y-94990000D02*
X189500000Y-94990000D01*
X191500000Y-94990000D02*
X191500000Y-99000000D01*
X189500000Y-94990000D02*
X189500000Y-99000000D01*
%TO.C,D7*%
X189500000Y-88990000D02*
X189500000Y-93000000D01*
X191500000Y-88990000D02*
X191500000Y-93000000D01*
X191500000Y-88990000D02*
X189500000Y-88990000D01*
%TO.C,D10*%
X188500000Y-106990000D02*
X186500000Y-106990000D01*
X188500000Y-106990000D02*
X188500000Y-111000000D01*
X186500000Y-106990000D02*
X186500000Y-111000000D01*
%TO.C,D17*%
X197500000Y-100990000D02*
X195500000Y-100990000D01*
X197500000Y-100990000D02*
X197500000Y-105000000D01*
X195500000Y-100990000D02*
X195500000Y-105000000D01*
%TO.C,D2*%
X185500000Y-94990000D02*
X183500000Y-94990000D01*
X185500000Y-94990000D02*
X185500000Y-99000000D01*
X183500000Y-94990000D02*
X183500000Y-99000000D01*
%TO.C,D12*%
X194500000Y-94990000D02*
X192500000Y-94990000D01*
X194500000Y-94990000D02*
X194500000Y-99000000D01*
X192500000Y-94990000D02*
X192500000Y-99000000D01*
%TO.C,D6*%
X188500000Y-100990000D02*
X186500000Y-100990000D01*
X188500000Y-100990000D02*
X188500000Y-105000000D01*
X186500000Y-100990000D02*
X186500000Y-105000000D01*
%TO.C,D11*%
X192500000Y-88990000D02*
X192500000Y-93000000D01*
X194500000Y-88990000D02*
X194500000Y-93000000D01*
X194500000Y-88990000D02*
X192500000Y-88990000D01*
%TO.C,D14*%
X191500000Y-106990000D02*
X189500000Y-106990000D01*
X191500000Y-106990000D02*
X191500000Y-111000000D01*
X189500000Y-106990000D02*
X189500000Y-111000000D01*
%TO.C,D5*%
X188500000Y-94990000D02*
X186500000Y-94990000D01*
X188500000Y-94990000D02*
X188500000Y-99000000D01*
X186500000Y-94990000D02*
X186500000Y-99000000D01*
%TD*%
D13*
%TO.C,U1*%
X181610000Y-56642000D03*
X198156400Y-55372000D03*
X181610000Y-59182000D03*
X198156400Y-57912000D03*
X198156400Y-60452000D03*
X181610000Y-61722000D03*
X198156400Y-62992000D03*
X181610000Y-64262000D03*
X181610000Y-66802000D03*
X198156400Y-65532000D03*
X198156400Y-68072000D03*
X181610000Y-69342000D03*
X181610000Y-71882000D03*
X198156400Y-70612000D03*
X181610000Y-74422000D03*
X198156400Y-73152000D03*
X198156400Y-75692000D03*
X181610000Y-76962000D03*
X181610000Y-79502000D03*
X198156400Y-78232000D03*
X181610000Y-82042000D03*
X198156400Y-80772000D03*
X181610000Y-84582000D03*
X198156400Y-83312000D03*
X196850000Y-84582000D03*
X182936400Y-83312000D03*
X196850000Y-82042000D03*
X182936400Y-80772000D03*
X182936400Y-78232000D03*
X196850000Y-79502000D03*
X182936400Y-75692000D03*
X196850000Y-76962000D03*
X196850000Y-74422000D03*
X182936400Y-73152000D03*
X182936400Y-70612000D03*
X196850000Y-71882000D03*
X196850000Y-69342000D03*
X182936400Y-68072000D03*
X182936400Y-65532000D03*
X196850000Y-66802000D03*
X196850000Y-64262000D03*
X182936400Y-62992000D03*
X196850000Y-61722000D03*
X182936400Y-60452000D03*
X182936400Y-57912000D03*
X196850000Y-59182000D03*
X196850000Y-56642000D03*
X182936400Y-55372000D03*
%TD*%
M02*
