%TF.GenerationSoftware,KiCad,Pcbnew,7.0.2*%
%TF.CreationDate,2023-10-26T02:33:05+11:00*%
%TF.ProjectId,cybr36,63796272-3336-42e6-9b69-6361645f7063,rev?*%
%TF.SameCoordinates,Original*%
%TF.FileFunction,Drillmap*%
%TF.FilePolarity,Positive*%
%FSLAX45Y45*%
G04 Gerber Fmt 4.5, Leading zero omitted, Abs format (unit mm)*
G04 Created by KiCad (PCBNEW 7.0.2) date 2023-10-26 02:33:05*
%MOMM*%
%LPD*%
G01*
G04 APERTURE LIST*
%ADD10C,0.263999*%
%ADD11C,0.200000*%
%ADD12C,0.040000*%
%ADD13C,0.050000*%
%ADD14C,0.081280*%
%ADD15C,0.100000*%
G04 APERTURE END LIST*
D10*
X16123192Y-13711760D02*
X16090433Y-13709074D01*
X19633181Y-14638269D02*
X16284754Y-13741156D01*
X13882554Y-5080524D02*
X13886286Y-5085835D01*
X8160395Y-13625255D02*
X8158072Y-13619234D01*
X8243278Y-5145368D02*
X8249555Y-5143585D01*
X19679196Y-14642287D02*
X19672721Y-14642706D01*
X20252635Y-5265152D02*
X20252798Y-5271712D01*
X8180285Y-13658470D02*
X8176284Y-13653335D01*
X8219559Y-5155387D02*
X8225263Y-5152466D01*
X12060373Y-4667110D02*
X12066690Y-4665685D01*
X8198777Y-13676962D02*
X8193827Y-13672697D01*
X20251348Y-5252176D02*
X20252151Y-5258636D01*
X11872640Y-5131674D02*
X11878660Y-5129351D01*
X12013913Y-4689079D02*
X12019223Y-4685347D01*
X19749335Y-14614376D02*
X19744248Y-14618187D01*
X20230571Y-5198316D02*
X20234030Y-5203790D01*
X8275810Y-5139592D02*
X8282617Y-5139420D01*
X13857761Y-4769483D02*
X13858877Y-4775877D01*
X8150325Y-5271712D02*
X8150497Y-5264905D01*
X8151008Y-5258186D02*
X8151850Y-5251565D01*
X8256690Y-13704356D02*
X8250373Y-13702931D01*
X13862893Y-5033058D02*
X13864317Y-5039375D01*
X8154315Y-13606875D02*
X8152891Y-13600558D01*
X19738990Y-14621748D02*
X19733569Y-14625052D01*
X11960326Y-5007129D02*
X11960326Y-4795412D01*
X11847570Y-5137971D02*
X11853964Y-5136855D01*
X20242727Y-5221086D02*
X20245051Y-5227107D01*
X13734594Y-4663283D02*
X13741110Y-4663767D01*
X20152751Y-5143410D02*
X20158980Y-5145138D01*
X20204346Y-5169379D02*
X20209296Y-5173644D01*
X11986286Y-4716706D02*
X11990287Y-4711571D01*
X8282617Y-5139420D02*
X11828034Y-5139420D01*
X16220681Y-13726219D02*
X16188342Y-13720337D01*
X11960164Y-5013689D02*
X11960326Y-5007129D01*
X8250373Y-13702931D02*
X8244144Y-13701203D01*
X13816825Y-4697344D02*
X13821578Y-4701867D01*
X13948013Y-5131674D02*
X13954144Y-5133702D01*
X8269545Y-13706273D02*
X8263084Y-13705471D01*
X8225263Y-5152466D02*
X8231123Y-5149816D01*
X13821578Y-4701867D02*
X13826102Y-4706621D01*
X11938100Y-5080525D02*
X11941559Y-5075051D01*
X12066690Y-4665685D02*
X12073084Y-4664570D01*
X13801430Y-4685347D02*
X13806740Y-4689079D01*
X13960372Y-5135431D02*
X13966689Y-5136855D01*
X13919223Y-5117194D02*
X13924697Y-5120654D01*
X8165910Y-13636924D02*
X8163010Y-13631155D01*
X13941993Y-5129351D02*
X13948013Y-5131674D01*
X20233494Y-12900874D02*
X20226552Y-12933020D01*
X8214697Y-13688154D02*
X8209223Y-13684694D01*
X11860281Y-5135431D02*
X11866510Y-5133702D01*
X8262471Y-5140944D02*
X8269091Y-5140103D01*
X13753964Y-4665686D02*
X13760280Y-4667110D01*
X8276060Y-13706758D02*
X8269545Y-13706273D01*
X8282617Y-5139420D02*
X8282617Y-5139420D01*
X13830366Y-4711571D02*
X13834367Y-4716706D01*
X11961777Y-4775877D02*
X11962892Y-4769483D01*
X13879094Y-5075051D02*
X13882554Y-5080524D01*
X8172919Y-5197746D02*
X8176607Y-5192560D01*
X11901430Y-5117194D02*
X11906740Y-5113462D01*
X20214050Y-5178167D02*
X20218573Y-5182921D01*
X19763465Y-14601500D02*
X19758954Y-14606027D01*
X20245051Y-5227107D02*
X20247079Y-5233237D01*
X11964317Y-4763166D02*
X11966045Y-4756937D01*
X8176284Y-13653335D02*
X8172552Y-13648025D01*
X13986059Y-5139258D02*
X13992619Y-5139420D01*
X19666195Y-14642803D02*
X19659630Y-14642573D01*
X13903828Y-5105197D02*
X13908778Y-5109461D01*
X13864317Y-5039375D02*
X13866046Y-5045604D01*
X13856336Y-4763166D02*
X13857761Y-4769483D01*
X8158072Y-13619234D02*
X8156044Y-13613104D01*
X13860326Y-4795412D02*
X13860328Y-5007129D01*
X13924697Y-5120654D02*
X13930324Y-5123836D01*
X11957761Y-5033058D02*
X11958877Y-5026665D01*
X13811875Y-4693079D02*
X13816825Y-4697344D01*
X11952580Y-5051734D02*
X11954608Y-5045604D01*
X19775682Y-14586582D02*
X19771839Y-14591772D01*
X20177032Y-5152104D02*
X20182800Y-5155005D01*
X19727997Y-14628094D02*
X19722285Y-14630868D01*
X16284754Y-13741156D02*
X16252827Y-13733160D01*
X11956337Y-5039375D02*
X11957761Y-5033058D01*
X8189073Y-13668174D02*
X8184550Y-13663420D01*
X19795210Y-14544724D02*
X19793281Y-14551255D01*
X16155837Y-13715516D02*
X16123192Y-13711760D01*
X12024697Y-4681887D02*
X12030324Y-4678705D01*
X19646423Y-14641110D02*
X19639802Y-14639865D01*
X11970397Y-4744786D02*
X11973012Y-4738886D01*
X20252798Y-5271712D02*
X20252796Y-12704871D01*
X8237131Y-5147448D02*
X8243278Y-5145368D01*
X12086059Y-4663283D02*
X12092619Y-4663120D01*
X13826102Y-4706621D02*
X13830366Y-4711571D01*
X13875912Y-5069424D02*
X13879094Y-5075051D01*
X11944742Y-5069424D02*
X11947642Y-5063655D01*
X13894551Y-5095920D02*
X13899075Y-5100673D01*
X8244144Y-13701203D02*
X8238014Y-13699175D01*
X20247955Y-12803386D02*
X20244199Y-12836031D01*
X11921579Y-5100673D02*
X11926103Y-5095920D01*
X19691959Y-14640512D02*
X19685612Y-14641554D01*
X12019223Y-4685347D02*
X12024697Y-4681887D01*
X8255956Y-5142108D02*
X8262471Y-5140944D01*
X20250643Y-12770627D02*
X20247955Y-12803386D01*
X13850256Y-4744786D02*
X13852579Y-4750807D01*
X8198467Y-5169629D02*
X8203465Y-5165702D01*
X11895956Y-5120654D02*
X11901430Y-5117194D01*
X19716441Y-14633368D02*
X19710476Y-14635588D01*
X20222838Y-5187871D02*
X20226838Y-5193006D01*
X13860490Y-5013689D02*
X13860975Y-5020204D01*
X13858877Y-4775877D02*
X13859679Y-4782337D01*
X11960974Y-4782337D02*
X11961777Y-4775877D01*
X11926103Y-5095920D02*
X11930367Y-5090970D01*
X20252151Y-5258636D02*
X20252635Y-5265152D01*
X11960326Y-4795412D02*
X11960489Y-4788852D01*
X8263084Y-13705471D02*
X8256690Y-13704356D01*
X13847642Y-4738886D02*
X13850256Y-4744786D01*
X13772640Y-4670867D02*
X13778660Y-4673190D01*
X19793281Y-14551255D02*
X19791049Y-14557612D01*
X20209296Y-5173644D02*
X20214050Y-5178167D01*
X20218573Y-5182921D02*
X20222838Y-5187871D01*
X8231123Y-5149816D02*
X8237131Y-5147448D01*
X11934368Y-5085835D02*
X11938100Y-5080525D01*
X11911876Y-5109461D02*
X11916826Y-5105197D01*
X13760280Y-4667110D02*
X13766509Y-4668839D01*
X13979543Y-5138773D02*
X13986059Y-5139258D01*
X13954144Y-5133702D02*
X13960372Y-5135431D01*
X8193667Y-5173787D02*
X8198467Y-5169629D01*
X13854608Y-4756937D02*
X13856336Y-4763166D01*
X11960489Y-4788852D02*
X11960974Y-4782337D01*
X19733569Y-14625052D02*
X19727997Y-14628094D01*
X11841110Y-5138773D02*
X11847570Y-5137971D01*
X11947642Y-5063655D02*
X11950256Y-5057755D01*
X20120504Y-5139420D02*
X20127064Y-5139583D01*
X8166292Y-5208654D02*
X8169478Y-5203114D01*
X11878660Y-5129351D02*
X11884561Y-5126736D01*
X19771839Y-14591772D02*
X19767763Y-14596747D01*
X13861777Y-5026664D02*
X13862893Y-5033058D01*
X13890287Y-5090970D02*
X13894551Y-5095920D01*
X19710476Y-14635588D02*
X19704401Y-14637523D01*
X8169478Y-5203114D02*
X8172919Y-5197746D01*
X8184550Y-13663420D02*
X8180285Y-13658470D01*
X19767763Y-14596747D02*
X19763465Y-14601500D01*
X19782629Y-14575581D02*
X19779282Y-14581183D01*
X8158353Y-5226226D02*
X8160722Y-5220218D01*
X13728034Y-4663120D02*
X13734594Y-4663283D01*
X11975912Y-4733117D02*
X11979094Y-4727490D01*
X11853964Y-5136855D02*
X11860281Y-5135431D01*
X8163010Y-13631155D02*
X8160395Y-13625255D01*
X8226093Y-13694237D02*
X8220324Y-13691336D01*
X13873012Y-5063655D02*
X13875912Y-5069424D01*
X8160722Y-5220218D02*
X8163371Y-5214358D01*
X20182800Y-5155005D02*
X20188427Y-5158187D01*
X8176607Y-5192560D02*
X8180535Y-5187562D01*
X8231993Y-13696851D02*
X8226093Y-13694237D01*
X8156273Y-5232373D02*
X8158353Y-5226226D01*
X13870397Y-5057755D02*
X13873012Y-5063655D01*
X13784560Y-4675804D02*
X13790329Y-4678705D01*
X8269091Y-5140103D02*
X8275810Y-5139592D01*
X20250232Y-5245782D02*
X20251348Y-5252176D01*
X11941559Y-5075051D02*
X11944742Y-5069424D01*
X20252257Y-12737780D02*
X20250643Y-12770627D01*
X13834367Y-4716706D02*
X13838099Y-4722016D01*
X8150497Y-5264905D02*
X8151008Y-5258186D01*
X19698225Y-14639166D02*
X19691959Y-14640512D01*
X13766509Y-4668839D02*
X13772640Y-4670867D01*
X8169093Y-13642551D02*
X8165910Y-13636924D01*
X13790329Y-4678705D02*
X13795956Y-4681887D01*
X20237212Y-5209417D02*
X20240113Y-5215186D01*
X20188427Y-5158187D02*
X20193901Y-5161647D01*
X11979094Y-4727490D02*
X11982554Y-4722016D01*
X20165111Y-5147167D02*
X20171131Y-5149490D01*
X11973012Y-4738886D02*
X11975912Y-4733117D01*
X12054144Y-4668838D02*
X12060373Y-4667110D01*
X8193827Y-13672697D02*
X8189073Y-13668174D01*
X13795956Y-4681887D02*
X13801430Y-4685347D01*
X8180535Y-5187562D02*
X8184693Y-5182762D01*
X20226838Y-5193006D02*
X20230571Y-5198316D01*
X8189073Y-5178168D02*
X8193667Y-5173787D01*
X8282620Y-13706920D02*
X8276060Y-13706758D01*
X13899075Y-5100673D02*
X13903828Y-5105197D01*
X11990287Y-4711571D02*
X11994551Y-4706621D01*
X19744248Y-14618187D02*
X19738990Y-14621748D01*
X8214019Y-5158572D02*
X8219559Y-5155387D01*
X13841559Y-4727490D02*
X13844741Y-4733117D01*
X13966689Y-5136855D02*
X13973083Y-5137971D01*
X12073084Y-4664570D02*
X12079544Y-4663767D01*
X19639802Y-14639865D02*
X19633181Y-14638269D01*
X11959679Y-5020204D02*
X11960164Y-5013689D01*
X20248808Y-5239466D02*
X20250232Y-5245782D01*
X20146434Y-5141986D02*
X20152751Y-5143410D01*
X20133580Y-5140068D02*
X20140040Y-5140870D01*
X11906740Y-5113462D02*
X11911876Y-5109461D01*
X13913913Y-5113462D02*
X13919223Y-5117194D01*
X19722285Y-14630868D02*
X19716441Y-14633368D01*
X12036093Y-4675804D02*
X12041993Y-4673190D01*
X20199211Y-5165379D02*
X20204346Y-5169379D01*
X8150488Y-13581188D02*
X8150325Y-13574628D01*
X19785712Y-14569781D02*
X19782629Y-14575581D01*
X13866046Y-5045604D02*
X13868074Y-5051734D01*
X8208652Y-5162014D02*
X8214019Y-5158572D01*
X11834594Y-5139258D02*
X11841110Y-5138773D01*
X20218554Y-12964946D02*
X19795210Y-14544724D01*
X16090433Y-13709074D02*
X16057586Y-13707459D01*
X11884561Y-5126736D02*
X11890330Y-5123836D01*
X13886286Y-5085835D02*
X13890287Y-5090970D01*
X8209223Y-13684694D02*
X8203912Y-13680962D01*
X13806740Y-4689079D02*
X13811875Y-4693079D01*
X13908778Y-5109461D02*
X13913913Y-5113462D01*
X19653036Y-14642011D02*
X19646423Y-14641110D01*
X19685612Y-14641554D02*
X19679196Y-14642287D01*
X19659630Y-14642573D02*
X19653036Y-14642011D01*
X19672721Y-14642706D02*
X19666195Y-14642803D01*
X13930324Y-5123836D02*
X13936093Y-5126736D01*
X11994551Y-4706621D02*
X11999075Y-4701867D01*
X13747570Y-4664570D02*
X13753964Y-4665686D01*
X12008778Y-4693079D02*
X12013913Y-4689079D01*
X20234030Y-5203790D02*
X20237212Y-5209417D01*
X8150325Y-13574628D02*
X8150325Y-5271712D01*
X8152891Y-13600558D02*
X8151775Y-13594164D01*
X19779282Y-14581183D02*
X19775682Y-14586582D01*
X13778660Y-4673190D02*
X13784560Y-4675804D01*
X11954608Y-5045604D02*
X11956337Y-5039375D01*
X16252827Y-13733160D02*
X16220681Y-13726219D01*
X20158980Y-5145138D02*
X20165111Y-5147167D01*
X20140040Y-5140870D02*
X20146434Y-5141986D01*
X11962892Y-4769483D02*
X11964317Y-4763166D01*
X11930367Y-5090970D02*
X11934368Y-5085835D01*
X8150972Y-13587704D02*
X8150488Y-13581188D01*
X12079544Y-4663767D02*
X12086059Y-4663283D01*
X20244199Y-12836031D02*
X20239378Y-12868536D01*
X19754241Y-14610321D02*
X19749335Y-14614376D01*
X20252796Y-12704871D02*
X20252257Y-12737780D01*
X13868074Y-5051734D02*
X13870397Y-5057755D01*
X12003828Y-4697344D02*
X12008778Y-4693079D01*
X11982554Y-4722016D02*
X11986286Y-4716706D01*
X13838099Y-4722016D02*
X13841559Y-4727490D01*
X20240113Y-5215186D02*
X20242727Y-5221086D01*
X20239378Y-12868536D02*
X20233494Y-12900874D01*
X19791049Y-14557612D02*
X19788523Y-14563789D01*
X13860328Y-5007129D02*
X13860490Y-5013689D01*
X13860975Y-5020204D02*
X13861777Y-5026664D01*
X8203465Y-5165702D02*
X8208652Y-5162014D01*
X11999075Y-4701867D02*
X12003828Y-4697344D01*
X11828034Y-5139420D02*
X11834594Y-5139258D01*
X8172552Y-13648025D02*
X8169093Y-13642551D01*
X16188342Y-13720337D02*
X16155837Y-13715516D01*
X13936093Y-5126736D02*
X13941993Y-5129351D01*
X12048014Y-4670867D02*
X12054144Y-4668838D01*
X20226552Y-12933020D02*
X20218554Y-12964946D01*
X20127064Y-5139583D02*
X20133580Y-5140068D01*
X11950256Y-5057755D02*
X11952580Y-5051734D01*
X13741110Y-4663767D02*
X13747570Y-4664570D01*
X8249555Y-5143585D02*
X8255956Y-5142108D01*
X13852579Y-4750807D02*
X13854608Y-4756937D01*
X11890330Y-5123836D02*
X11895956Y-5120654D01*
X19788523Y-14563789D02*
X19785712Y-14569781D01*
X20171131Y-5149490D02*
X20177032Y-5152104D01*
X8163371Y-5214358D02*
X8166292Y-5208654D01*
X8154490Y-5238650D02*
X8156273Y-5232373D01*
X13860164Y-4788852D02*
X13860326Y-4795412D01*
X8153013Y-5245051D02*
X8154490Y-5238650D01*
X8151775Y-13594164D02*
X8150972Y-13587704D01*
X8151850Y-5251565D02*
X8153013Y-5245051D01*
X19704401Y-14637523D02*
X19698225Y-14639166D01*
X16024677Y-13706920D02*
X8282620Y-13706920D01*
X11966045Y-4756937D02*
X11968074Y-4750807D01*
X16057586Y-13707459D02*
X16024677Y-13706920D01*
X12092619Y-4663120D02*
X13728034Y-4663120D01*
X13973083Y-5137971D02*
X13979543Y-5138773D01*
X8203912Y-13680962D02*
X8198777Y-13676962D01*
X11866510Y-5133702D02*
X11872640Y-5131674D01*
X8156044Y-13613104D02*
X8154315Y-13606875D01*
X13859679Y-4782337D02*
X13860164Y-4788852D01*
X20193901Y-5161647D02*
X20199211Y-5165379D01*
X13992619Y-5139420D02*
X20120504Y-5139420D01*
X11916826Y-5105197D02*
X11921579Y-5100673D01*
X11958877Y-5026665D02*
X11959679Y-5020204D01*
X13844741Y-4733117D02*
X13847642Y-4738886D01*
X8184693Y-5182762D02*
X8189073Y-5178168D01*
X8238014Y-13699175D02*
X8231993Y-13696851D01*
X20247079Y-5233237D02*
X20248808Y-5239466D01*
X12030324Y-4678705D02*
X12036093Y-4675804D01*
X12041993Y-4673190D02*
X12048014Y-4670867D01*
X11968074Y-4750807D02*
X11970397Y-4744786D01*
X19758954Y-14606027D02*
X19754241Y-14610321D01*
X8220324Y-13691336D02*
X8214697Y-13688154D01*
D11*
D12*
X9080000Y-6680000D02*
X9120000Y-6720000D01*
X9120000Y-6680000D02*
X9080000Y-6720000D01*
X9080000Y-6780000D02*
X9120000Y-6820000D01*
X9120000Y-6780000D02*
X9080000Y-6820000D01*
X9080000Y-8580000D02*
X9120000Y-8620000D01*
X9120000Y-8580000D02*
X9080000Y-8620000D01*
X9080000Y-8680000D02*
X9120000Y-8720000D01*
X9120000Y-8680000D02*
X9080000Y-8720000D01*
X9080000Y-10480000D02*
X9120000Y-10520000D01*
X9120000Y-10480000D02*
X9080000Y-10520000D01*
X9080000Y-10580000D02*
X9120000Y-10620000D01*
X9120000Y-10580000D02*
X9080000Y-10620000D01*
X10982653Y-5267438D02*
X11022653Y-5307438D01*
X11022653Y-5267438D02*
X10982653Y-5307438D01*
X10982653Y-5367438D02*
X11022653Y-5407438D01*
X11022653Y-5367438D02*
X10982653Y-5407438D01*
X10982653Y-7167438D02*
X11022653Y-7207438D01*
X11022653Y-7167438D02*
X10982653Y-7207438D01*
X10982653Y-7267438D02*
X11022653Y-7307438D01*
X11022653Y-7267438D02*
X10982653Y-7307438D01*
X10982653Y-9067438D02*
X11022653Y-9107438D01*
X11022653Y-9067438D02*
X10982653Y-9107438D01*
X10982653Y-9167438D02*
X11022653Y-9207438D01*
X11022653Y-9167438D02*
X10982653Y-9207438D01*
X12805000Y-10680000D02*
X12845000Y-10720000D01*
X12845000Y-10680000D02*
X12805000Y-10720000D01*
X12882653Y-4770000D02*
X12922653Y-4810000D01*
X12922653Y-4770000D02*
X12882653Y-4810000D01*
X12882653Y-4870000D02*
X12922653Y-4910000D01*
X12922653Y-4870000D02*
X12882653Y-4910000D01*
X12882653Y-6670000D02*
X12922653Y-6710000D01*
X12922653Y-6670000D02*
X12882653Y-6710000D01*
X12882653Y-6770000D02*
X12922653Y-6810000D01*
X12922653Y-6770000D02*
X12882653Y-6810000D01*
X12882653Y-8570000D02*
X12922653Y-8610000D01*
X12922653Y-8570000D02*
X12882653Y-8610000D01*
X12882653Y-8670000D02*
X12922653Y-8710000D01*
X12922653Y-8670000D02*
X12882653Y-8710000D01*
X14792653Y-5247438D02*
X14832653Y-5287438D01*
X14832653Y-5247438D02*
X14792653Y-5287438D01*
X14792653Y-5347438D02*
X14832653Y-5387438D01*
X14832653Y-5347438D02*
X14792653Y-5387438D01*
X14792653Y-7147438D02*
X14832653Y-7187438D01*
X14832653Y-7147438D02*
X14792653Y-7187438D01*
X14792653Y-7247438D02*
X14832653Y-7287438D01*
X14832653Y-7247438D02*
X14792653Y-7287438D01*
X14792653Y-9047438D02*
X14832653Y-9087438D01*
X14832653Y-9047438D02*
X14792653Y-9087438D01*
X14792653Y-9147438D02*
X14832653Y-9187438D01*
X14832653Y-9147438D02*
X14792653Y-9187438D01*
X14802653Y-11907438D02*
X14842653Y-11947438D01*
X14842653Y-11907438D02*
X14802653Y-11947438D01*
X14802653Y-12007438D02*
X14842653Y-12047438D01*
X14842653Y-12007438D02*
X14802653Y-12047438D01*
X14930000Y-10680000D02*
X14970000Y-10720000D01*
X14970000Y-10680000D02*
X14930000Y-10720000D01*
X16580000Y-10655000D02*
X16620000Y-10695000D01*
X16620000Y-10655000D02*
X16580000Y-10695000D01*
X16702653Y-5247438D02*
X16742653Y-5287438D01*
X16742653Y-5247438D02*
X16702653Y-5287438D01*
X16702653Y-5347438D02*
X16742653Y-5387438D01*
X16742653Y-5347438D02*
X16702653Y-5387438D01*
X16702653Y-7147438D02*
X16742653Y-7187438D01*
X16742653Y-7147438D02*
X16702653Y-7187438D01*
X16702653Y-7247438D02*
X16742653Y-7287438D01*
X16742653Y-7247438D02*
X16702653Y-7287438D01*
X16702653Y-9047438D02*
X16742653Y-9087438D01*
X16742653Y-9047438D02*
X16702653Y-9087438D01*
X16702653Y-9147438D02*
X16742653Y-9187438D01*
X16742653Y-9147438D02*
X16702653Y-9187438D01*
X17416134Y-12292713D02*
X17456134Y-12332713D01*
X17456134Y-12292713D02*
X17416134Y-12332713D01*
X17442016Y-12196121D02*
X17482016Y-12236121D01*
X17482016Y-12196121D02*
X17442016Y-12236121D01*
X17887000Y-11791000D02*
X17927000Y-11831000D01*
X17927000Y-11791000D02*
X17887000Y-11831000D01*
X19256134Y-12782713D02*
X19296134Y-12822713D01*
X19296134Y-12782713D02*
X19256134Y-12822713D01*
X19282016Y-12686121D02*
X19322016Y-12726121D01*
X19322016Y-12686121D02*
X19282016Y-12726121D01*
X20005000Y-10780000D02*
X20045000Y-10820000D01*
X20045000Y-10780000D02*
X20005000Y-10820000D01*
X20005000Y-11330000D02*
X20045000Y-11370000D01*
X20045000Y-11330000D02*
X20005000Y-11370000D01*
D13*
X18475000Y-8970000D02*
G75*
G03*
X18475000Y-8970000I-25000J0D01*
G01*
X18475000Y-9300000D02*
G75*
G03*
X18475000Y-9300000I-25000J0D01*
G01*
X18475000Y-9570000D02*
G75*
G03*
X18475000Y-9570000I-25000J0D01*
G01*
X18475000Y-9900000D02*
G75*
G03*
X18475000Y-9900000I-25000J0D01*
G01*
X18475000Y-10170000D02*
G75*
G03*
X18475000Y-10170000I-25000J0D01*
G01*
X18475000Y-10500000D02*
G75*
G03*
X18475000Y-10500000I-25000J0D01*
G01*
X18775000Y-8970000D02*
G75*
G03*
X18775000Y-8970000I-25000J0D01*
G01*
X18775000Y-9300000D02*
G75*
G03*
X18775000Y-9300000I-25000J0D01*
G01*
X18775000Y-9570000D02*
G75*
G03*
X18775000Y-9570000I-25000J0D01*
G01*
X18775000Y-9900000D02*
G75*
G03*
X18775000Y-9900000I-25000J0D01*
G01*
X18775000Y-10170000D02*
G75*
G03*
X18775000Y-10170000I-25000J0D01*
G01*
X18775000Y-10500000D02*
G75*
G03*
X18775000Y-10500000I-25000J0D01*
G01*
X18775000Y-10770000D02*
G75*
G03*
X18775000Y-10770000I-25000J0D01*
G01*
X18775000Y-11100000D02*
G75*
G03*
X18775000Y-11100000I-25000J0D01*
G01*
X19075000Y-8970000D02*
G75*
G03*
X19075000Y-8970000I-25000J0D01*
G01*
X19075000Y-9300000D02*
G75*
G03*
X19075000Y-9300000I-25000J0D01*
G01*
X19075000Y-9570000D02*
G75*
G03*
X19075000Y-9570000I-25000J0D01*
G01*
X19075000Y-9900000D02*
G75*
G03*
X19075000Y-9900000I-25000J0D01*
G01*
X19075000Y-10170000D02*
G75*
G03*
X19075000Y-10170000I-25000J0D01*
G01*
X19075000Y-10500000D02*
G75*
G03*
X19075000Y-10500000I-25000J0D01*
G01*
X19075000Y-10770000D02*
G75*
G03*
X19075000Y-10770000I-25000J0D01*
G01*
X19075000Y-11100000D02*
G75*
G03*
X19075000Y-11100000I-25000J0D01*
G01*
X19375000Y-8970000D02*
G75*
G03*
X19375000Y-8970000I-25000J0D01*
G01*
X19375000Y-9300000D02*
G75*
G03*
X19375000Y-9300000I-25000J0D01*
G01*
X19375000Y-9570000D02*
G75*
G03*
X19375000Y-9570000I-25000J0D01*
G01*
X19375000Y-9900000D02*
G75*
G03*
X19375000Y-9900000I-25000J0D01*
G01*
X19375000Y-10170000D02*
G75*
G03*
X19375000Y-10170000I-25000J0D01*
G01*
X19375000Y-10500000D02*
G75*
G03*
X19375000Y-10500000I-25000J0D01*
G01*
X19375000Y-10770000D02*
G75*
G03*
X19375000Y-10770000I-25000J0D01*
G01*
X19375000Y-11100000D02*
G75*
G03*
X19375000Y-11100000I-25000J0D01*
G01*
X19675000Y-8970000D02*
G75*
G03*
X19675000Y-8970000I-25000J0D01*
G01*
X19675000Y-9300000D02*
G75*
G03*
X19675000Y-9300000I-25000J0D01*
G01*
X19675000Y-9570000D02*
G75*
G03*
X19675000Y-9570000I-25000J0D01*
G01*
X19675000Y-9900000D02*
G75*
G03*
X19675000Y-9900000I-25000J0D01*
G01*
X19675000Y-10170000D02*
G75*
G03*
X19675000Y-10170000I-25000J0D01*
G01*
X19675000Y-10500000D02*
G75*
G03*
X19675000Y-10500000I-25000J0D01*
G01*
D14*
X18161000Y-5623560D02*
X18161000Y-5704840D01*
X18120360Y-5664200D02*
X18201640Y-5664200D01*
X18161000Y-5877560D02*
X18161000Y-5958840D01*
X18120360Y-5918200D02*
X18201640Y-5918200D01*
X18161000Y-6131560D02*
X18161000Y-6212840D01*
X18120360Y-6172200D02*
X18201640Y-6172200D01*
X18161000Y-6385560D02*
X18161000Y-6466840D01*
X18120360Y-6426200D02*
X18201640Y-6426200D01*
X18161000Y-6639560D02*
X18161000Y-6720840D01*
X18120360Y-6680200D02*
X18201640Y-6680200D01*
X18161000Y-6893560D02*
X18161000Y-6974840D01*
X18120360Y-6934200D02*
X18201640Y-6934200D01*
X18161000Y-7147560D02*
X18161000Y-7228840D01*
X18120360Y-7188200D02*
X18201640Y-7188200D01*
X18161000Y-7401560D02*
X18161000Y-7482840D01*
X18120360Y-7442200D02*
X18201640Y-7442200D01*
X18161000Y-7655560D02*
X18161000Y-7736840D01*
X18120360Y-7696200D02*
X18201640Y-7696200D01*
X18161000Y-7909560D02*
X18161000Y-7990840D01*
X18120360Y-7950200D02*
X18201640Y-7950200D01*
X18161000Y-8163560D02*
X18161000Y-8244840D01*
X18120360Y-8204200D02*
X18201640Y-8204200D01*
X18161000Y-8417560D02*
X18161000Y-8498840D01*
X18120360Y-8458200D02*
X18201640Y-8458200D01*
X18293640Y-5496560D02*
X18293640Y-5577840D01*
X18253000Y-5537200D02*
X18334280Y-5537200D01*
X18293640Y-5750560D02*
X18293640Y-5831840D01*
X18253000Y-5791200D02*
X18334280Y-5791200D01*
X18293640Y-6004560D02*
X18293640Y-6085840D01*
X18253000Y-6045200D02*
X18334280Y-6045200D01*
X18293640Y-6258560D02*
X18293640Y-6339840D01*
X18253000Y-6299200D02*
X18334280Y-6299200D01*
X18293640Y-6512560D02*
X18293640Y-6593840D01*
X18253000Y-6553200D02*
X18334280Y-6553200D01*
X18293640Y-6766560D02*
X18293640Y-6847840D01*
X18253000Y-6807200D02*
X18334280Y-6807200D01*
X18293640Y-7020560D02*
X18293640Y-7101840D01*
X18253000Y-7061200D02*
X18334280Y-7061200D01*
X18293640Y-7274560D02*
X18293640Y-7355840D01*
X18253000Y-7315200D02*
X18334280Y-7315200D01*
X18293640Y-7528560D02*
X18293640Y-7609840D01*
X18253000Y-7569200D02*
X18334280Y-7569200D01*
X18293640Y-7782560D02*
X18293640Y-7863840D01*
X18253000Y-7823200D02*
X18334280Y-7823200D01*
X18293640Y-8036560D02*
X18293640Y-8117840D01*
X18253000Y-8077200D02*
X18334280Y-8077200D01*
X18293640Y-8290560D02*
X18293640Y-8371840D01*
X18253000Y-8331200D02*
X18334280Y-8331200D01*
X19685000Y-5623560D02*
X19685000Y-5704840D01*
X19644360Y-5664200D02*
X19725640Y-5664200D01*
X19685000Y-5877560D02*
X19685000Y-5958840D01*
X19644360Y-5918200D02*
X19725640Y-5918200D01*
X19685000Y-6131560D02*
X19685000Y-6212840D01*
X19644360Y-6172200D02*
X19725640Y-6172200D01*
X19685000Y-6385560D02*
X19685000Y-6466840D01*
X19644360Y-6426200D02*
X19725640Y-6426200D01*
X19685000Y-6639560D02*
X19685000Y-6720840D01*
X19644360Y-6680200D02*
X19725640Y-6680200D01*
X19685000Y-6893560D02*
X19685000Y-6974840D01*
X19644360Y-6934200D02*
X19725640Y-6934200D01*
X19685000Y-7147560D02*
X19685000Y-7228840D01*
X19644360Y-7188200D02*
X19725640Y-7188200D01*
X19685000Y-7401560D02*
X19685000Y-7482840D01*
X19644360Y-7442200D02*
X19725640Y-7442200D01*
X19685000Y-7655560D02*
X19685000Y-7736840D01*
X19644360Y-7696200D02*
X19725640Y-7696200D01*
X19685000Y-7909560D02*
X19685000Y-7990840D01*
X19644360Y-7950200D02*
X19725640Y-7950200D01*
X19685000Y-8163560D02*
X19685000Y-8244840D01*
X19644360Y-8204200D02*
X19725640Y-8204200D01*
X19685000Y-8417560D02*
X19685000Y-8498840D01*
X19644360Y-8458200D02*
X19725640Y-8458200D01*
X19815640Y-5496560D02*
X19815640Y-5577840D01*
X19775000Y-5537200D02*
X19856280Y-5537200D01*
X19815640Y-5750560D02*
X19815640Y-5831840D01*
X19775000Y-5791200D02*
X19856280Y-5791200D01*
X19815640Y-6004560D02*
X19815640Y-6085840D01*
X19775000Y-6045200D02*
X19856280Y-6045200D01*
X19815640Y-6258560D02*
X19815640Y-6339840D01*
X19775000Y-6299200D02*
X19856280Y-6299200D01*
X19815640Y-6512560D02*
X19815640Y-6593840D01*
X19775000Y-6553200D02*
X19856280Y-6553200D01*
X19815640Y-6766560D02*
X19815640Y-6847840D01*
X19775000Y-6807200D02*
X19856280Y-6807200D01*
X19815640Y-7020560D02*
X19815640Y-7101840D01*
X19775000Y-7061200D02*
X19856280Y-7061200D01*
X19815640Y-7274560D02*
X19815640Y-7355840D01*
X19775000Y-7315200D02*
X19856280Y-7315200D01*
X19815640Y-7528560D02*
X19815640Y-7609840D01*
X19775000Y-7569200D02*
X19856280Y-7569200D01*
X19815640Y-7782560D02*
X19815640Y-7863840D01*
X19775000Y-7823200D02*
X19856280Y-7823200D01*
X19815640Y-8036560D02*
X19815640Y-8117840D01*
X19775000Y-8077200D02*
X19856280Y-8077200D01*
X19815640Y-8290560D02*
X19815640Y-8371840D01*
X19775000Y-8331200D02*
X19856280Y-8331200D01*
D15*
X10571453Y-12336917D02*
X10571453Y-12266206D01*
X10500741Y-12266206D01*
X10500741Y-12336917D01*
X10571453Y-12336917D01*
X11952953Y-12336917D02*
X11952953Y-12266206D01*
X11882241Y-12266206D01*
X11882241Y-12336917D01*
X11952953Y-12336917D01*
X13334453Y-12336917D02*
X13334453Y-12266206D01*
X13263741Y-12266206D01*
X13263741Y-12336917D01*
X13334453Y-12336917D01*
D11*
X8384744Y-14968527D02*
X8384744Y-14768527D01*
X8384744Y-14768527D02*
X8432363Y-14768527D01*
X8432363Y-14768527D02*
X8460935Y-14778050D01*
X8460935Y-14778050D02*
X8479982Y-14797098D01*
X8479982Y-14797098D02*
X8489506Y-14816146D01*
X8489506Y-14816146D02*
X8499030Y-14854241D01*
X8499030Y-14854241D02*
X8499030Y-14882812D01*
X8499030Y-14882812D02*
X8489506Y-14920908D01*
X8489506Y-14920908D02*
X8479982Y-14939955D01*
X8479982Y-14939955D02*
X8460935Y-14959003D01*
X8460935Y-14959003D02*
X8432363Y-14968527D01*
X8432363Y-14968527D02*
X8384744Y-14968527D01*
X8584744Y-14968527D02*
X8584744Y-14835193D01*
X8584744Y-14873289D02*
X8594268Y-14854241D01*
X8594268Y-14854241D02*
X8603792Y-14844717D01*
X8603792Y-14844717D02*
X8622840Y-14835193D01*
X8622840Y-14835193D02*
X8641887Y-14835193D01*
X8708554Y-14968527D02*
X8708554Y-14835193D01*
X8708554Y-14768527D02*
X8699030Y-14778050D01*
X8699030Y-14778050D02*
X8708554Y-14787574D01*
X8708554Y-14787574D02*
X8718078Y-14778050D01*
X8718078Y-14778050D02*
X8708554Y-14768527D01*
X8708554Y-14768527D02*
X8708554Y-14787574D01*
X8832363Y-14968527D02*
X8813316Y-14959003D01*
X8813316Y-14959003D02*
X8803792Y-14939955D01*
X8803792Y-14939955D02*
X8803792Y-14768527D01*
X8937125Y-14968527D02*
X8918078Y-14959003D01*
X8918078Y-14959003D02*
X8908554Y-14939955D01*
X8908554Y-14939955D02*
X8908554Y-14768527D01*
X9165697Y-14968527D02*
X9165697Y-14768527D01*
X9165697Y-14768527D02*
X9232363Y-14911384D01*
X9232363Y-14911384D02*
X9299030Y-14768527D01*
X9299030Y-14768527D02*
X9299030Y-14968527D01*
X9479982Y-14968527D02*
X9479982Y-14863765D01*
X9479982Y-14863765D02*
X9470459Y-14844717D01*
X9470459Y-14844717D02*
X9451411Y-14835193D01*
X9451411Y-14835193D02*
X9413316Y-14835193D01*
X9413316Y-14835193D02*
X9394268Y-14844717D01*
X9479982Y-14959003D02*
X9460935Y-14968527D01*
X9460935Y-14968527D02*
X9413316Y-14968527D01*
X9413316Y-14968527D02*
X9394268Y-14959003D01*
X9394268Y-14959003D02*
X9384744Y-14939955D01*
X9384744Y-14939955D02*
X9384744Y-14920908D01*
X9384744Y-14920908D02*
X9394268Y-14901860D01*
X9394268Y-14901860D02*
X9413316Y-14892336D01*
X9413316Y-14892336D02*
X9460935Y-14892336D01*
X9460935Y-14892336D02*
X9479982Y-14882812D01*
X9575221Y-14835193D02*
X9575221Y-15035193D01*
X9575221Y-14844717D02*
X9594268Y-14835193D01*
X9594268Y-14835193D02*
X9632363Y-14835193D01*
X9632363Y-14835193D02*
X9651411Y-14844717D01*
X9651411Y-14844717D02*
X9660935Y-14854241D01*
X9660935Y-14854241D02*
X9670459Y-14873289D01*
X9670459Y-14873289D02*
X9670459Y-14930431D01*
X9670459Y-14930431D02*
X9660935Y-14949479D01*
X9660935Y-14949479D02*
X9651411Y-14959003D01*
X9651411Y-14959003D02*
X9632363Y-14968527D01*
X9632363Y-14968527D02*
X9594268Y-14968527D01*
X9594268Y-14968527D02*
X9575221Y-14959003D01*
X9756173Y-14949479D02*
X9765697Y-14959003D01*
X9765697Y-14959003D02*
X9756173Y-14968527D01*
X9756173Y-14968527D02*
X9746649Y-14959003D01*
X9746649Y-14959003D02*
X9756173Y-14949479D01*
X9756173Y-14949479D02*
X9756173Y-14968527D01*
X9756173Y-14844717D02*
X9765697Y-14854241D01*
X9765697Y-14854241D02*
X9756173Y-14863765D01*
X9756173Y-14863765D02*
X9746649Y-14854241D01*
X9746649Y-14854241D02*
X9756173Y-14844717D01*
X9756173Y-14844717D02*
X9756173Y-14863765D01*
D12*
X8097125Y-15276003D02*
X8137125Y-15316003D01*
X8137125Y-15276003D02*
X8097125Y-15316003D01*
D11*
X8422840Y-15188527D02*
X8441887Y-15188527D01*
X8441887Y-15188527D02*
X8460935Y-15198050D01*
X8460935Y-15198050D02*
X8470459Y-15207574D01*
X8470459Y-15207574D02*
X8479982Y-15226622D01*
X8479982Y-15226622D02*
X8489506Y-15264717D01*
X8489506Y-15264717D02*
X8489506Y-15312336D01*
X8489506Y-15312336D02*
X8479982Y-15350431D01*
X8479982Y-15350431D02*
X8470459Y-15369479D01*
X8470459Y-15369479D02*
X8460935Y-15379003D01*
X8460935Y-15379003D02*
X8441887Y-15388527D01*
X8441887Y-15388527D02*
X8422840Y-15388527D01*
X8422840Y-15388527D02*
X8403792Y-15379003D01*
X8403792Y-15379003D02*
X8394268Y-15369479D01*
X8394268Y-15369479D02*
X8384744Y-15350431D01*
X8384744Y-15350431D02*
X8375220Y-15312336D01*
X8375220Y-15312336D02*
X8375220Y-15264717D01*
X8375220Y-15264717D02*
X8384744Y-15226622D01*
X8384744Y-15226622D02*
X8394268Y-15207574D01*
X8394268Y-15207574D02*
X8403792Y-15198050D01*
X8403792Y-15198050D02*
X8422840Y-15188527D01*
X8575221Y-15369479D02*
X8584744Y-15379003D01*
X8584744Y-15379003D02*
X8575221Y-15388527D01*
X8575221Y-15388527D02*
X8565697Y-15379003D01*
X8565697Y-15379003D02*
X8575221Y-15369479D01*
X8575221Y-15369479D02*
X8575221Y-15388527D01*
X8756173Y-15255193D02*
X8756173Y-15388527D01*
X8708554Y-15179003D02*
X8660935Y-15321860D01*
X8660935Y-15321860D02*
X8784744Y-15321860D01*
X8899030Y-15188527D02*
X8918078Y-15188527D01*
X8918078Y-15188527D02*
X8937125Y-15198050D01*
X8937125Y-15198050D02*
X8946649Y-15207574D01*
X8946649Y-15207574D02*
X8956173Y-15226622D01*
X8956173Y-15226622D02*
X8965697Y-15264717D01*
X8965697Y-15264717D02*
X8965697Y-15312336D01*
X8965697Y-15312336D02*
X8956173Y-15350431D01*
X8956173Y-15350431D02*
X8946649Y-15369479D01*
X8946649Y-15369479D02*
X8937125Y-15379003D01*
X8937125Y-15379003D02*
X8918078Y-15388527D01*
X8918078Y-15388527D02*
X8899030Y-15388527D01*
X8899030Y-15388527D02*
X8879982Y-15379003D01*
X8879982Y-15379003D02*
X8870459Y-15369479D01*
X8870459Y-15369479D02*
X8860935Y-15350431D01*
X8860935Y-15350431D02*
X8851411Y-15312336D01*
X8851411Y-15312336D02*
X8851411Y-15264717D01*
X8851411Y-15264717D02*
X8860935Y-15226622D01*
X8860935Y-15226622D02*
X8870459Y-15207574D01*
X8870459Y-15207574D02*
X8879982Y-15198050D01*
X8879982Y-15198050D02*
X8899030Y-15188527D01*
X9089506Y-15188527D02*
X9108554Y-15188527D01*
X9108554Y-15188527D02*
X9127602Y-15198050D01*
X9127602Y-15198050D02*
X9137125Y-15207574D01*
X9137125Y-15207574D02*
X9146649Y-15226622D01*
X9146649Y-15226622D02*
X9156173Y-15264717D01*
X9156173Y-15264717D02*
X9156173Y-15312336D01*
X9156173Y-15312336D02*
X9146649Y-15350431D01*
X9146649Y-15350431D02*
X9137125Y-15369479D01*
X9137125Y-15369479D02*
X9127602Y-15379003D01*
X9127602Y-15379003D02*
X9108554Y-15388527D01*
X9108554Y-15388527D02*
X9089506Y-15388527D01*
X9089506Y-15388527D02*
X9070459Y-15379003D01*
X9070459Y-15379003D02*
X9060935Y-15369479D01*
X9060935Y-15369479D02*
X9051411Y-15350431D01*
X9051411Y-15350431D02*
X9041887Y-15312336D01*
X9041887Y-15312336D02*
X9041887Y-15264717D01*
X9041887Y-15264717D02*
X9051411Y-15226622D01*
X9051411Y-15226622D02*
X9060935Y-15207574D01*
X9060935Y-15207574D02*
X9070459Y-15198050D01*
X9070459Y-15198050D02*
X9089506Y-15188527D01*
X9241887Y-15388527D02*
X9241887Y-15255193D01*
X9241887Y-15274241D02*
X9251411Y-15264717D01*
X9251411Y-15264717D02*
X9270459Y-15255193D01*
X9270459Y-15255193D02*
X9299030Y-15255193D01*
X9299030Y-15255193D02*
X9318078Y-15264717D01*
X9318078Y-15264717D02*
X9327602Y-15283765D01*
X9327602Y-15283765D02*
X9327602Y-15388527D01*
X9327602Y-15283765D02*
X9337125Y-15264717D01*
X9337125Y-15264717D02*
X9356173Y-15255193D01*
X9356173Y-15255193D02*
X9384744Y-15255193D01*
X9384744Y-15255193D02*
X9403792Y-15264717D01*
X9403792Y-15264717D02*
X9413316Y-15283765D01*
X9413316Y-15283765D02*
X9413316Y-15388527D01*
X9508554Y-15388527D02*
X9508554Y-15255193D01*
X9508554Y-15274241D02*
X9518078Y-15264717D01*
X9518078Y-15264717D02*
X9537125Y-15255193D01*
X9537125Y-15255193D02*
X9565697Y-15255193D01*
X9565697Y-15255193D02*
X9584744Y-15264717D01*
X9584744Y-15264717D02*
X9594268Y-15283765D01*
X9594268Y-15283765D02*
X9594268Y-15388527D01*
X9594268Y-15283765D02*
X9603792Y-15264717D01*
X9603792Y-15264717D02*
X9622840Y-15255193D01*
X9622840Y-15255193D02*
X9651411Y-15255193D01*
X9651411Y-15255193D02*
X9670459Y-15264717D01*
X9670459Y-15264717D02*
X9679983Y-15283765D01*
X9679983Y-15283765D02*
X9679983Y-15388527D01*
X10070459Y-15179003D02*
X9899030Y-15436146D01*
X10327602Y-15188527D02*
X10346649Y-15188527D01*
X10346649Y-15188527D02*
X10365697Y-15198050D01*
X10365697Y-15198050D02*
X10375221Y-15207574D01*
X10375221Y-15207574D02*
X10384745Y-15226622D01*
X10384745Y-15226622D02*
X10394268Y-15264717D01*
X10394268Y-15264717D02*
X10394268Y-15312336D01*
X10394268Y-15312336D02*
X10384745Y-15350431D01*
X10384745Y-15350431D02*
X10375221Y-15369479D01*
X10375221Y-15369479D02*
X10365697Y-15379003D01*
X10365697Y-15379003D02*
X10346649Y-15388527D01*
X10346649Y-15388527D02*
X10327602Y-15388527D01*
X10327602Y-15388527D02*
X10308554Y-15379003D01*
X10308554Y-15379003D02*
X10299030Y-15369479D01*
X10299030Y-15369479D02*
X10289506Y-15350431D01*
X10289506Y-15350431D02*
X10279983Y-15312336D01*
X10279983Y-15312336D02*
X10279983Y-15264717D01*
X10279983Y-15264717D02*
X10289506Y-15226622D01*
X10289506Y-15226622D02*
X10299030Y-15207574D01*
X10299030Y-15207574D02*
X10308554Y-15198050D01*
X10308554Y-15198050D02*
X10327602Y-15188527D01*
X10479983Y-15369479D02*
X10489506Y-15379003D01*
X10489506Y-15379003D02*
X10479983Y-15388527D01*
X10479983Y-15388527D02*
X10470459Y-15379003D01*
X10470459Y-15379003D02*
X10479983Y-15369479D01*
X10479983Y-15369479D02*
X10479983Y-15388527D01*
X10613316Y-15188527D02*
X10632364Y-15188527D01*
X10632364Y-15188527D02*
X10651411Y-15198050D01*
X10651411Y-15198050D02*
X10660935Y-15207574D01*
X10660935Y-15207574D02*
X10670459Y-15226622D01*
X10670459Y-15226622D02*
X10679983Y-15264717D01*
X10679983Y-15264717D02*
X10679983Y-15312336D01*
X10679983Y-15312336D02*
X10670459Y-15350431D01*
X10670459Y-15350431D02*
X10660935Y-15369479D01*
X10660935Y-15369479D02*
X10651411Y-15379003D01*
X10651411Y-15379003D02*
X10632364Y-15388527D01*
X10632364Y-15388527D02*
X10613316Y-15388527D01*
X10613316Y-15388527D02*
X10594268Y-15379003D01*
X10594268Y-15379003D02*
X10584745Y-15369479D01*
X10584745Y-15369479D02*
X10575221Y-15350431D01*
X10575221Y-15350431D02*
X10565697Y-15312336D01*
X10565697Y-15312336D02*
X10565697Y-15264717D01*
X10565697Y-15264717D02*
X10575221Y-15226622D01*
X10575221Y-15226622D02*
X10584745Y-15207574D01*
X10584745Y-15207574D02*
X10594268Y-15198050D01*
X10594268Y-15198050D02*
X10613316Y-15188527D01*
X10870459Y-15388527D02*
X10756173Y-15388527D01*
X10813316Y-15388527D02*
X10813316Y-15188527D01*
X10813316Y-15188527D02*
X10794268Y-15217098D01*
X10794268Y-15217098D02*
X10775221Y-15236146D01*
X10775221Y-15236146D02*
X10756173Y-15245669D01*
X11051411Y-15188527D02*
X10956173Y-15188527D01*
X10956173Y-15188527D02*
X10946649Y-15283765D01*
X10946649Y-15283765D02*
X10956173Y-15274241D01*
X10956173Y-15274241D02*
X10975221Y-15264717D01*
X10975221Y-15264717D02*
X11022840Y-15264717D01*
X11022840Y-15264717D02*
X11041887Y-15274241D01*
X11041887Y-15274241D02*
X11051411Y-15283765D01*
X11051411Y-15283765D02*
X11060935Y-15302812D01*
X11060935Y-15302812D02*
X11060935Y-15350431D01*
X11060935Y-15350431D02*
X11051411Y-15369479D01*
X11051411Y-15369479D02*
X11041887Y-15379003D01*
X11041887Y-15379003D02*
X11022840Y-15388527D01*
X11022840Y-15388527D02*
X10975221Y-15388527D01*
X10975221Y-15388527D02*
X10956173Y-15379003D01*
X10956173Y-15379003D02*
X10946649Y-15369479D01*
X11127602Y-15188527D02*
X11260935Y-15188527D01*
X11260935Y-15188527D02*
X11175221Y-15388527D01*
X11327602Y-15188527D02*
X11327602Y-15226622D01*
X11403792Y-15188527D02*
X11403792Y-15226622D01*
X11699030Y-15464717D02*
X11689506Y-15455193D01*
X11689506Y-15455193D02*
X11670459Y-15426622D01*
X11670459Y-15426622D02*
X11660935Y-15407574D01*
X11660935Y-15407574D02*
X11651411Y-15379003D01*
X11651411Y-15379003D02*
X11641887Y-15331384D01*
X11641887Y-15331384D02*
X11641887Y-15293289D01*
X11641887Y-15293289D02*
X11651411Y-15245669D01*
X11651411Y-15245669D02*
X11660935Y-15217098D01*
X11660935Y-15217098D02*
X11670459Y-15198050D01*
X11670459Y-15198050D02*
X11689506Y-15169479D01*
X11689506Y-15169479D02*
X11699030Y-15159955D01*
X11860935Y-15255193D02*
X11860935Y-15388527D01*
X11813316Y-15179003D02*
X11765697Y-15321860D01*
X11765697Y-15321860D02*
X11889506Y-15321860D01*
X11956173Y-15207574D02*
X11965697Y-15198050D01*
X11965697Y-15198050D02*
X11984745Y-15188527D01*
X11984745Y-15188527D02*
X12032364Y-15188527D01*
X12032364Y-15188527D02*
X12051411Y-15198050D01*
X12051411Y-15198050D02*
X12060935Y-15207574D01*
X12060935Y-15207574D02*
X12070459Y-15226622D01*
X12070459Y-15226622D02*
X12070459Y-15245669D01*
X12070459Y-15245669D02*
X12060935Y-15274241D01*
X12060935Y-15274241D02*
X11946649Y-15388527D01*
X11946649Y-15388527D02*
X12070459Y-15388527D01*
X12308554Y-15388527D02*
X12308554Y-15188527D01*
X12394268Y-15388527D02*
X12394268Y-15283765D01*
X12394268Y-15283765D02*
X12384745Y-15264717D01*
X12384745Y-15264717D02*
X12365697Y-15255193D01*
X12365697Y-15255193D02*
X12337126Y-15255193D01*
X12337126Y-15255193D02*
X12318078Y-15264717D01*
X12318078Y-15264717D02*
X12308554Y-15274241D01*
X12518078Y-15388527D02*
X12499030Y-15379003D01*
X12499030Y-15379003D02*
X12489507Y-15369479D01*
X12489507Y-15369479D02*
X12479983Y-15350431D01*
X12479983Y-15350431D02*
X12479983Y-15293289D01*
X12479983Y-15293289D02*
X12489507Y-15274241D01*
X12489507Y-15274241D02*
X12499030Y-15264717D01*
X12499030Y-15264717D02*
X12518078Y-15255193D01*
X12518078Y-15255193D02*
X12546649Y-15255193D01*
X12546649Y-15255193D02*
X12565697Y-15264717D01*
X12565697Y-15264717D02*
X12575221Y-15274241D01*
X12575221Y-15274241D02*
X12584745Y-15293289D01*
X12584745Y-15293289D02*
X12584745Y-15350431D01*
X12584745Y-15350431D02*
X12575221Y-15369479D01*
X12575221Y-15369479D02*
X12565697Y-15379003D01*
X12565697Y-15379003D02*
X12546649Y-15388527D01*
X12546649Y-15388527D02*
X12518078Y-15388527D01*
X12699030Y-15388527D02*
X12679983Y-15379003D01*
X12679983Y-15379003D02*
X12670459Y-15359955D01*
X12670459Y-15359955D02*
X12670459Y-15188527D01*
X12851411Y-15379003D02*
X12832364Y-15388527D01*
X12832364Y-15388527D02*
X12794268Y-15388527D01*
X12794268Y-15388527D02*
X12775221Y-15379003D01*
X12775221Y-15379003D02*
X12765697Y-15359955D01*
X12765697Y-15359955D02*
X12765697Y-15283765D01*
X12765697Y-15283765D02*
X12775221Y-15264717D01*
X12775221Y-15264717D02*
X12794268Y-15255193D01*
X12794268Y-15255193D02*
X12832364Y-15255193D01*
X12832364Y-15255193D02*
X12851411Y-15264717D01*
X12851411Y-15264717D02*
X12860935Y-15283765D01*
X12860935Y-15283765D02*
X12860935Y-15302812D01*
X12860935Y-15302812D02*
X12765697Y-15321860D01*
X12937126Y-15379003D02*
X12956173Y-15388527D01*
X12956173Y-15388527D02*
X12994268Y-15388527D01*
X12994268Y-15388527D02*
X13013316Y-15379003D01*
X13013316Y-15379003D02*
X13022840Y-15359955D01*
X13022840Y-15359955D02*
X13022840Y-15350431D01*
X13022840Y-15350431D02*
X13013316Y-15331384D01*
X13013316Y-15331384D02*
X12994268Y-15321860D01*
X12994268Y-15321860D02*
X12965697Y-15321860D01*
X12965697Y-15321860D02*
X12946649Y-15312336D01*
X12946649Y-15312336D02*
X12937126Y-15293289D01*
X12937126Y-15293289D02*
X12937126Y-15283765D01*
X12937126Y-15283765D02*
X12946649Y-15264717D01*
X12946649Y-15264717D02*
X12965697Y-15255193D01*
X12965697Y-15255193D02*
X12994268Y-15255193D01*
X12994268Y-15255193D02*
X13013316Y-15264717D01*
X13089507Y-15464717D02*
X13099030Y-15455193D01*
X13099030Y-15455193D02*
X13118078Y-15426622D01*
X13118078Y-15426622D02*
X13127602Y-15407574D01*
X13127602Y-15407574D02*
X13137126Y-15379003D01*
X13137126Y-15379003D02*
X13146649Y-15331384D01*
X13146649Y-15331384D02*
X13146649Y-15293289D01*
X13146649Y-15293289D02*
X13137126Y-15245669D01*
X13137126Y-15245669D02*
X13127602Y-15217098D01*
X13127602Y-15217098D02*
X13118078Y-15198050D01*
X13118078Y-15198050D02*
X13099030Y-15169479D01*
X13099030Y-15169479D02*
X13089507Y-15159955D01*
D13*
X8137125Y-15560003D02*
G75*
G03*
X8137125Y-15560003I-25000J0D01*
G01*
D11*
X8422840Y-15452527D02*
X8441887Y-15452527D01*
X8441887Y-15452527D02*
X8460935Y-15462050D01*
X8460935Y-15462050D02*
X8470459Y-15471574D01*
X8470459Y-15471574D02*
X8479982Y-15490622D01*
X8479982Y-15490622D02*
X8489506Y-15528717D01*
X8489506Y-15528717D02*
X8489506Y-15576336D01*
X8489506Y-15576336D02*
X8479982Y-15614431D01*
X8479982Y-15614431D02*
X8470459Y-15633479D01*
X8470459Y-15633479D02*
X8460935Y-15643003D01*
X8460935Y-15643003D02*
X8441887Y-15652527D01*
X8441887Y-15652527D02*
X8422840Y-15652527D01*
X8422840Y-15652527D02*
X8403792Y-15643003D01*
X8403792Y-15643003D02*
X8394268Y-15633479D01*
X8394268Y-15633479D02*
X8384744Y-15614431D01*
X8384744Y-15614431D02*
X8375220Y-15576336D01*
X8375220Y-15576336D02*
X8375220Y-15528717D01*
X8375220Y-15528717D02*
X8384744Y-15490622D01*
X8384744Y-15490622D02*
X8394268Y-15471574D01*
X8394268Y-15471574D02*
X8403792Y-15462050D01*
X8403792Y-15462050D02*
X8422840Y-15452527D01*
X8575221Y-15633479D02*
X8584744Y-15643003D01*
X8584744Y-15643003D02*
X8575221Y-15652527D01*
X8575221Y-15652527D02*
X8565697Y-15643003D01*
X8565697Y-15643003D02*
X8575221Y-15633479D01*
X8575221Y-15633479D02*
X8575221Y-15652527D01*
X8765697Y-15452527D02*
X8670459Y-15452527D01*
X8670459Y-15452527D02*
X8660935Y-15547765D01*
X8660935Y-15547765D02*
X8670459Y-15538241D01*
X8670459Y-15538241D02*
X8689506Y-15528717D01*
X8689506Y-15528717D02*
X8737125Y-15528717D01*
X8737125Y-15528717D02*
X8756173Y-15538241D01*
X8756173Y-15538241D02*
X8765697Y-15547765D01*
X8765697Y-15547765D02*
X8775221Y-15566812D01*
X8775221Y-15566812D02*
X8775221Y-15614431D01*
X8775221Y-15614431D02*
X8765697Y-15633479D01*
X8765697Y-15633479D02*
X8756173Y-15643003D01*
X8756173Y-15643003D02*
X8737125Y-15652527D01*
X8737125Y-15652527D02*
X8689506Y-15652527D01*
X8689506Y-15652527D02*
X8670459Y-15643003D01*
X8670459Y-15643003D02*
X8660935Y-15633479D01*
X8899030Y-15452527D02*
X8918078Y-15452527D01*
X8918078Y-15452527D02*
X8937125Y-15462050D01*
X8937125Y-15462050D02*
X8946649Y-15471574D01*
X8946649Y-15471574D02*
X8956173Y-15490622D01*
X8956173Y-15490622D02*
X8965697Y-15528717D01*
X8965697Y-15528717D02*
X8965697Y-15576336D01*
X8965697Y-15576336D02*
X8956173Y-15614431D01*
X8956173Y-15614431D02*
X8946649Y-15633479D01*
X8946649Y-15633479D02*
X8937125Y-15643003D01*
X8937125Y-15643003D02*
X8918078Y-15652527D01*
X8918078Y-15652527D02*
X8899030Y-15652527D01*
X8899030Y-15652527D02*
X8879982Y-15643003D01*
X8879982Y-15643003D02*
X8870459Y-15633479D01*
X8870459Y-15633479D02*
X8860935Y-15614431D01*
X8860935Y-15614431D02*
X8851411Y-15576336D01*
X8851411Y-15576336D02*
X8851411Y-15528717D01*
X8851411Y-15528717D02*
X8860935Y-15490622D01*
X8860935Y-15490622D02*
X8870459Y-15471574D01*
X8870459Y-15471574D02*
X8879982Y-15462050D01*
X8879982Y-15462050D02*
X8899030Y-15452527D01*
X9089506Y-15452527D02*
X9108554Y-15452527D01*
X9108554Y-15452527D02*
X9127602Y-15462050D01*
X9127602Y-15462050D02*
X9137125Y-15471574D01*
X9137125Y-15471574D02*
X9146649Y-15490622D01*
X9146649Y-15490622D02*
X9156173Y-15528717D01*
X9156173Y-15528717D02*
X9156173Y-15576336D01*
X9156173Y-15576336D02*
X9146649Y-15614431D01*
X9146649Y-15614431D02*
X9137125Y-15633479D01*
X9137125Y-15633479D02*
X9127602Y-15643003D01*
X9127602Y-15643003D02*
X9108554Y-15652527D01*
X9108554Y-15652527D02*
X9089506Y-15652527D01*
X9089506Y-15652527D02*
X9070459Y-15643003D01*
X9070459Y-15643003D02*
X9060935Y-15633479D01*
X9060935Y-15633479D02*
X9051411Y-15614431D01*
X9051411Y-15614431D02*
X9041887Y-15576336D01*
X9041887Y-15576336D02*
X9041887Y-15528717D01*
X9041887Y-15528717D02*
X9051411Y-15490622D01*
X9051411Y-15490622D02*
X9060935Y-15471574D01*
X9060935Y-15471574D02*
X9070459Y-15462050D01*
X9070459Y-15462050D02*
X9089506Y-15452527D01*
X9241887Y-15652527D02*
X9241887Y-15519193D01*
X9241887Y-15538241D02*
X9251411Y-15528717D01*
X9251411Y-15528717D02*
X9270459Y-15519193D01*
X9270459Y-15519193D02*
X9299030Y-15519193D01*
X9299030Y-15519193D02*
X9318078Y-15528717D01*
X9318078Y-15528717D02*
X9327602Y-15547765D01*
X9327602Y-15547765D02*
X9327602Y-15652527D01*
X9327602Y-15547765D02*
X9337125Y-15528717D01*
X9337125Y-15528717D02*
X9356173Y-15519193D01*
X9356173Y-15519193D02*
X9384744Y-15519193D01*
X9384744Y-15519193D02*
X9403792Y-15528717D01*
X9403792Y-15528717D02*
X9413316Y-15547765D01*
X9413316Y-15547765D02*
X9413316Y-15652527D01*
X9508554Y-15652527D02*
X9508554Y-15519193D01*
X9508554Y-15538241D02*
X9518078Y-15528717D01*
X9518078Y-15528717D02*
X9537125Y-15519193D01*
X9537125Y-15519193D02*
X9565697Y-15519193D01*
X9565697Y-15519193D02*
X9584744Y-15528717D01*
X9584744Y-15528717D02*
X9594268Y-15547765D01*
X9594268Y-15547765D02*
X9594268Y-15652527D01*
X9594268Y-15547765D02*
X9603792Y-15528717D01*
X9603792Y-15528717D02*
X9622840Y-15519193D01*
X9622840Y-15519193D02*
X9651411Y-15519193D01*
X9651411Y-15519193D02*
X9670459Y-15528717D01*
X9670459Y-15528717D02*
X9679983Y-15547765D01*
X9679983Y-15547765D02*
X9679983Y-15652527D01*
X10070459Y-15443003D02*
X9899030Y-15700146D01*
X10327602Y-15452527D02*
X10346649Y-15452527D01*
X10346649Y-15452527D02*
X10365697Y-15462050D01*
X10365697Y-15462050D02*
X10375221Y-15471574D01*
X10375221Y-15471574D02*
X10384745Y-15490622D01*
X10384745Y-15490622D02*
X10394268Y-15528717D01*
X10394268Y-15528717D02*
X10394268Y-15576336D01*
X10394268Y-15576336D02*
X10384745Y-15614431D01*
X10384745Y-15614431D02*
X10375221Y-15633479D01*
X10375221Y-15633479D02*
X10365697Y-15643003D01*
X10365697Y-15643003D02*
X10346649Y-15652527D01*
X10346649Y-15652527D02*
X10327602Y-15652527D01*
X10327602Y-15652527D02*
X10308554Y-15643003D01*
X10308554Y-15643003D02*
X10299030Y-15633479D01*
X10299030Y-15633479D02*
X10289506Y-15614431D01*
X10289506Y-15614431D02*
X10279983Y-15576336D01*
X10279983Y-15576336D02*
X10279983Y-15528717D01*
X10279983Y-15528717D02*
X10289506Y-15490622D01*
X10289506Y-15490622D02*
X10299030Y-15471574D01*
X10299030Y-15471574D02*
X10308554Y-15462050D01*
X10308554Y-15462050D02*
X10327602Y-15452527D01*
X10479983Y-15633479D02*
X10489506Y-15643003D01*
X10489506Y-15643003D02*
X10479983Y-15652527D01*
X10479983Y-15652527D02*
X10470459Y-15643003D01*
X10470459Y-15643003D02*
X10479983Y-15633479D01*
X10479983Y-15633479D02*
X10479983Y-15652527D01*
X10613316Y-15452527D02*
X10632364Y-15452527D01*
X10632364Y-15452527D02*
X10651411Y-15462050D01*
X10651411Y-15462050D02*
X10660935Y-15471574D01*
X10660935Y-15471574D02*
X10670459Y-15490622D01*
X10670459Y-15490622D02*
X10679983Y-15528717D01*
X10679983Y-15528717D02*
X10679983Y-15576336D01*
X10679983Y-15576336D02*
X10670459Y-15614431D01*
X10670459Y-15614431D02*
X10660935Y-15633479D01*
X10660935Y-15633479D02*
X10651411Y-15643003D01*
X10651411Y-15643003D02*
X10632364Y-15652527D01*
X10632364Y-15652527D02*
X10613316Y-15652527D01*
X10613316Y-15652527D02*
X10594268Y-15643003D01*
X10594268Y-15643003D02*
X10584745Y-15633479D01*
X10584745Y-15633479D02*
X10575221Y-15614431D01*
X10575221Y-15614431D02*
X10565697Y-15576336D01*
X10565697Y-15576336D02*
X10565697Y-15528717D01*
X10565697Y-15528717D02*
X10575221Y-15490622D01*
X10575221Y-15490622D02*
X10584745Y-15471574D01*
X10584745Y-15471574D02*
X10594268Y-15462050D01*
X10594268Y-15462050D02*
X10613316Y-15452527D01*
X10870459Y-15652527D02*
X10756173Y-15652527D01*
X10813316Y-15652527D02*
X10813316Y-15452527D01*
X10813316Y-15452527D02*
X10794268Y-15481098D01*
X10794268Y-15481098D02*
X10775221Y-15500146D01*
X10775221Y-15500146D02*
X10756173Y-15509669D01*
X10965697Y-15652527D02*
X11003792Y-15652527D01*
X11003792Y-15652527D02*
X11022840Y-15643003D01*
X11022840Y-15643003D02*
X11032364Y-15633479D01*
X11032364Y-15633479D02*
X11051411Y-15604908D01*
X11051411Y-15604908D02*
X11060935Y-15566812D01*
X11060935Y-15566812D02*
X11060935Y-15490622D01*
X11060935Y-15490622D02*
X11051411Y-15471574D01*
X11051411Y-15471574D02*
X11041887Y-15462050D01*
X11041887Y-15462050D02*
X11022840Y-15452527D01*
X11022840Y-15452527D02*
X10984745Y-15452527D01*
X10984745Y-15452527D02*
X10965697Y-15462050D01*
X10965697Y-15462050D02*
X10956173Y-15471574D01*
X10956173Y-15471574D02*
X10946649Y-15490622D01*
X10946649Y-15490622D02*
X10946649Y-15538241D01*
X10946649Y-15538241D02*
X10956173Y-15557289D01*
X10956173Y-15557289D02*
X10965697Y-15566812D01*
X10965697Y-15566812D02*
X10984745Y-15576336D01*
X10984745Y-15576336D02*
X11022840Y-15576336D01*
X11022840Y-15576336D02*
X11041887Y-15566812D01*
X11041887Y-15566812D02*
X11051411Y-15557289D01*
X11051411Y-15557289D02*
X11060935Y-15538241D01*
X11127602Y-15452527D02*
X11260935Y-15452527D01*
X11260935Y-15452527D02*
X11175221Y-15652527D01*
X11327602Y-15452527D02*
X11327602Y-15490622D01*
X11403792Y-15452527D02*
X11403792Y-15490622D01*
X11699030Y-15728717D02*
X11689506Y-15719193D01*
X11689506Y-15719193D02*
X11670459Y-15690622D01*
X11670459Y-15690622D02*
X11660935Y-15671574D01*
X11660935Y-15671574D02*
X11651411Y-15643003D01*
X11651411Y-15643003D02*
X11641887Y-15595384D01*
X11641887Y-15595384D02*
X11641887Y-15557289D01*
X11641887Y-15557289D02*
X11651411Y-15509669D01*
X11651411Y-15509669D02*
X11660935Y-15481098D01*
X11660935Y-15481098D02*
X11670459Y-15462050D01*
X11670459Y-15462050D02*
X11689506Y-15433479D01*
X11689506Y-15433479D02*
X11699030Y-15423955D01*
X11756173Y-15452527D02*
X11879983Y-15452527D01*
X11879983Y-15452527D02*
X11813316Y-15528717D01*
X11813316Y-15528717D02*
X11841887Y-15528717D01*
X11841887Y-15528717D02*
X11860935Y-15538241D01*
X11860935Y-15538241D02*
X11870459Y-15547765D01*
X11870459Y-15547765D02*
X11879983Y-15566812D01*
X11879983Y-15566812D02*
X11879983Y-15614431D01*
X11879983Y-15614431D02*
X11870459Y-15633479D01*
X11870459Y-15633479D02*
X11860935Y-15643003D01*
X11860935Y-15643003D02*
X11841887Y-15652527D01*
X11841887Y-15652527D02*
X11784745Y-15652527D01*
X11784745Y-15652527D02*
X11765697Y-15643003D01*
X11765697Y-15643003D02*
X11756173Y-15633479D01*
X12051411Y-15452527D02*
X12013316Y-15452527D01*
X12013316Y-15452527D02*
X11994268Y-15462050D01*
X11994268Y-15462050D02*
X11984745Y-15471574D01*
X11984745Y-15471574D02*
X11965697Y-15500146D01*
X11965697Y-15500146D02*
X11956173Y-15538241D01*
X11956173Y-15538241D02*
X11956173Y-15614431D01*
X11956173Y-15614431D02*
X11965697Y-15633479D01*
X11965697Y-15633479D02*
X11975221Y-15643003D01*
X11975221Y-15643003D02*
X11994268Y-15652527D01*
X11994268Y-15652527D02*
X12032364Y-15652527D01*
X12032364Y-15652527D02*
X12051411Y-15643003D01*
X12051411Y-15643003D02*
X12060935Y-15633479D01*
X12060935Y-15633479D02*
X12070459Y-15614431D01*
X12070459Y-15614431D02*
X12070459Y-15566812D01*
X12070459Y-15566812D02*
X12060935Y-15547765D01*
X12060935Y-15547765D02*
X12051411Y-15538241D01*
X12051411Y-15538241D02*
X12032364Y-15528717D01*
X12032364Y-15528717D02*
X11994268Y-15528717D01*
X11994268Y-15528717D02*
X11975221Y-15538241D01*
X11975221Y-15538241D02*
X11965697Y-15547765D01*
X11965697Y-15547765D02*
X11956173Y-15566812D01*
X12308554Y-15652527D02*
X12308554Y-15452527D01*
X12394268Y-15652527D02*
X12394268Y-15547765D01*
X12394268Y-15547765D02*
X12384745Y-15528717D01*
X12384745Y-15528717D02*
X12365697Y-15519193D01*
X12365697Y-15519193D02*
X12337126Y-15519193D01*
X12337126Y-15519193D02*
X12318078Y-15528717D01*
X12318078Y-15528717D02*
X12308554Y-15538241D01*
X12518078Y-15652527D02*
X12499030Y-15643003D01*
X12499030Y-15643003D02*
X12489507Y-15633479D01*
X12489507Y-15633479D02*
X12479983Y-15614431D01*
X12479983Y-15614431D02*
X12479983Y-15557289D01*
X12479983Y-15557289D02*
X12489507Y-15538241D01*
X12489507Y-15538241D02*
X12499030Y-15528717D01*
X12499030Y-15528717D02*
X12518078Y-15519193D01*
X12518078Y-15519193D02*
X12546649Y-15519193D01*
X12546649Y-15519193D02*
X12565697Y-15528717D01*
X12565697Y-15528717D02*
X12575221Y-15538241D01*
X12575221Y-15538241D02*
X12584745Y-15557289D01*
X12584745Y-15557289D02*
X12584745Y-15614431D01*
X12584745Y-15614431D02*
X12575221Y-15633479D01*
X12575221Y-15633479D02*
X12565697Y-15643003D01*
X12565697Y-15643003D02*
X12546649Y-15652527D01*
X12546649Y-15652527D02*
X12518078Y-15652527D01*
X12699030Y-15652527D02*
X12679983Y-15643003D01*
X12679983Y-15643003D02*
X12670459Y-15623955D01*
X12670459Y-15623955D02*
X12670459Y-15452527D01*
X12851411Y-15643003D02*
X12832364Y-15652527D01*
X12832364Y-15652527D02*
X12794268Y-15652527D01*
X12794268Y-15652527D02*
X12775221Y-15643003D01*
X12775221Y-15643003D02*
X12765697Y-15623955D01*
X12765697Y-15623955D02*
X12765697Y-15547765D01*
X12765697Y-15547765D02*
X12775221Y-15528717D01*
X12775221Y-15528717D02*
X12794268Y-15519193D01*
X12794268Y-15519193D02*
X12832364Y-15519193D01*
X12832364Y-15519193D02*
X12851411Y-15528717D01*
X12851411Y-15528717D02*
X12860935Y-15547765D01*
X12860935Y-15547765D02*
X12860935Y-15566812D01*
X12860935Y-15566812D02*
X12765697Y-15585860D01*
X12937126Y-15643003D02*
X12956173Y-15652527D01*
X12956173Y-15652527D02*
X12994268Y-15652527D01*
X12994268Y-15652527D02*
X13013316Y-15643003D01*
X13013316Y-15643003D02*
X13022840Y-15623955D01*
X13022840Y-15623955D02*
X13022840Y-15614431D01*
X13022840Y-15614431D02*
X13013316Y-15595384D01*
X13013316Y-15595384D02*
X12994268Y-15585860D01*
X12994268Y-15585860D02*
X12965697Y-15585860D01*
X12965697Y-15585860D02*
X12946649Y-15576336D01*
X12946649Y-15576336D02*
X12937126Y-15557289D01*
X12937126Y-15557289D02*
X12937126Y-15547765D01*
X12937126Y-15547765D02*
X12946649Y-15528717D01*
X12946649Y-15528717D02*
X12965697Y-15519193D01*
X12965697Y-15519193D02*
X12994268Y-15519193D01*
X12994268Y-15519193D02*
X13013316Y-15528717D01*
X13089507Y-15728717D02*
X13099030Y-15719193D01*
X13099030Y-15719193D02*
X13118078Y-15690622D01*
X13118078Y-15690622D02*
X13127602Y-15671574D01*
X13127602Y-15671574D02*
X13137126Y-15643003D01*
X13137126Y-15643003D02*
X13146649Y-15595384D01*
X13146649Y-15595384D02*
X13146649Y-15557289D01*
X13146649Y-15557289D02*
X13137126Y-15509669D01*
X13137126Y-15509669D02*
X13127602Y-15481098D01*
X13127602Y-15481098D02*
X13118078Y-15462050D01*
X13118078Y-15462050D02*
X13099030Y-15433479D01*
X13099030Y-15433479D02*
X13089507Y-15423955D01*
D14*
X8096485Y-15783363D02*
X8096485Y-15864643D01*
X8055845Y-15824003D02*
X8137125Y-15824003D01*
D11*
X8422840Y-15716527D02*
X8441887Y-15716527D01*
X8441887Y-15716527D02*
X8460935Y-15726050D01*
X8460935Y-15726050D02*
X8470459Y-15735574D01*
X8470459Y-15735574D02*
X8479982Y-15754622D01*
X8479982Y-15754622D02*
X8489506Y-15792717D01*
X8489506Y-15792717D02*
X8489506Y-15840336D01*
X8489506Y-15840336D02*
X8479982Y-15878431D01*
X8479982Y-15878431D02*
X8470459Y-15897479D01*
X8470459Y-15897479D02*
X8460935Y-15907003D01*
X8460935Y-15907003D02*
X8441887Y-15916527D01*
X8441887Y-15916527D02*
X8422840Y-15916527D01*
X8422840Y-15916527D02*
X8403792Y-15907003D01*
X8403792Y-15907003D02*
X8394268Y-15897479D01*
X8394268Y-15897479D02*
X8384744Y-15878431D01*
X8384744Y-15878431D02*
X8375220Y-15840336D01*
X8375220Y-15840336D02*
X8375220Y-15792717D01*
X8375220Y-15792717D02*
X8384744Y-15754622D01*
X8384744Y-15754622D02*
X8394268Y-15735574D01*
X8394268Y-15735574D02*
X8403792Y-15726050D01*
X8403792Y-15726050D02*
X8422840Y-15716527D01*
X8575221Y-15897479D02*
X8584744Y-15907003D01*
X8584744Y-15907003D02*
X8575221Y-15916527D01*
X8575221Y-15916527D02*
X8565697Y-15907003D01*
X8565697Y-15907003D02*
X8575221Y-15897479D01*
X8575221Y-15897479D02*
X8575221Y-15916527D01*
X8699030Y-15802241D02*
X8679982Y-15792717D01*
X8679982Y-15792717D02*
X8670459Y-15783193D01*
X8670459Y-15783193D02*
X8660935Y-15764146D01*
X8660935Y-15764146D02*
X8660935Y-15754622D01*
X8660935Y-15754622D02*
X8670459Y-15735574D01*
X8670459Y-15735574D02*
X8679982Y-15726050D01*
X8679982Y-15726050D02*
X8699030Y-15716527D01*
X8699030Y-15716527D02*
X8737125Y-15716527D01*
X8737125Y-15716527D02*
X8756173Y-15726050D01*
X8756173Y-15726050D02*
X8765697Y-15735574D01*
X8765697Y-15735574D02*
X8775221Y-15754622D01*
X8775221Y-15754622D02*
X8775221Y-15764146D01*
X8775221Y-15764146D02*
X8765697Y-15783193D01*
X8765697Y-15783193D02*
X8756173Y-15792717D01*
X8756173Y-15792717D02*
X8737125Y-15802241D01*
X8737125Y-15802241D02*
X8699030Y-15802241D01*
X8699030Y-15802241D02*
X8679982Y-15811765D01*
X8679982Y-15811765D02*
X8670459Y-15821289D01*
X8670459Y-15821289D02*
X8660935Y-15840336D01*
X8660935Y-15840336D02*
X8660935Y-15878431D01*
X8660935Y-15878431D02*
X8670459Y-15897479D01*
X8670459Y-15897479D02*
X8679982Y-15907003D01*
X8679982Y-15907003D02*
X8699030Y-15916527D01*
X8699030Y-15916527D02*
X8737125Y-15916527D01*
X8737125Y-15916527D02*
X8756173Y-15907003D01*
X8756173Y-15907003D02*
X8765697Y-15897479D01*
X8765697Y-15897479D02*
X8775221Y-15878431D01*
X8775221Y-15878431D02*
X8775221Y-15840336D01*
X8775221Y-15840336D02*
X8765697Y-15821289D01*
X8765697Y-15821289D02*
X8756173Y-15811765D01*
X8756173Y-15811765D02*
X8737125Y-15802241D01*
X8965697Y-15916527D02*
X8851411Y-15916527D01*
X8908554Y-15916527D02*
X8908554Y-15716527D01*
X8908554Y-15716527D02*
X8889506Y-15745098D01*
X8889506Y-15745098D02*
X8870459Y-15764146D01*
X8870459Y-15764146D02*
X8851411Y-15773669D01*
X9032363Y-15716527D02*
X9156173Y-15716527D01*
X9156173Y-15716527D02*
X9089506Y-15792717D01*
X9089506Y-15792717D02*
X9118078Y-15792717D01*
X9118078Y-15792717D02*
X9137125Y-15802241D01*
X9137125Y-15802241D02*
X9146649Y-15811765D01*
X9146649Y-15811765D02*
X9156173Y-15830812D01*
X9156173Y-15830812D02*
X9156173Y-15878431D01*
X9156173Y-15878431D02*
X9146649Y-15897479D01*
X9146649Y-15897479D02*
X9137125Y-15907003D01*
X9137125Y-15907003D02*
X9118078Y-15916527D01*
X9118078Y-15916527D02*
X9060935Y-15916527D01*
X9060935Y-15916527D02*
X9041887Y-15907003D01*
X9041887Y-15907003D02*
X9032363Y-15897479D01*
X9241887Y-15916527D02*
X9241887Y-15783193D01*
X9241887Y-15802241D02*
X9251411Y-15792717D01*
X9251411Y-15792717D02*
X9270459Y-15783193D01*
X9270459Y-15783193D02*
X9299030Y-15783193D01*
X9299030Y-15783193D02*
X9318078Y-15792717D01*
X9318078Y-15792717D02*
X9327602Y-15811765D01*
X9327602Y-15811765D02*
X9327602Y-15916527D01*
X9327602Y-15811765D02*
X9337125Y-15792717D01*
X9337125Y-15792717D02*
X9356173Y-15783193D01*
X9356173Y-15783193D02*
X9384744Y-15783193D01*
X9384744Y-15783193D02*
X9403792Y-15792717D01*
X9403792Y-15792717D02*
X9413316Y-15811765D01*
X9413316Y-15811765D02*
X9413316Y-15916527D01*
X9508554Y-15916527D02*
X9508554Y-15783193D01*
X9508554Y-15802241D02*
X9518078Y-15792717D01*
X9518078Y-15792717D02*
X9537125Y-15783193D01*
X9537125Y-15783193D02*
X9565697Y-15783193D01*
X9565697Y-15783193D02*
X9584744Y-15792717D01*
X9584744Y-15792717D02*
X9594268Y-15811765D01*
X9594268Y-15811765D02*
X9594268Y-15916527D01*
X9594268Y-15811765D02*
X9603792Y-15792717D01*
X9603792Y-15792717D02*
X9622840Y-15783193D01*
X9622840Y-15783193D02*
X9651411Y-15783193D01*
X9651411Y-15783193D02*
X9670459Y-15792717D01*
X9670459Y-15792717D02*
X9679983Y-15811765D01*
X9679983Y-15811765D02*
X9679983Y-15916527D01*
X10070459Y-15707003D02*
X9899030Y-15964146D01*
X10327602Y-15716527D02*
X10346649Y-15716527D01*
X10346649Y-15716527D02*
X10365697Y-15726050D01*
X10365697Y-15726050D02*
X10375221Y-15735574D01*
X10375221Y-15735574D02*
X10384745Y-15754622D01*
X10384745Y-15754622D02*
X10394268Y-15792717D01*
X10394268Y-15792717D02*
X10394268Y-15840336D01*
X10394268Y-15840336D02*
X10384745Y-15878431D01*
X10384745Y-15878431D02*
X10375221Y-15897479D01*
X10375221Y-15897479D02*
X10365697Y-15907003D01*
X10365697Y-15907003D02*
X10346649Y-15916527D01*
X10346649Y-15916527D02*
X10327602Y-15916527D01*
X10327602Y-15916527D02*
X10308554Y-15907003D01*
X10308554Y-15907003D02*
X10299030Y-15897479D01*
X10299030Y-15897479D02*
X10289506Y-15878431D01*
X10289506Y-15878431D02*
X10279983Y-15840336D01*
X10279983Y-15840336D02*
X10279983Y-15792717D01*
X10279983Y-15792717D02*
X10289506Y-15754622D01*
X10289506Y-15754622D02*
X10299030Y-15735574D01*
X10299030Y-15735574D02*
X10308554Y-15726050D01*
X10308554Y-15726050D02*
X10327602Y-15716527D01*
X10479983Y-15897479D02*
X10489506Y-15907003D01*
X10489506Y-15907003D02*
X10479983Y-15916527D01*
X10479983Y-15916527D02*
X10470459Y-15907003D01*
X10470459Y-15907003D02*
X10479983Y-15897479D01*
X10479983Y-15897479D02*
X10479983Y-15916527D01*
X10613316Y-15716527D02*
X10632364Y-15716527D01*
X10632364Y-15716527D02*
X10651411Y-15726050D01*
X10651411Y-15726050D02*
X10660935Y-15735574D01*
X10660935Y-15735574D02*
X10670459Y-15754622D01*
X10670459Y-15754622D02*
X10679983Y-15792717D01*
X10679983Y-15792717D02*
X10679983Y-15840336D01*
X10679983Y-15840336D02*
X10670459Y-15878431D01*
X10670459Y-15878431D02*
X10660935Y-15897479D01*
X10660935Y-15897479D02*
X10651411Y-15907003D01*
X10651411Y-15907003D02*
X10632364Y-15916527D01*
X10632364Y-15916527D02*
X10613316Y-15916527D01*
X10613316Y-15916527D02*
X10594268Y-15907003D01*
X10594268Y-15907003D02*
X10584745Y-15897479D01*
X10584745Y-15897479D02*
X10575221Y-15878431D01*
X10575221Y-15878431D02*
X10565697Y-15840336D01*
X10565697Y-15840336D02*
X10565697Y-15792717D01*
X10565697Y-15792717D02*
X10575221Y-15754622D01*
X10575221Y-15754622D02*
X10584745Y-15735574D01*
X10584745Y-15735574D02*
X10594268Y-15726050D01*
X10594268Y-15726050D02*
X10613316Y-15716527D01*
X10746649Y-15716527D02*
X10870459Y-15716527D01*
X10870459Y-15716527D02*
X10803792Y-15792717D01*
X10803792Y-15792717D02*
X10832364Y-15792717D01*
X10832364Y-15792717D02*
X10851411Y-15802241D01*
X10851411Y-15802241D02*
X10860935Y-15811765D01*
X10860935Y-15811765D02*
X10870459Y-15830812D01*
X10870459Y-15830812D02*
X10870459Y-15878431D01*
X10870459Y-15878431D02*
X10860935Y-15897479D01*
X10860935Y-15897479D02*
X10851411Y-15907003D01*
X10851411Y-15907003D02*
X10832364Y-15916527D01*
X10832364Y-15916527D02*
X10775221Y-15916527D01*
X10775221Y-15916527D02*
X10756173Y-15907003D01*
X10756173Y-15907003D02*
X10746649Y-15897479D01*
X10946649Y-15735574D02*
X10956173Y-15726050D01*
X10956173Y-15726050D02*
X10975221Y-15716527D01*
X10975221Y-15716527D02*
X11022840Y-15716527D01*
X11022840Y-15716527D02*
X11041887Y-15726050D01*
X11041887Y-15726050D02*
X11051411Y-15735574D01*
X11051411Y-15735574D02*
X11060935Y-15754622D01*
X11060935Y-15754622D02*
X11060935Y-15773669D01*
X11060935Y-15773669D02*
X11051411Y-15802241D01*
X11051411Y-15802241D02*
X10937126Y-15916527D01*
X10937126Y-15916527D02*
X11060935Y-15916527D01*
X11184745Y-15716527D02*
X11203792Y-15716527D01*
X11203792Y-15716527D02*
X11222840Y-15726050D01*
X11222840Y-15726050D02*
X11232364Y-15735574D01*
X11232364Y-15735574D02*
X11241887Y-15754622D01*
X11241887Y-15754622D02*
X11251411Y-15792717D01*
X11251411Y-15792717D02*
X11251411Y-15840336D01*
X11251411Y-15840336D02*
X11241887Y-15878431D01*
X11241887Y-15878431D02*
X11232364Y-15897479D01*
X11232364Y-15897479D02*
X11222840Y-15907003D01*
X11222840Y-15907003D02*
X11203792Y-15916527D01*
X11203792Y-15916527D02*
X11184745Y-15916527D01*
X11184745Y-15916527D02*
X11165697Y-15907003D01*
X11165697Y-15907003D02*
X11156173Y-15897479D01*
X11156173Y-15897479D02*
X11146649Y-15878431D01*
X11146649Y-15878431D02*
X11137126Y-15840336D01*
X11137126Y-15840336D02*
X11137126Y-15792717D01*
X11137126Y-15792717D02*
X11146649Y-15754622D01*
X11146649Y-15754622D02*
X11156173Y-15735574D01*
X11156173Y-15735574D02*
X11165697Y-15726050D01*
X11165697Y-15726050D02*
X11184745Y-15716527D01*
X11327602Y-15716527D02*
X11327602Y-15754622D01*
X11403792Y-15716527D02*
X11403792Y-15754622D01*
X11699030Y-15992717D02*
X11689506Y-15983193D01*
X11689506Y-15983193D02*
X11670459Y-15954622D01*
X11670459Y-15954622D02*
X11660935Y-15935574D01*
X11660935Y-15935574D02*
X11651411Y-15907003D01*
X11651411Y-15907003D02*
X11641887Y-15859384D01*
X11641887Y-15859384D02*
X11641887Y-15821289D01*
X11641887Y-15821289D02*
X11651411Y-15773669D01*
X11651411Y-15773669D02*
X11660935Y-15745098D01*
X11660935Y-15745098D02*
X11670459Y-15726050D01*
X11670459Y-15726050D02*
X11689506Y-15697479D01*
X11689506Y-15697479D02*
X11699030Y-15687955D01*
X11860935Y-15783193D02*
X11860935Y-15916527D01*
X11813316Y-15707003D02*
X11765697Y-15849860D01*
X11765697Y-15849860D02*
X11889506Y-15849860D01*
X11994268Y-15802241D02*
X11975221Y-15792717D01*
X11975221Y-15792717D02*
X11965697Y-15783193D01*
X11965697Y-15783193D02*
X11956173Y-15764146D01*
X11956173Y-15764146D02*
X11956173Y-15754622D01*
X11956173Y-15754622D02*
X11965697Y-15735574D01*
X11965697Y-15735574D02*
X11975221Y-15726050D01*
X11975221Y-15726050D02*
X11994268Y-15716527D01*
X11994268Y-15716527D02*
X12032364Y-15716527D01*
X12032364Y-15716527D02*
X12051411Y-15726050D01*
X12051411Y-15726050D02*
X12060935Y-15735574D01*
X12060935Y-15735574D02*
X12070459Y-15754622D01*
X12070459Y-15754622D02*
X12070459Y-15764146D01*
X12070459Y-15764146D02*
X12060935Y-15783193D01*
X12060935Y-15783193D02*
X12051411Y-15792717D01*
X12051411Y-15792717D02*
X12032364Y-15802241D01*
X12032364Y-15802241D02*
X11994268Y-15802241D01*
X11994268Y-15802241D02*
X11975221Y-15811765D01*
X11975221Y-15811765D02*
X11965697Y-15821289D01*
X11965697Y-15821289D02*
X11956173Y-15840336D01*
X11956173Y-15840336D02*
X11956173Y-15878431D01*
X11956173Y-15878431D02*
X11965697Y-15897479D01*
X11965697Y-15897479D02*
X11975221Y-15907003D01*
X11975221Y-15907003D02*
X11994268Y-15916527D01*
X11994268Y-15916527D02*
X12032364Y-15916527D01*
X12032364Y-15916527D02*
X12051411Y-15907003D01*
X12051411Y-15907003D02*
X12060935Y-15897479D01*
X12060935Y-15897479D02*
X12070459Y-15878431D01*
X12070459Y-15878431D02*
X12070459Y-15840336D01*
X12070459Y-15840336D02*
X12060935Y-15821289D01*
X12060935Y-15821289D02*
X12051411Y-15811765D01*
X12051411Y-15811765D02*
X12032364Y-15802241D01*
X12308554Y-15916527D02*
X12308554Y-15716527D01*
X12394268Y-15916527D02*
X12394268Y-15811765D01*
X12394268Y-15811765D02*
X12384745Y-15792717D01*
X12384745Y-15792717D02*
X12365697Y-15783193D01*
X12365697Y-15783193D02*
X12337126Y-15783193D01*
X12337126Y-15783193D02*
X12318078Y-15792717D01*
X12318078Y-15792717D02*
X12308554Y-15802241D01*
X12518078Y-15916527D02*
X12499030Y-15907003D01*
X12499030Y-15907003D02*
X12489507Y-15897479D01*
X12489507Y-15897479D02*
X12479983Y-15878431D01*
X12479983Y-15878431D02*
X12479983Y-15821289D01*
X12479983Y-15821289D02*
X12489507Y-15802241D01*
X12489507Y-15802241D02*
X12499030Y-15792717D01*
X12499030Y-15792717D02*
X12518078Y-15783193D01*
X12518078Y-15783193D02*
X12546649Y-15783193D01*
X12546649Y-15783193D02*
X12565697Y-15792717D01*
X12565697Y-15792717D02*
X12575221Y-15802241D01*
X12575221Y-15802241D02*
X12584745Y-15821289D01*
X12584745Y-15821289D02*
X12584745Y-15878431D01*
X12584745Y-15878431D02*
X12575221Y-15897479D01*
X12575221Y-15897479D02*
X12565697Y-15907003D01*
X12565697Y-15907003D02*
X12546649Y-15916527D01*
X12546649Y-15916527D02*
X12518078Y-15916527D01*
X12699030Y-15916527D02*
X12679983Y-15907003D01*
X12679983Y-15907003D02*
X12670459Y-15887955D01*
X12670459Y-15887955D02*
X12670459Y-15716527D01*
X12851411Y-15907003D02*
X12832364Y-15916527D01*
X12832364Y-15916527D02*
X12794268Y-15916527D01*
X12794268Y-15916527D02*
X12775221Y-15907003D01*
X12775221Y-15907003D02*
X12765697Y-15887955D01*
X12765697Y-15887955D02*
X12765697Y-15811765D01*
X12765697Y-15811765D02*
X12775221Y-15792717D01*
X12775221Y-15792717D02*
X12794268Y-15783193D01*
X12794268Y-15783193D02*
X12832364Y-15783193D01*
X12832364Y-15783193D02*
X12851411Y-15792717D01*
X12851411Y-15792717D02*
X12860935Y-15811765D01*
X12860935Y-15811765D02*
X12860935Y-15830812D01*
X12860935Y-15830812D02*
X12765697Y-15849860D01*
X12937126Y-15907003D02*
X12956173Y-15916527D01*
X12956173Y-15916527D02*
X12994268Y-15916527D01*
X12994268Y-15916527D02*
X13013316Y-15907003D01*
X13013316Y-15907003D02*
X13022840Y-15887955D01*
X13022840Y-15887955D02*
X13022840Y-15878431D01*
X13022840Y-15878431D02*
X13013316Y-15859384D01*
X13013316Y-15859384D02*
X12994268Y-15849860D01*
X12994268Y-15849860D02*
X12965697Y-15849860D01*
X12965697Y-15849860D02*
X12946649Y-15840336D01*
X12946649Y-15840336D02*
X12937126Y-15821289D01*
X12937126Y-15821289D02*
X12937126Y-15811765D01*
X12937126Y-15811765D02*
X12946649Y-15792717D01*
X12946649Y-15792717D02*
X12965697Y-15783193D01*
X12965697Y-15783193D02*
X12994268Y-15783193D01*
X12994268Y-15783193D02*
X13013316Y-15792717D01*
X13089507Y-15992717D02*
X13099030Y-15983193D01*
X13099030Y-15983193D02*
X13118078Y-15954622D01*
X13118078Y-15954622D02*
X13127602Y-15935574D01*
X13127602Y-15935574D02*
X13137126Y-15907003D01*
X13137126Y-15907003D02*
X13146649Y-15859384D01*
X13146649Y-15859384D02*
X13146649Y-15821289D01*
X13146649Y-15821289D02*
X13137126Y-15773669D01*
X13137126Y-15773669D02*
X13127602Y-15745098D01*
X13127602Y-15745098D02*
X13118078Y-15726050D01*
X13118078Y-15726050D02*
X13099030Y-15697479D01*
X13099030Y-15697479D02*
X13089507Y-15687955D01*
D15*
X8122481Y-16123359D02*
X8122481Y-16052647D01*
X8051770Y-16052647D01*
X8051770Y-16123359D01*
X8122481Y-16123359D01*
D11*
X8489506Y-16180527D02*
X8375220Y-16180527D01*
X8432363Y-16180527D02*
X8432363Y-15980527D01*
X8432363Y-15980527D02*
X8413316Y-16009098D01*
X8413316Y-16009098D02*
X8394268Y-16028146D01*
X8394268Y-16028146D02*
X8375220Y-16037669D01*
X8575221Y-16161479D02*
X8584744Y-16171003D01*
X8584744Y-16171003D02*
X8575221Y-16180527D01*
X8575221Y-16180527D02*
X8565697Y-16171003D01*
X8565697Y-16171003D02*
X8575221Y-16161479D01*
X8575221Y-16161479D02*
X8575221Y-16180527D01*
X8708554Y-15980527D02*
X8727602Y-15980527D01*
X8727602Y-15980527D02*
X8746649Y-15990050D01*
X8746649Y-15990050D02*
X8756173Y-15999574D01*
X8756173Y-15999574D02*
X8765697Y-16018622D01*
X8765697Y-16018622D02*
X8775221Y-16056717D01*
X8775221Y-16056717D02*
X8775221Y-16104336D01*
X8775221Y-16104336D02*
X8765697Y-16142431D01*
X8765697Y-16142431D02*
X8756173Y-16161479D01*
X8756173Y-16161479D02*
X8746649Y-16171003D01*
X8746649Y-16171003D02*
X8727602Y-16180527D01*
X8727602Y-16180527D02*
X8708554Y-16180527D01*
X8708554Y-16180527D02*
X8689506Y-16171003D01*
X8689506Y-16171003D02*
X8679982Y-16161479D01*
X8679982Y-16161479D02*
X8670459Y-16142431D01*
X8670459Y-16142431D02*
X8660935Y-16104336D01*
X8660935Y-16104336D02*
X8660935Y-16056717D01*
X8660935Y-16056717D02*
X8670459Y-16018622D01*
X8670459Y-16018622D02*
X8679982Y-15999574D01*
X8679982Y-15999574D02*
X8689506Y-15990050D01*
X8689506Y-15990050D02*
X8708554Y-15980527D01*
X8899030Y-15980527D02*
X8918078Y-15980527D01*
X8918078Y-15980527D02*
X8937125Y-15990050D01*
X8937125Y-15990050D02*
X8946649Y-15999574D01*
X8946649Y-15999574D02*
X8956173Y-16018622D01*
X8956173Y-16018622D02*
X8965697Y-16056717D01*
X8965697Y-16056717D02*
X8965697Y-16104336D01*
X8965697Y-16104336D02*
X8956173Y-16142431D01*
X8956173Y-16142431D02*
X8946649Y-16161479D01*
X8946649Y-16161479D02*
X8937125Y-16171003D01*
X8937125Y-16171003D02*
X8918078Y-16180527D01*
X8918078Y-16180527D02*
X8899030Y-16180527D01*
X8899030Y-16180527D02*
X8879982Y-16171003D01*
X8879982Y-16171003D02*
X8870459Y-16161479D01*
X8870459Y-16161479D02*
X8860935Y-16142431D01*
X8860935Y-16142431D02*
X8851411Y-16104336D01*
X8851411Y-16104336D02*
X8851411Y-16056717D01*
X8851411Y-16056717D02*
X8860935Y-16018622D01*
X8860935Y-16018622D02*
X8870459Y-15999574D01*
X8870459Y-15999574D02*
X8879982Y-15990050D01*
X8879982Y-15990050D02*
X8899030Y-15980527D01*
X9089506Y-15980527D02*
X9108554Y-15980527D01*
X9108554Y-15980527D02*
X9127602Y-15990050D01*
X9127602Y-15990050D02*
X9137125Y-15999574D01*
X9137125Y-15999574D02*
X9146649Y-16018622D01*
X9146649Y-16018622D02*
X9156173Y-16056717D01*
X9156173Y-16056717D02*
X9156173Y-16104336D01*
X9156173Y-16104336D02*
X9146649Y-16142431D01*
X9146649Y-16142431D02*
X9137125Y-16161479D01*
X9137125Y-16161479D02*
X9127602Y-16171003D01*
X9127602Y-16171003D02*
X9108554Y-16180527D01*
X9108554Y-16180527D02*
X9089506Y-16180527D01*
X9089506Y-16180527D02*
X9070459Y-16171003D01*
X9070459Y-16171003D02*
X9060935Y-16161479D01*
X9060935Y-16161479D02*
X9051411Y-16142431D01*
X9051411Y-16142431D02*
X9041887Y-16104336D01*
X9041887Y-16104336D02*
X9041887Y-16056717D01*
X9041887Y-16056717D02*
X9051411Y-16018622D01*
X9051411Y-16018622D02*
X9060935Y-15999574D01*
X9060935Y-15999574D02*
X9070459Y-15990050D01*
X9070459Y-15990050D02*
X9089506Y-15980527D01*
X9241887Y-16180527D02*
X9241887Y-16047193D01*
X9241887Y-16066241D02*
X9251411Y-16056717D01*
X9251411Y-16056717D02*
X9270459Y-16047193D01*
X9270459Y-16047193D02*
X9299030Y-16047193D01*
X9299030Y-16047193D02*
X9318078Y-16056717D01*
X9318078Y-16056717D02*
X9327602Y-16075765D01*
X9327602Y-16075765D02*
X9327602Y-16180527D01*
X9327602Y-16075765D02*
X9337125Y-16056717D01*
X9337125Y-16056717D02*
X9356173Y-16047193D01*
X9356173Y-16047193D02*
X9384744Y-16047193D01*
X9384744Y-16047193D02*
X9403792Y-16056717D01*
X9403792Y-16056717D02*
X9413316Y-16075765D01*
X9413316Y-16075765D02*
X9413316Y-16180527D01*
X9508554Y-16180527D02*
X9508554Y-16047193D01*
X9508554Y-16066241D02*
X9518078Y-16056717D01*
X9518078Y-16056717D02*
X9537125Y-16047193D01*
X9537125Y-16047193D02*
X9565697Y-16047193D01*
X9565697Y-16047193D02*
X9584744Y-16056717D01*
X9584744Y-16056717D02*
X9594268Y-16075765D01*
X9594268Y-16075765D02*
X9594268Y-16180527D01*
X9594268Y-16075765D02*
X9603792Y-16056717D01*
X9603792Y-16056717D02*
X9622840Y-16047193D01*
X9622840Y-16047193D02*
X9651411Y-16047193D01*
X9651411Y-16047193D02*
X9670459Y-16056717D01*
X9670459Y-16056717D02*
X9679983Y-16075765D01*
X9679983Y-16075765D02*
X9679983Y-16180527D01*
X10070459Y-15971003D02*
X9899030Y-16228146D01*
X10327602Y-15980527D02*
X10346649Y-15980527D01*
X10346649Y-15980527D02*
X10365697Y-15990050D01*
X10365697Y-15990050D02*
X10375221Y-15999574D01*
X10375221Y-15999574D02*
X10384745Y-16018622D01*
X10384745Y-16018622D02*
X10394268Y-16056717D01*
X10394268Y-16056717D02*
X10394268Y-16104336D01*
X10394268Y-16104336D02*
X10384745Y-16142431D01*
X10384745Y-16142431D02*
X10375221Y-16161479D01*
X10375221Y-16161479D02*
X10365697Y-16171003D01*
X10365697Y-16171003D02*
X10346649Y-16180527D01*
X10346649Y-16180527D02*
X10327602Y-16180527D01*
X10327602Y-16180527D02*
X10308554Y-16171003D01*
X10308554Y-16171003D02*
X10299030Y-16161479D01*
X10299030Y-16161479D02*
X10289506Y-16142431D01*
X10289506Y-16142431D02*
X10279983Y-16104336D01*
X10279983Y-16104336D02*
X10279983Y-16056717D01*
X10279983Y-16056717D02*
X10289506Y-16018622D01*
X10289506Y-16018622D02*
X10299030Y-15999574D01*
X10299030Y-15999574D02*
X10308554Y-15990050D01*
X10308554Y-15990050D02*
X10327602Y-15980527D01*
X10479983Y-16161479D02*
X10489506Y-16171003D01*
X10489506Y-16171003D02*
X10479983Y-16180527D01*
X10479983Y-16180527D02*
X10470459Y-16171003D01*
X10470459Y-16171003D02*
X10479983Y-16161479D01*
X10479983Y-16161479D02*
X10479983Y-16180527D01*
X10613316Y-15980527D02*
X10632364Y-15980527D01*
X10632364Y-15980527D02*
X10651411Y-15990050D01*
X10651411Y-15990050D02*
X10660935Y-15999574D01*
X10660935Y-15999574D02*
X10670459Y-16018622D01*
X10670459Y-16018622D02*
X10679983Y-16056717D01*
X10679983Y-16056717D02*
X10679983Y-16104336D01*
X10679983Y-16104336D02*
X10670459Y-16142431D01*
X10670459Y-16142431D02*
X10660935Y-16161479D01*
X10660935Y-16161479D02*
X10651411Y-16171003D01*
X10651411Y-16171003D02*
X10632364Y-16180527D01*
X10632364Y-16180527D02*
X10613316Y-16180527D01*
X10613316Y-16180527D02*
X10594268Y-16171003D01*
X10594268Y-16171003D02*
X10584745Y-16161479D01*
X10584745Y-16161479D02*
X10575221Y-16142431D01*
X10575221Y-16142431D02*
X10565697Y-16104336D01*
X10565697Y-16104336D02*
X10565697Y-16056717D01*
X10565697Y-16056717D02*
X10575221Y-16018622D01*
X10575221Y-16018622D02*
X10584745Y-15999574D01*
X10584745Y-15999574D02*
X10594268Y-15990050D01*
X10594268Y-15990050D02*
X10613316Y-15980527D01*
X10746649Y-15980527D02*
X10870459Y-15980527D01*
X10870459Y-15980527D02*
X10803792Y-16056717D01*
X10803792Y-16056717D02*
X10832364Y-16056717D01*
X10832364Y-16056717D02*
X10851411Y-16066241D01*
X10851411Y-16066241D02*
X10860935Y-16075765D01*
X10860935Y-16075765D02*
X10870459Y-16094812D01*
X10870459Y-16094812D02*
X10870459Y-16142431D01*
X10870459Y-16142431D02*
X10860935Y-16161479D01*
X10860935Y-16161479D02*
X10851411Y-16171003D01*
X10851411Y-16171003D02*
X10832364Y-16180527D01*
X10832364Y-16180527D02*
X10775221Y-16180527D01*
X10775221Y-16180527D02*
X10756173Y-16171003D01*
X10756173Y-16171003D02*
X10746649Y-16161479D01*
X10965697Y-16180527D02*
X11003792Y-16180527D01*
X11003792Y-16180527D02*
X11022840Y-16171003D01*
X11022840Y-16171003D02*
X11032364Y-16161479D01*
X11032364Y-16161479D02*
X11051411Y-16132908D01*
X11051411Y-16132908D02*
X11060935Y-16094812D01*
X11060935Y-16094812D02*
X11060935Y-16018622D01*
X11060935Y-16018622D02*
X11051411Y-15999574D01*
X11051411Y-15999574D02*
X11041887Y-15990050D01*
X11041887Y-15990050D02*
X11022840Y-15980527D01*
X11022840Y-15980527D02*
X10984745Y-15980527D01*
X10984745Y-15980527D02*
X10965697Y-15990050D01*
X10965697Y-15990050D02*
X10956173Y-15999574D01*
X10956173Y-15999574D02*
X10946649Y-16018622D01*
X10946649Y-16018622D02*
X10946649Y-16066241D01*
X10946649Y-16066241D02*
X10956173Y-16085289D01*
X10956173Y-16085289D02*
X10965697Y-16094812D01*
X10965697Y-16094812D02*
X10984745Y-16104336D01*
X10984745Y-16104336D02*
X11022840Y-16104336D01*
X11022840Y-16104336D02*
X11041887Y-16094812D01*
X11041887Y-16094812D02*
X11051411Y-16085289D01*
X11051411Y-16085289D02*
X11060935Y-16066241D01*
X11232364Y-16047193D02*
X11232364Y-16180527D01*
X11184745Y-15971003D02*
X11137126Y-16113860D01*
X11137126Y-16113860D02*
X11260935Y-16113860D01*
X11327602Y-15980527D02*
X11327602Y-16018622D01*
X11403792Y-15980527D02*
X11403792Y-16018622D01*
X11699030Y-16256717D02*
X11689506Y-16247193D01*
X11689506Y-16247193D02*
X11670459Y-16218622D01*
X11670459Y-16218622D02*
X11660935Y-16199574D01*
X11660935Y-16199574D02*
X11651411Y-16171003D01*
X11651411Y-16171003D02*
X11641887Y-16123384D01*
X11641887Y-16123384D02*
X11641887Y-16085289D01*
X11641887Y-16085289D02*
X11651411Y-16037669D01*
X11651411Y-16037669D02*
X11660935Y-16009098D01*
X11660935Y-16009098D02*
X11670459Y-15990050D01*
X11670459Y-15990050D02*
X11689506Y-15961479D01*
X11689506Y-15961479D02*
X11699030Y-15951955D01*
X11756173Y-15980527D02*
X11879983Y-15980527D01*
X11879983Y-15980527D02*
X11813316Y-16056717D01*
X11813316Y-16056717D02*
X11841887Y-16056717D01*
X11841887Y-16056717D02*
X11860935Y-16066241D01*
X11860935Y-16066241D02*
X11870459Y-16075765D01*
X11870459Y-16075765D02*
X11879983Y-16094812D01*
X11879983Y-16094812D02*
X11879983Y-16142431D01*
X11879983Y-16142431D02*
X11870459Y-16161479D01*
X11870459Y-16161479D02*
X11860935Y-16171003D01*
X11860935Y-16171003D02*
X11841887Y-16180527D01*
X11841887Y-16180527D02*
X11784745Y-16180527D01*
X11784745Y-16180527D02*
X11765697Y-16171003D01*
X11765697Y-16171003D02*
X11756173Y-16161479D01*
X12118078Y-16180527D02*
X12118078Y-15980527D01*
X12203792Y-16180527D02*
X12203792Y-16075765D01*
X12203792Y-16075765D02*
X12194268Y-16056717D01*
X12194268Y-16056717D02*
X12175221Y-16047193D01*
X12175221Y-16047193D02*
X12146649Y-16047193D01*
X12146649Y-16047193D02*
X12127602Y-16056717D01*
X12127602Y-16056717D02*
X12118078Y-16066241D01*
X12327602Y-16180527D02*
X12308554Y-16171003D01*
X12308554Y-16171003D02*
X12299030Y-16161479D01*
X12299030Y-16161479D02*
X12289507Y-16142431D01*
X12289507Y-16142431D02*
X12289507Y-16085289D01*
X12289507Y-16085289D02*
X12299030Y-16066241D01*
X12299030Y-16066241D02*
X12308554Y-16056717D01*
X12308554Y-16056717D02*
X12327602Y-16047193D01*
X12327602Y-16047193D02*
X12356173Y-16047193D01*
X12356173Y-16047193D02*
X12375221Y-16056717D01*
X12375221Y-16056717D02*
X12384745Y-16066241D01*
X12384745Y-16066241D02*
X12394268Y-16085289D01*
X12394268Y-16085289D02*
X12394268Y-16142431D01*
X12394268Y-16142431D02*
X12384745Y-16161479D01*
X12384745Y-16161479D02*
X12375221Y-16171003D01*
X12375221Y-16171003D02*
X12356173Y-16180527D01*
X12356173Y-16180527D02*
X12327602Y-16180527D01*
X12508554Y-16180527D02*
X12489507Y-16171003D01*
X12489507Y-16171003D02*
X12479983Y-16151955D01*
X12479983Y-16151955D02*
X12479983Y-15980527D01*
X12660935Y-16171003D02*
X12641888Y-16180527D01*
X12641888Y-16180527D02*
X12603792Y-16180527D01*
X12603792Y-16180527D02*
X12584745Y-16171003D01*
X12584745Y-16171003D02*
X12575221Y-16151955D01*
X12575221Y-16151955D02*
X12575221Y-16075765D01*
X12575221Y-16075765D02*
X12584745Y-16056717D01*
X12584745Y-16056717D02*
X12603792Y-16047193D01*
X12603792Y-16047193D02*
X12641888Y-16047193D01*
X12641888Y-16047193D02*
X12660935Y-16056717D01*
X12660935Y-16056717D02*
X12670459Y-16075765D01*
X12670459Y-16075765D02*
X12670459Y-16094812D01*
X12670459Y-16094812D02*
X12575221Y-16113860D01*
X12746649Y-16171003D02*
X12765697Y-16180527D01*
X12765697Y-16180527D02*
X12803792Y-16180527D01*
X12803792Y-16180527D02*
X12822840Y-16171003D01*
X12822840Y-16171003D02*
X12832364Y-16151955D01*
X12832364Y-16151955D02*
X12832364Y-16142431D01*
X12832364Y-16142431D02*
X12822840Y-16123384D01*
X12822840Y-16123384D02*
X12803792Y-16113860D01*
X12803792Y-16113860D02*
X12775221Y-16113860D01*
X12775221Y-16113860D02*
X12756173Y-16104336D01*
X12756173Y-16104336D02*
X12746649Y-16085289D01*
X12746649Y-16085289D02*
X12746649Y-16075765D01*
X12746649Y-16075765D02*
X12756173Y-16056717D01*
X12756173Y-16056717D02*
X12775221Y-16047193D01*
X12775221Y-16047193D02*
X12803792Y-16047193D01*
X12803792Y-16047193D02*
X12822840Y-16056717D01*
X12899030Y-16256717D02*
X12908554Y-16247193D01*
X12908554Y-16247193D02*
X12927602Y-16218622D01*
X12927602Y-16218622D02*
X12937126Y-16199574D01*
X12937126Y-16199574D02*
X12946649Y-16171003D01*
X12946649Y-16171003D02*
X12956173Y-16123384D01*
X12956173Y-16123384D02*
X12956173Y-16085289D01*
X12956173Y-16085289D02*
X12946649Y-16037669D01*
X12946649Y-16037669D02*
X12937126Y-16009098D01*
X12937126Y-16009098D02*
X12927602Y-15990050D01*
X12927602Y-15990050D02*
X12908554Y-15961479D01*
X12908554Y-15961479D02*
X12899030Y-15951955D01*
M02*
