%TF.GenerationSoftware,KiCad,Pcbnew,7.0.2*%
%TF.CreationDate,2023-10-26T02:33:03+11:00*%
%TF.ProjectId,cybr36,63796272-3336-42e6-9b69-6361645f7063,rev?*%
%TF.SameCoordinates,Original*%
%TF.FileFunction,Profile,NP*%
%FSLAX46Y46*%
G04 Gerber Fmt 4.6, Leading zero omitted, Abs format (unit mm)*
G04 Created by KiCad (PCBNEW 7.0.2) date 2023-10-26 02:33:03*
%MOMM*%
%LPD*%
G01*
G04 APERTURE LIST*
%TA.AperFunction,Profile*%
%ADD10C,0.263999*%
%TD*%
G04 APERTURE END LIST*
D10*
X161231923Y-137117605D02*
X160904332Y-137090738D01*
X196331812Y-146382695D02*
X162847543Y-137411565D01*
X138825539Y-50805244D02*
X138862862Y-50858345D01*
X81603955Y-136252547D02*
X81580719Y-136192340D01*
X82432778Y-51453676D02*
X82495555Y-51435849D01*
X196791964Y-146422875D02*
X196727205Y-146427057D01*
X202526353Y-52651518D02*
X202527979Y-52717118D01*
X81802852Y-136584703D02*
X81762845Y-136533348D01*
X82195592Y-51553870D02*
X82252634Y-51524655D01*
X120603731Y-46671097D02*
X120666900Y-46656854D01*
X81987770Y-136769616D02*
X81938270Y-136726973D01*
X202513480Y-52521763D02*
X202521505Y-52586364D01*
X118726399Y-51316741D02*
X118786605Y-51293507D01*
X120139135Y-46890788D02*
X120192235Y-46853465D01*
X197493354Y-146143765D02*
X197442483Y-146181873D01*
X202305705Y-51983163D02*
X202340300Y-52037902D01*
X82758096Y-51395922D02*
X82826173Y-51394200D01*
X138577609Y-47694827D02*
X138588766Y-47758766D01*
X81503252Y-52717122D02*
X81504974Y-52649045D01*
X81510083Y-52581861D02*
X81518496Y-52515654D01*
X82566903Y-137043556D02*
X82503733Y-137029313D01*
X138628928Y-50330581D02*
X138643171Y-50393749D01*
X81543150Y-136068747D02*
X81528907Y-136005578D01*
X197389895Y-146217478D02*
X197335691Y-146250520D01*
X119603265Y-50071290D02*
X119603265Y-47954122D01*
X118475699Y-51379708D02*
X118539639Y-51368552D01*
X202427272Y-52210860D02*
X202450508Y-52271066D01*
X137345943Y-46632826D02*
X137411098Y-46637674D01*
X201527514Y-51434099D02*
X201589804Y-51451384D01*
X202043463Y-51693794D02*
X202092962Y-51736438D01*
X119862863Y-47167063D02*
X119902868Y-47115709D01*
X82826166Y-51394204D02*
X118280344Y-51394204D01*
X162206808Y-137262194D02*
X161883423Y-137203367D01*
X119601639Y-50136890D02*
X119603265Y-50071290D01*
X82503733Y-137029313D02*
X82441442Y-137012028D01*
X138168249Y-46973437D02*
X138215784Y-47018674D01*
X139480135Y-51316740D02*
X139541436Y-51337022D01*
X82695446Y-137062734D02*
X82630844Y-137054711D01*
X82252634Y-51524655D02*
X82311234Y-51498162D01*
X138215784Y-47018674D02*
X138261020Y-47066210D01*
X119380998Y-50805245D02*
X119415593Y-50750507D01*
X120666900Y-46656854D02*
X120730839Y-46645698D01*
X138014297Y-46853466D02*
X138067397Y-46890788D01*
X139603725Y-51354307D02*
X139666893Y-51368550D01*
X139192234Y-51171942D02*
X139246972Y-51206537D01*
X81659103Y-136369240D02*
X81630098Y-136311550D01*
X139419929Y-51293505D02*
X139480135Y-51316740D01*
X202334941Y-129008740D02*
X202265517Y-129330197D01*
X82146967Y-136881540D02*
X82092227Y-136846945D01*
X118602807Y-51354309D02*
X118665097Y-51337024D01*
X82624706Y-51409443D02*
X82690912Y-51401030D01*
X137539637Y-46656856D02*
X137602805Y-46671099D01*
X82760603Y-137067580D02*
X82695446Y-137062734D01*
X82826173Y-51394200D02*
X82826166Y-51394204D01*
X138303663Y-47115709D02*
X138343669Y-47167063D01*
X119617767Y-47758765D02*
X119628925Y-47694825D01*
X138790944Y-50750506D02*
X138825539Y-50805244D01*
X81729189Y-51977464D02*
X81766073Y-51925597D01*
X119014303Y-51171942D02*
X119067404Y-51134620D01*
X202140497Y-51781674D02*
X202185733Y-51829210D01*
X197634646Y-146015003D02*
X197589538Y-146060271D01*
X202450508Y-52271066D02*
X202470792Y-52332367D01*
X119643169Y-47631657D02*
X119660455Y-47569368D01*
X81762845Y-136533348D02*
X81725522Y-136480248D01*
X139860587Y-51392578D02*
X139926187Y-51394204D01*
X196661951Y-146428030D02*
X196596304Y-146425734D01*
X139038282Y-51051970D02*
X139087781Y-51094614D01*
X138643171Y-50393749D02*
X138660456Y-50456038D01*
X138563365Y-47631659D02*
X138577609Y-47694827D01*
X81580719Y-136192340D02*
X81560436Y-136131037D01*
X138603265Y-47954122D02*
X138603281Y-50071286D01*
X139246972Y-51206537D02*
X139303239Y-51238359D01*
X119577611Y-50330584D02*
X119588767Y-50266645D01*
X138118750Y-46930794D02*
X138168249Y-46973437D01*
X119525798Y-50517343D02*
X119546081Y-50456041D01*
X197756819Y-145865822D02*
X197718389Y-145917720D01*
X201770315Y-51521044D02*
X201828004Y-51550049D01*
X197279974Y-146280940D02*
X197222845Y-146308680D01*
X162847543Y-137411565D02*
X162528269Y-137331604D01*
X119563367Y-50393752D02*
X119577611Y-50330584D01*
X81890733Y-136681737D02*
X81845496Y-136634202D01*
X197952097Y-145447240D02*
X197932813Y-145512551D01*
X161558374Y-137155160D02*
X161231923Y-137117605D01*
X120246973Y-46818870D02*
X120303242Y-46787048D01*
X196464234Y-146411103D02*
X196398016Y-146398651D01*
X119703974Y-47447860D02*
X119730117Y-47388858D01*
X202527979Y-52717118D02*
X202527963Y-127048711D01*
X82371310Y-51474475D02*
X82432778Y-51453676D01*
X120860595Y-46632826D02*
X120926195Y-46631200D01*
X138261020Y-47066210D02*
X138303663Y-47115709D01*
X138759121Y-50694238D02*
X138790944Y-50750506D01*
X119447416Y-50694239D02*
X119476421Y-50636550D01*
X138945511Y-50959198D02*
X138990747Y-51006734D01*
X82441442Y-137012028D02*
X82380138Y-136991746D01*
X202479554Y-128033858D02*
X202441993Y-128360309D01*
X119215791Y-51006734D02*
X119261027Y-50959198D01*
X196919586Y-146405119D02*
X196856124Y-146415543D01*
X120192235Y-46853465D02*
X120246973Y-46818870D01*
X82559559Y-51421077D02*
X82624706Y-51409443D01*
X202506425Y-127706266D02*
X202479554Y-128033858D01*
X138502559Y-47447861D02*
X138525795Y-47508067D01*
X81984675Y-51696291D02*
X82034651Y-51657018D01*
X118959565Y-51206537D02*
X119014303Y-51171942D01*
X197164406Y-146333681D02*
X197104759Y-146355884D01*
X202228376Y-51878709D02*
X202268382Y-51930063D01*
X138604904Y-50136886D02*
X138609750Y-50202041D01*
X138588766Y-47758766D02*
X138596791Y-47823367D01*
X119609741Y-47823366D02*
X119617767Y-47758765D01*
X119261027Y-50959198D02*
X119303670Y-50909699D01*
X202521505Y-52586364D02*
X202526353Y-52651518D01*
X119603265Y-47954122D02*
X119604893Y-47888521D01*
X82630844Y-137054711D02*
X82566903Y-137043556D01*
X138476416Y-47388859D02*
X138502559Y-47447861D01*
X137726396Y-46708667D02*
X137786602Y-46731902D01*
X197932813Y-145512551D02*
X197910488Y-145576122D01*
X202092962Y-51736438D02*
X202140497Y-51781674D01*
X202185733Y-51829210D02*
X202228376Y-51878709D01*
X82311234Y-51498162D02*
X82371310Y-51474475D01*
X119343676Y-50858345D02*
X119380998Y-50805245D01*
X119118757Y-51094614D02*
X119168256Y-51051970D01*
X137602805Y-46671099D02*
X137665094Y-46688385D01*
X139795433Y-51387731D02*
X139860587Y-51392578D01*
X139541436Y-51337022D02*
X139603725Y-51354307D01*
X81936674Y-51737872D02*
X81984675Y-51696291D01*
X138546079Y-47569369D02*
X138563365Y-47631659D01*
X119604893Y-47888521D02*
X119609741Y-47823366D01*
X197335691Y-146250520D02*
X197279974Y-146280940D01*
X118411098Y-51387732D02*
X118475699Y-51379708D01*
X119476421Y-50636550D02*
X119502563Y-50577548D01*
X201205041Y-51394204D02*
X201270644Y-51395829D01*
X81662925Y-52086539D02*
X81694779Y-52031139D01*
X118786605Y-51293507D02*
X118845607Y-51267364D01*
X197718389Y-145917720D02*
X197677631Y-145967467D01*
X138617772Y-50266642D02*
X138628928Y-50330581D01*
X138902868Y-50909699D02*
X138945511Y-50959198D01*
X197104759Y-146355884D02*
X197044005Y-146375231D01*
X81694779Y-52031139D02*
X81729189Y-51977464D01*
X81845496Y-136634202D02*
X81802852Y-136584703D01*
X197677631Y-145967467D02*
X197634646Y-146015003D01*
X197826289Y-145755808D02*
X197792820Y-145811832D01*
X81583529Y-52262257D02*
X81607217Y-52202181D01*
X137280344Y-46631200D02*
X137345943Y-46632826D01*
X119759122Y-47331169D02*
X119790945Y-47274901D01*
X118539639Y-51368552D02*
X118602807Y-51354309D01*
X81630098Y-136311550D02*
X81603955Y-136252547D01*
X82260927Y-136942368D02*
X82203236Y-136913363D01*
X138730116Y-50636548D02*
X138759121Y-50694238D01*
X81607217Y-52202181D02*
X81633709Y-52143581D01*
X201828004Y-51550049D02*
X201884272Y-51581871D01*
X81766073Y-51925597D02*
X81805346Y-51875621D01*
X82319931Y-136968511D02*
X82260927Y-136942368D01*
X81562730Y-52323726D02*
X81583529Y-52262257D01*
X138703973Y-50577547D02*
X138730116Y-50636548D01*
X137845603Y-46758044D02*
X137903292Y-46787049D01*
X82690912Y-51401030D02*
X82758096Y-51395922D01*
X202502323Y-52457824D02*
X202513480Y-52521763D01*
X119415593Y-50750507D02*
X119447416Y-50694239D01*
X202522573Y-127377797D02*
X202506425Y-127706266D01*
X138343669Y-47167063D02*
X138380992Y-47220163D01*
X81504974Y-52649045D02*
X81510083Y-52581861D01*
X196982247Y-146391662D02*
X196919586Y-146405119D01*
X137665094Y-46688385D02*
X137726396Y-46708667D01*
X81690926Y-136425509D02*
X81659103Y-136369240D01*
X137903292Y-46787049D02*
X137959559Y-46818871D01*
X202372124Y-52094169D02*
X202401129Y-52151858D01*
X201884272Y-51581871D02*
X201939010Y-51616466D01*
X119790945Y-47274901D02*
X119825540Y-47220163D01*
X201651106Y-51471667D02*
X201711313Y-51494902D01*
X119730117Y-47388858D02*
X119759122Y-47331169D01*
X120541442Y-46688383D02*
X120603731Y-46671097D01*
X81938270Y-136726973D02*
X81890733Y-136681737D01*
X137959559Y-46818871D02*
X138014297Y-46853466D01*
X81805346Y-51875621D02*
X81846926Y-51827620D01*
X202268382Y-51930063D02*
X202305705Y-51983163D01*
X81890730Y-51781675D02*
X81936674Y-51737872D01*
X82826204Y-137069203D02*
X82760603Y-137067580D01*
X138990747Y-51006734D02*
X139038282Y-51051970D01*
X119902868Y-47115709D02*
X119945511Y-47066210D01*
X197442483Y-146181873D02*
X197389895Y-146217478D01*
X82140192Y-51585724D02*
X82195592Y-51553870D01*
X138415587Y-47274902D02*
X138447410Y-47331170D01*
X139666893Y-51368550D02*
X139730832Y-51379707D01*
X120730839Y-46645698D02*
X120795440Y-46637673D01*
X196398016Y-146398651D02*
X196331812Y-146382695D01*
X119596792Y-50202044D02*
X119601639Y-50136890D01*
X202488078Y-52394656D02*
X202502323Y-52457824D01*
X201464344Y-51419856D02*
X201527514Y-51434099D01*
X201335801Y-51400676D02*
X201400404Y-51408700D01*
X119067404Y-51134620D02*
X119118757Y-51094614D01*
X139139134Y-51134619D02*
X139192234Y-51171942D01*
X197222845Y-146308680D02*
X197164406Y-146333681D01*
X120360931Y-46758043D02*
X120419933Y-46731901D01*
X201992110Y-51653789D02*
X202043463Y-51693794D01*
X81504878Y-135811882D02*
X81503252Y-135746282D01*
X197857124Y-145697809D02*
X197826289Y-145755808D01*
X138660456Y-50456038D02*
X138680738Y-50517340D01*
X82086518Y-51620135D02*
X82140192Y-51585724D01*
X118345944Y-51392579D02*
X118411098Y-51387732D01*
X202185541Y-129649465D02*
X197952097Y-145447240D01*
X160904332Y-137090738D02*
X160575862Y-137074593D01*
X118845607Y-51267364D02*
X118903297Y-51238360D01*
X138862862Y-50858345D02*
X138902868Y-50909699D01*
X82092227Y-136846945D02*
X82039125Y-136809622D01*
X138067397Y-46890788D02*
X138118750Y-46930794D01*
X139087781Y-51094614D02*
X139139134Y-51134619D01*
X196530364Y-146420111D02*
X196464234Y-146411103D01*
X196856124Y-146415543D02*
X196791964Y-146422875D01*
X196596304Y-146425734D02*
X196530364Y-146420111D01*
X196727205Y-146427057D02*
X196661951Y-146428030D01*
X139303239Y-51238359D02*
X139360928Y-51267363D01*
X119945511Y-47066210D02*
X119990747Y-47018674D01*
X137475699Y-46645699D02*
X137539637Y-46656856D01*
X120087781Y-46930794D02*
X120139135Y-46890788D01*
X202340300Y-52037902D02*
X202372124Y-52094169D01*
X81503252Y-135746282D02*
X81503252Y-52717122D01*
X81528907Y-136005578D02*
X81517750Y-135941638D01*
X197792820Y-145811832D02*
X197756819Y-145865822D01*
X137786602Y-46731902D02*
X137845603Y-46758044D01*
X119546081Y-50456041D02*
X119563367Y-50393752D01*
X162528269Y-137331604D02*
X162206808Y-137262194D01*
X201589804Y-51451384D02*
X201651106Y-51471667D01*
X201400404Y-51408700D02*
X201464344Y-51419856D01*
X119628925Y-47694825D02*
X119643169Y-47631657D01*
X119303670Y-50909699D02*
X119343676Y-50858345D01*
X81509725Y-135877037D02*
X81504878Y-135811882D01*
X120795440Y-46637673D02*
X120860595Y-46632826D01*
X202441993Y-128360309D02*
X202393778Y-128685357D01*
X197542406Y-146103211D02*
X197493354Y-146143765D01*
X202527963Y-127048711D02*
X202522573Y-127377797D01*
X138680738Y-50517340D02*
X138703973Y-50577547D01*
X120038282Y-46973437D02*
X120087781Y-46930794D01*
X119825540Y-47220163D02*
X119862863Y-47167063D01*
X138380992Y-47220163D02*
X138415587Y-47274902D01*
X202401129Y-52151858D02*
X202427272Y-52210860D01*
X202393778Y-128685357D02*
X202334941Y-129008740D01*
X197910488Y-145576122D02*
X197885225Y-145637894D01*
X138603281Y-50071286D02*
X138604904Y-50136886D01*
X138609750Y-50202041D02*
X138617772Y-50266642D01*
X82034651Y-51657018D02*
X82086518Y-51620135D01*
X119990747Y-47018674D02*
X120038282Y-46973437D01*
X118280344Y-51394204D02*
X118345944Y-51392579D01*
X81725522Y-136480248D02*
X81690926Y-136425509D01*
X161883423Y-137203367D02*
X161558374Y-137155160D01*
X139360928Y-51267363D02*
X139419929Y-51293505D01*
X120480139Y-46708666D02*
X120541442Y-46688383D01*
X202265517Y-129330197D02*
X202185541Y-129649465D01*
X201270644Y-51395829D02*
X201335801Y-51400676D01*
X119502563Y-50577548D02*
X119525798Y-50517343D01*
X137411098Y-46637674D02*
X137475699Y-46645699D01*
X82495555Y-51435849D02*
X82559559Y-51421077D01*
X138525795Y-47508067D02*
X138546079Y-47569369D01*
X118903297Y-51238360D02*
X118959565Y-51206537D01*
X197885225Y-145637894D02*
X197857124Y-145697809D01*
X201711313Y-51494902D02*
X201770315Y-51521044D01*
X81633709Y-52143581D02*
X81662925Y-52086539D01*
X81544903Y-52386503D02*
X81562730Y-52323726D01*
X138601639Y-47888522D02*
X138603265Y-47954122D01*
X81530131Y-52450507D02*
X81544903Y-52386503D01*
X81517750Y-135941638D02*
X81509725Y-135877037D01*
X81518496Y-52515654D02*
X81530131Y-52450507D01*
X197044005Y-146375231D02*
X196982247Y-146391662D01*
X160246774Y-137069203D02*
X82826204Y-137069203D01*
X119660455Y-47569368D02*
X119680739Y-47508066D01*
X160575862Y-137074593D02*
X160246774Y-137069203D01*
X120926195Y-46631200D02*
X137280344Y-46631200D01*
X139730832Y-51379707D02*
X139795433Y-51387731D01*
X82039125Y-136809622D02*
X81987770Y-136769616D01*
X118665097Y-51337024D02*
X118726399Y-51316741D01*
X81560436Y-136131037D02*
X81543150Y-136068747D01*
X138596791Y-47823367D02*
X138601639Y-47888522D01*
X201939010Y-51616466D02*
X201992110Y-51653789D01*
X139926187Y-51394204D02*
X201205041Y-51394204D01*
X119168256Y-51051970D02*
X119215791Y-51006734D01*
X119588767Y-50266645D02*
X119596792Y-50202044D01*
X138447410Y-47331170D02*
X138476416Y-47388859D01*
X81846926Y-51827620D02*
X81890730Y-51781675D01*
X82380138Y-136991746D02*
X82319931Y-136968511D01*
X202470792Y-52332367D02*
X202488078Y-52394656D01*
X120303242Y-46787048D02*
X120360931Y-46758043D01*
X120419933Y-46731901D02*
X120480139Y-46708666D01*
X119680739Y-47508066D02*
X119703974Y-47447860D01*
X197589538Y-146060271D02*
X197542406Y-146103211D01*
X82203236Y-136913363D02*
X82146967Y-136881540D01*
M02*
