%TF.GenerationSoftware,KiCad,Pcbnew,7.0.2*%
%TF.CreationDate,2023-10-26T02:33:03+11:00*%
%TF.ProjectId,cybr36,63796272-3336-42e6-9b69-6361645f7063,rev?*%
%TF.SameCoordinates,Original*%
%TF.FileFunction,Soldermask,Top*%
%TF.FilePolarity,Negative*%
%FSLAX46Y46*%
G04 Gerber Fmt 4.6, Leading zero omitted, Abs format (unit mm)*
G04 Created by KiCad (PCBNEW 7.0.2) date 2023-10-26 02:33:03*
%MOMM*%
%LPD*%
G01*
G04 APERTURE LIST*
G04 Aperture macros list*
%AMRoundRect*
0 Rectangle with rounded corners*
0 $1 Rounding radius*
0 $2 $3 $4 $5 $6 $7 $8 $9 X,Y pos of 4 corners*
0 Add a 4 corners polygon primitive as box body*
4,1,4,$2,$3,$4,$5,$6,$7,$8,$9,$2,$3,0*
0 Add four circle primitives for the rounded corners*
1,1,$1+$1,$2,$3*
1,1,$1+$1,$4,$5*
1,1,$1+$1,$6,$7*
1,1,$1+$1,$8,$9*
0 Add four rect primitives between the rounded corners*
20,1,$1+$1,$2,$3,$4,$5,0*
20,1,$1+$1,$4,$5,$6,$7,0*
20,1,$1+$1,$6,$7,$8,$9,0*
20,1,$1+$1,$8,$9,$2,$3,0*%
%AMRotRect*
0 Rectangle, with rotation*
0 The origin of the aperture is its center*
0 $1 length*
0 $2 width*
0 $3 Rotation angle, in degrees counterclockwise*
0 Add horizontal line*
21,1,$1,$2,0,0,$3*%
G04 Aperture macros list end*
%ADD10R,8.000000X8.000000*%
%ADD11R,5.200000X5.200000*%
%ADD12R,2.550000X2.500000*%
%ADD13C,1.701800*%
%ADD14C,3.000000*%
%ADD15C,3.987800*%
%ADD16C,3.200000*%
%ADD17R,1.500000X0.700000*%
%ADD18R,0.800000X1.000000*%
%ADD19C,0.900000*%
%ADD20C,1.524000*%
%ADD21RoundRect,0.225000X-0.375000X0.225000X-0.375000X-0.225000X0.375000X-0.225000X0.375000X0.225000X0*%
%ADD22RotRect,2.550000X2.500000X345.000000*%
%ADD23R,2.000000X2.100000*%
G04 APERTURE END LIST*
D10*
%TO.C,BT1*%
X119175970Y-123015616D03*
D11*
X132990970Y-123015616D03*
X105360970Y-123015616D03*
%TD*%
D12*
%TO.C,SW11*%
X155123470Y-58338116D03*
X141273470Y-55798116D03*
D13*
X153218470Y-60878116D03*
D14*
X151948470Y-58338116D03*
X150678470Y-55798116D03*
D15*
X148138470Y-60878116D03*
D14*
X145598470Y-55798116D03*
X144328470Y-58338116D03*
D13*
X143058470Y-60878116D03*
%TD*%
D16*
%TO.C,H5*%
X190500000Y-119400000D03*
%TD*%
D17*
%TO.C,SW21*%
X198845000Y-117250000D03*
X198845000Y-118750000D03*
X198845000Y-121750000D03*
D18*
X201705000Y-115850000D03*
X199495000Y-115850000D03*
D19*
X200605000Y-118000000D03*
X200605000Y-121000000D03*
D18*
X201705000Y-123150000D03*
X199495000Y-123150000D03*
%TD*%
D20*
%TO.C,U1*%
X181610000Y-56642000D03*
X198156400Y-55372000D03*
X181610000Y-59182000D03*
X198156400Y-57912000D03*
X198156400Y-60452000D03*
X181610000Y-61722000D03*
X198156400Y-62992000D03*
X181610000Y-64262000D03*
X181610000Y-66802000D03*
X198156400Y-65532000D03*
X198156400Y-68072000D03*
X181610000Y-69342000D03*
X181610000Y-71882000D03*
X198156400Y-70612000D03*
X181610000Y-74422000D03*
X198156400Y-73152000D03*
X198156400Y-75692000D03*
X181610000Y-76962000D03*
X181610000Y-79502000D03*
X198156400Y-78232000D03*
X181610000Y-82042000D03*
X198156400Y-80772000D03*
X181610000Y-84582000D03*
X198156400Y-83312000D03*
X196850000Y-84582000D03*
X182936400Y-83312000D03*
X196850000Y-82042000D03*
X182936400Y-80772000D03*
X182936400Y-78232000D03*
X196850000Y-79502000D03*
X182936400Y-75692000D03*
X196850000Y-76962000D03*
X196850000Y-74422000D03*
X182936400Y-73152000D03*
X182936400Y-70612000D03*
X196850000Y-71882000D03*
X196850000Y-69342000D03*
X182936400Y-68072000D03*
X182936400Y-65532000D03*
X196850000Y-66802000D03*
X196850000Y-64262000D03*
X182936400Y-62992000D03*
X196850000Y-61722000D03*
X182936400Y-60452000D03*
X182936400Y-57912000D03*
X196850000Y-59182000D03*
X196850000Y-56642000D03*
X182936400Y-55372000D03*
%TD*%
D21*
%TO.C,D18*%
X193500000Y-107700000D03*
X193500000Y-111000000D03*
%TD*%
D16*
%TO.C,H3*%
X157318470Y-70403116D03*
%TD*%
D21*
%TO.C,D4*%
X187500000Y-93000000D03*
X187500000Y-89700000D03*
%TD*%
%TO.C,D16*%
X196500000Y-95700000D03*
X196500000Y-99000000D03*
%TD*%
D12*
%TO.C,SW3*%
X97973470Y-110725616D03*
X84123470Y-108185616D03*
D13*
X96068470Y-113265616D03*
D14*
X94798470Y-110725616D03*
X93528470Y-108185616D03*
D15*
X90988470Y-113265616D03*
D14*
X88448470Y-108185616D03*
X87178470Y-110725616D03*
D13*
X85908470Y-113265616D03*
%TD*%
D16*
%TO.C,H1*%
X157318470Y-89453116D03*
%TD*%
D12*
%TO.C,SW16*%
X174173470Y-77388116D03*
X160323470Y-74848116D03*
D13*
X172268470Y-79928116D03*
D14*
X170998470Y-77388116D03*
X169728470Y-74848116D03*
D15*
X167188470Y-79928116D03*
D14*
X164648470Y-74848116D03*
X163378470Y-77388116D03*
D13*
X162108470Y-79928116D03*
%TD*%
D12*
%TO.C,SW5*%
X117023470Y-77388116D03*
X103173470Y-74848116D03*
D13*
X115118470Y-79928116D03*
D14*
X113848470Y-77388116D03*
X112578470Y-74848116D03*
D15*
X110038470Y-79928116D03*
D14*
X107498470Y-74848116D03*
X106228470Y-77388116D03*
D13*
X104958470Y-79928116D03*
%TD*%
D22*
%TO.C,SW14*%
X179881351Y-129498012D03*
X167160679Y-123459917D03*
D13*
X177383862Y-131458414D03*
D14*
X176814537Y-128676262D03*
X176245211Y-125894110D03*
D15*
X172476959Y-130143613D03*
D14*
X171338308Y-124579309D03*
X169454182Y-126704061D03*
D13*
X167570056Y-128828812D03*
%TD*%
D12*
%TO.C,SW6*%
X117023470Y-96438116D03*
X103173470Y-93898116D03*
D13*
X115118470Y-98978116D03*
D14*
X113848470Y-96438116D03*
X112578470Y-93898116D03*
D15*
X110038470Y-98978116D03*
D14*
X107498470Y-93898116D03*
X106228470Y-96438116D03*
D13*
X104958470Y-98978116D03*
%TD*%
D12*
%TO.C,SW17*%
X174173470Y-96438116D03*
X160323470Y-93898116D03*
D13*
X172268470Y-98978116D03*
D14*
X170998470Y-96438116D03*
X169728470Y-93898116D03*
D15*
X167188470Y-98978116D03*
D14*
X164648470Y-93898116D03*
X163378470Y-96438116D03*
D13*
X162108470Y-98978116D03*
%TD*%
D12*
%TO.C,SW1*%
X97973470Y-72625616D03*
X84123470Y-70085616D03*
D13*
X96068470Y-75165616D03*
D14*
X94798470Y-72625616D03*
X93528470Y-70085616D03*
D15*
X90988470Y-75165616D03*
D14*
X88448470Y-70085616D03*
X87178470Y-72625616D03*
D13*
X85908470Y-75165616D03*
%TD*%
D21*
%TO.C,D13*%
X193500000Y-101700000D03*
X193500000Y-105000000D03*
%TD*%
D12*
%TO.C,SW15*%
X174173470Y-58338116D03*
X160323470Y-55798116D03*
D13*
X172268470Y-60878116D03*
D14*
X170998470Y-58338116D03*
X169728470Y-55798116D03*
D15*
X167188470Y-60878116D03*
D14*
X164648470Y-55798116D03*
X163378470Y-58338116D03*
D13*
X162108470Y-60878116D03*
%TD*%
D21*
%TO.C,D9*%
X190500000Y-101700000D03*
X190500000Y-105000000D03*
%TD*%
%TO.C,D15*%
X196500000Y-93000000D03*
X196500000Y-89700000D03*
%TD*%
%TO.C,D1*%
X184500000Y-89700000D03*
X184500000Y-93000000D03*
%TD*%
%TO.C,D3*%
X184500000Y-101700000D03*
X184500000Y-105000000D03*
%TD*%
D12*
%TO.C,SW13*%
X155123470Y-96438116D03*
X141273470Y-93898116D03*
D13*
X153218470Y-98978116D03*
D14*
X151948470Y-96438116D03*
X150678470Y-93898116D03*
D15*
X148138470Y-98978116D03*
D14*
X145598470Y-93898116D03*
X144328470Y-96438116D03*
D13*
X143058470Y-98978116D03*
%TD*%
D21*
%TO.C,D8*%
X190500000Y-95700000D03*
X190500000Y-99000000D03*
%TD*%
D23*
%TO.C,SW20*%
X200250000Y-108000000D03*
X200250000Y-113500000D03*
%TD*%
D21*
%TO.C,D7*%
X190500000Y-93000000D03*
X190500000Y-89700000D03*
%TD*%
D12*
%TO.C,SW12*%
X155123470Y-77388116D03*
X141273470Y-74848116D03*
D13*
X153218470Y-79928116D03*
D14*
X151948470Y-77388116D03*
X150678470Y-74848116D03*
D15*
X148138470Y-79928116D03*
D14*
X145598470Y-74848116D03*
X144328470Y-77388116D03*
D13*
X143058470Y-79928116D03*
%TD*%
D16*
%TO.C,H2*%
X100168470Y-103740616D03*
%TD*%
D12*
%TO.C,SW4*%
X117023470Y-58338116D03*
X103173470Y-55798116D03*
D13*
X115118470Y-60878116D03*
D14*
X113848470Y-58338116D03*
X112578470Y-55798116D03*
D15*
X110038470Y-60878116D03*
D14*
X107498470Y-55798116D03*
X106228470Y-58338116D03*
D13*
X104958470Y-60878116D03*
%TD*%
D12*
%TO.C,SW7*%
X136073470Y-53575616D03*
X122223470Y-51035616D03*
D13*
X134168470Y-56115616D03*
D14*
X132898470Y-53575616D03*
X131628470Y-51035616D03*
D15*
X129088470Y-56115616D03*
D14*
X126548470Y-51035616D03*
X125278470Y-53575616D03*
D13*
X124008470Y-56115616D03*
%TD*%
D21*
%TO.C,D10*%
X187500000Y-107700000D03*
X187500000Y-111000000D03*
%TD*%
%TO.C,D17*%
X196500000Y-101700000D03*
X196500000Y-105000000D03*
%TD*%
%TO.C,D2*%
X184500000Y-95700000D03*
X184500000Y-99000000D03*
%TD*%
%TO.C,D12*%
X193500000Y-95700000D03*
X193500000Y-99000000D03*
%TD*%
D12*
%TO.C,SW10*%
X155123470Y-125013116D03*
X141273470Y-122473116D03*
D13*
X153218470Y-127553116D03*
D14*
X151948470Y-125013116D03*
X150678470Y-122473116D03*
D15*
X148138470Y-127553116D03*
D14*
X145598470Y-122473116D03*
X144328470Y-125013116D03*
D13*
X143058470Y-127553116D03*
%TD*%
D12*
%TO.C,SW8*%
X136073470Y-72625616D03*
X122223470Y-70085616D03*
D13*
X134168470Y-75165616D03*
D14*
X132898470Y-72625616D03*
X131628470Y-70085616D03*
D15*
X129088470Y-75165616D03*
D14*
X126548470Y-70085616D03*
X125278470Y-72625616D03*
D13*
X124008470Y-75165616D03*
%TD*%
%TO.C,SW9*%
X124008470Y-94215616D03*
D14*
X125278470Y-91675616D03*
X126548470Y-89135616D03*
D15*
X129088470Y-94215616D03*
D14*
X131628470Y-89135616D03*
X132898470Y-91675616D03*
D13*
X134168470Y-94215616D03*
D12*
X122223470Y-89135616D03*
X136073470Y-91675616D03*
%TD*%
%TO.C,SW2*%
X97973470Y-91675616D03*
X84123470Y-89135616D03*
D13*
X96068470Y-94215616D03*
D14*
X94798470Y-91675616D03*
X93528470Y-89135616D03*
D15*
X90988470Y-94215616D03*
D14*
X88448470Y-89135616D03*
X87178470Y-91675616D03*
D13*
X85908470Y-94215616D03*
%TD*%
D21*
%TO.C,D6*%
X187500000Y-101700000D03*
X187500000Y-105000000D03*
%TD*%
%TO.C,D11*%
X193500000Y-93000000D03*
X193500000Y-89700000D03*
%TD*%
%TO.C,D14*%
X190500000Y-107700000D03*
X190500000Y-111000000D03*
%TD*%
D22*
%TO.C,SW18*%
X198282352Y-134428508D03*
X185561680Y-128390413D03*
D13*
X195784863Y-136388910D03*
D14*
X195215538Y-133606758D03*
X194646212Y-130824606D03*
D15*
X190877960Y-135074109D03*
D14*
X189739309Y-129509805D03*
X187855183Y-131634557D03*
D13*
X185971057Y-133759308D03*
%TD*%
D21*
%TO.C,D5*%
X187500000Y-95700000D03*
X187500000Y-99000000D03*
%TD*%
D16*
%TO.C,H4*%
X100168470Y-84690616D03*
%TD*%
M02*
